<svg xmlns="http://www.w3.org/2000/svg" xmlns:xlink="http://www.w3.org/1999/xlink" fill="none" version="1.1" width="15.999999046325684" height="15.999999046325684" viewBox="0 0 15.999999046325684 15.999999046325684"><defs><clipPath id="master_svg0_346_2630"><rect x="0" y="0" width="15.999999046325684" height="15.999999046325684" rx="0"/></clipPath></defs><g clip-path="url(#master_svg0_346_2630)"><g><rect x="0" y="0" width="16" height="16" rx="0" fill="#FFFFFF" fill-opacity="0.009999999776482582"/></g><g><path d="M2.000081046875,13.3333L2.000081046875,2.666667Q2.000081046875,2.114382,2.3906050468749998,1.723858Q2.781130046875,1.333333,3.333415046875,1.333333L10.000078046875,1.333333Q10.113618046875,1.333333,10.220748046875,1.370915Q10.327888046875,1.408496,10.416548046875,1.4794209999999999L13.749848046875,4.14609Q13.868448046875,4.24097,13.934248046875,4.37787Q14.000048046875,4.51478,14.000048046875,4.66667L14.000048046875,13.3333Q14.000048046875,13.8856,13.609548046875,14.2761Q13.219048046875,14.6667,12.666748046875,14.6667L3.333415046875,14.6667Q2.781130046875,14.6667,2.390608046875,14.2761Q2.000081046875,13.8856,2.000081046875,13.3333L2.000081046875,13.3333ZM3.333415046875,13.3333L3.333415046875,13.3333L12.666748046875,13.3333L12.666748046875,13.3333L12.666748046875,4.66667L13.333448046875,4.66667L12.916948046875,5.187250000000001L9.583618046875,2.520579L10.000078046875,2L10.000078046875,2.666667L3.333415046875,2.666667L3.333415046875,2.666667L3.333415046875,13.3333L3.333415046875,13.3333Z" fill="#212121" fill-opacity="1"/></g><g><path d="M10.666581953125,7.333415046875L5.333251953125,7.333415046875Q5.267591053125,7.333415046875,5.203191953125,7.320605046875Q5.138792953125,7.307795046875,5.078129953125,7.282668046875Q5.017466953125,7.257540046875,4.962871953125,7.221061046875Q4.908276953125,7.184582046875,4.861847953125,7.138152046875Q4.815417953125,7.091723046875,4.778938953125,7.037128046875Q4.742459953125,6.982533046875,4.717331953125,6.921870046875Q4.692204953125,6.861207046875,4.679394953125,6.796808046875Q4.666584953125,6.732408946875,4.666584953125,6.666748046875Q4.666584953125,6.601087146875,4.679394953125,6.536688046875Q4.692204953125,6.472289046875,4.717331953125,6.411626046875Q4.742459953125,6.350963046875,4.778938953125,6.296368046875Q4.815417953125,6.241773046875,4.861847953125,6.195344046875Q4.908276953125,6.148914046875,4.962871953125,6.112435046875Q5.017466953125,6.075956046875,5.078129953125,6.050828046875Q5.138792953125,6.025701046875,5.203191953125,6.012891046875Q5.267591053125,6.000081046875,5.333251953125,6.000081046875L10.666581953125,6.000081046875Q10.732241953125001,6.000081046875,10.796641953125,6.012891046875Q10.861041953125,6.025701046875,10.921701953125,6.050828046875Q10.982371953125,6.075956046875,11.036961953125001,6.112435046875Q11.091561953125,6.148914046875,11.137991953124999,6.195344046875Q11.184421953125,6.241773046875,11.220891953125001,6.296368046875Q11.257371953125,6.350963046875,11.282501953125,6.411626046875Q11.307631953125,6.472289046875,11.320441953125,6.536688046875Q11.333251953125,6.601087146875,11.333251953125,6.666748046875Q11.333251953125,6.732408946875,11.320441953125,6.796808046875Q11.307631953125,6.861207046875,11.282501953125,6.921870046875Q11.257371953125,6.982533046875,11.220901953125,7.037128046875Q11.184421953125,7.091723046875,11.137991953124999,7.138152046875Q11.091561953125,7.184582046875,11.036961953125001,7.221061046875Q10.982371953125,7.257540046875,10.921701953125,7.282668046875Q10.861041953125,7.307795046875,10.796641953125,7.320605046875Q10.732241953125001,7.333415046875,10.666581953125,7.333415046875ZM11.331581953125,6.666748046875Q11.331581953125,6.732244846875,11.318801953125,6.796483046875Q11.306031953125,6.860721046875,11.280961953125,6.921232046875Q11.255901953125,6.981744046875,11.219511953125,7.036202046875Q11.183121953125,7.090661046875,11.136811953125001,7.136974046875Q11.090501953124999,7.183287046875,11.036041953125,7.219675046875Q10.981581953125,7.256063046875,10.921071953125,7.281128046875Q10.860561953125,7.306192046875,10.796321953125,7.318970046875Q10.732081953125,7.331748046875,10.666581953125,7.331748046875Q10.601091953125,7.331748046875,10.536851953125,7.318970046875Q10.472611953125,7.306192046875,10.412101953125,7.281128046875Q10.351591953125,7.256063046875,10.297131953125,7.219675046875Q10.242671953125,7.183287046875,10.196361953124999,7.136974046875Q10.150041953125001,7.090661046875,10.113661953125,7.036202046875Q10.077271953124999,6.981744046875,10.052201953125,6.921232046875Q10.027141953125,6.860721046875,10.014361953125,6.796483046875Q10.001581953125001,6.732244846875,10.001581953125001,6.666748046875Q10.001581953125001,6.601251246875,10.014361953125,6.537013046875Q10.027141953125,6.472775046875,10.052201953125,6.412264046875Q10.077271953124999,6.351752046875,10.113661953125,6.297294046875Q10.150041953125001,6.242835046875,10.196361953124999,6.196522046875Q10.242671953125,6.150209046875,10.297131953125,6.113821046875Q10.351591953125,6.077433046875,10.412101953125,6.052368046875Q10.472611953125,6.027304046875,10.536851953125,6.014526046875Q10.601091953125,6.001748046875,10.666581953125,6.001748046875Q10.732081953125,6.001748046875,10.796321953125,6.014526046875Q10.860561953125,6.027304046875,10.921071953125,6.052368046875Q10.981581953125,6.077433046875,11.036041953125,6.113821046875Q11.090501953124999,6.150209046875,11.136811953125001,6.196522046875Q11.183121953125,6.242835046875,11.219511953125,6.297294046875Q11.255901953125,6.351752046875,11.280961953125,6.412264046875Q11.306031953125,6.472775046875,11.318801953125,6.537013046875Q11.331581953125,6.601251246875,11.331581953125,6.666748046875ZM5.998251953125,6.666748046875Q5.998251953125,6.732244846875,5.985473953125,6.796483046875Q5.972695953125,6.860721046875,5.947631953125,6.921232046875Q5.922566953125,6.981744046875,5.886178953125,7.036202046875Q5.849790953125,7.090661046875,5.803477953125,7.136974046875Q5.757164953125,7.183287046875,5.702705953125,7.219675046875Q5.648247953125,7.256063046875,5.587735953125,7.281128046875Q5.527224953125,7.306192046875,5.462986953125,7.318970046875Q5.398748753125,7.331748046875,5.333251953125,7.331748046875Q5.267755153125,7.331748046875,5.203516953125,7.318970046875Q5.139278953125,7.306192046875,5.078767953125,7.281128046875Q5.018255953125,7.256063046875,4.963797953125,7.219675046875Q4.909338953125,7.183287046875,4.863025953125,7.136974046875Q4.816712953125,7.090661046875,4.780324953125,7.036202046875Q4.743936953125,6.981744046875,4.718871953125,6.921232046875Q4.693807953125,6.860721046875,4.681029953125,6.796483046875Q4.668251953125,6.732244846875,4.668251953125,6.666748046875Q4.668251953125,6.601251246875,4.681029953125,6.537013046875Q4.693807953125,6.472775046875,4.718871953125,6.412264046875Q4.743936953125,6.351752046875,4.780324953125,6.297294046875Q4.816712953125,6.242835046875,4.863025953125,6.196522046875Q4.909338953125,6.150209046875,4.963797953125,6.113821046875Q5.018255953125,6.077433046875,5.078767953125,6.052368046875Q5.139278953125,6.027304046875,5.203516953125,6.014526046875Q5.267755153125,6.001748046875,5.333251953125,6.001748046875Q5.398748753125,6.001748046875,5.462986953125,6.014526046875Q5.527224953125,6.027304046875,5.587735953125,6.052368046875Q5.648247953125,6.077433046875,5.702705953125,6.113821046875Q5.757164953125,6.150209046875,5.803477953125,6.196522046875Q5.849790953125,6.242835046875,5.886178953125,6.297294046875Q5.922566953125,6.351752046875,5.947631953125,6.412264046875Q5.972695953125,6.472775046875,5.985473953125,6.537013046875Q5.998251953125,6.601251246875,5.998251953125,6.666748046875Z" fill="#212121" fill-opacity="1"/></g><g><path d="M10.666581953125,9.999918953125L5.333251953125,9.999918953125Q5.267591053125,9.999918953125,5.203191953125,9.987108953125Q5.138792953125,9.974298953125,5.078129953125,9.949171953125Q5.017466953125,9.924043953125,4.962871953125,9.887564953125Q4.908276953125,9.851085953125,4.861847953125,9.804655953125Q4.815417953125,9.758226953125,4.778938953125,9.703631953125Q4.742459953125,9.649036953125,4.717331953125,9.588373953125Q4.692204953125,9.527710953125,4.679394953125,9.463311953125Q4.666584953125,9.398912853125,4.666584953125,9.333251953125Q4.666584953125,9.267591053125,4.679394953125,9.203191953125Q4.692204953125,9.138792953125,4.717331953125,9.078129953125Q4.742459953125,9.017466953125,4.778938953125,8.962871953125Q4.815417953125,8.908276953125,4.861847953125,8.861847953125Q4.908276953125,8.815417953125,4.962871953125,8.778938953125Q5.017466953125,8.742459953125,5.078129953125,8.717331953125Q5.138792953125,8.692204953125,5.203191953125,8.679394953125Q5.267591053125,8.666584953125,5.333251953125,8.666584953125L10.666581953125,8.666584953125Q10.732241953125001,8.666584953125,10.796641953125,8.679394953125Q10.861041953125,8.692204953125,10.921701953125,8.717331953125Q10.982371953125,8.742459953125,11.036961953125001,8.778938953125Q11.091561953125,8.815417953125,11.137991953124999,8.861847953125Q11.184421953125,8.908276953125,11.220891953125001,8.962871953125Q11.257371953125,9.017466953125,11.282501953125,9.078129953125Q11.307631953125,9.138792953125,11.320441953125,9.203191953125Q11.333251953125,9.267591053125,11.333251953125,9.333251953125Q11.333251953125,9.398912853125,11.320441953125,9.463311953125Q11.307631953125,9.527710953125,11.282501953125,9.588373953125Q11.257371953125,9.649036953125,11.220901953125,9.703631953125Q11.184421953125,9.758226953125,11.137991953124999,9.804655953125Q11.091561953125,9.851085953125,11.036961953125001,9.887564953125Q10.982371953125,9.924043953125,10.921701953125,9.949171953125Q10.861041953125,9.974298953125,10.796641953125,9.987108953125Q10.732241953125001,9.999918953125,10.666581953125,9.999918953125ZM11.331581953125,9.333251953125Q11.331581953125,9.398748753125,11.318801953125,9.462986953125Q11.306031953125,9.527224953125,11.280961953125,9.587735953125Q11.255901953125,9.648247953125,11.219511953125,9.702705953125Q11.183121953125,9.757164953125,11.136811953125001,9.803477953125Q11.090501953124999,9.849790953125,11.036041953125,9.886178953125Q10.981581953125,9.922566953125,10.921071953125,9.947631953125Q10.860561953125,9.972695953125,10.796321953125,9.985473953125Q10.732081953125,9.998251953125,10.666581953125,9.998251953125Q10.601091953125,9.998251953125,10.536851953125,9.985473953125Q10.472611953125,9.972695953125,10.412101953125,9.947631953125Q10.351591953125,9.922566953125,10.297131953125,9.886178953125Q10.242671953125,9.849790953125,10.196361953124999,9.803477953125Q10.150041953125001,9.757164953125,10.113661953125,9.702705953125Q10.077271953124999,9.648247953125,10.052201953125,9.587735953125Q10.027141953125,9.527224953125,10.014361953125,9.462986953125Q10.001581953125001,9.398748753125,10.001581953125001,9.333251953125Q10.001581953125001,9.267755153125,10.014361953125,9.203516953125Q10.027141953125,9.139278953125,10.052201953125,9.078767953125Q10.077271953124999,9.018255953125,10.113661953125,8.963797953125Q10.150041953125001,8.909338953125,10.196361953124999,8.863025953125Q10.242671953125,8.816712953125,10.297131953125,8.780324953125Q10.351591953125,8.743936953125,10.412101953125,8.718871953125Q10.472611953125,8.693807953125,10.536851953125,8.681029953125Q10.601091953125,8.668251953125,10.666581953125,8.668251953125Q10.732081953125,8.668251953125,10.796321953125,8.681029953125Q10.860561953125,8.693807953125,10.921071953125,8.718871953125Q10.981581953125,8.743936953125,11.036041953125,8.780324953125Q11.090501953124999,8.816712953125,11.136811953125001,8.863025953125Q11.183121953125,8.909338953125,11.219511953125,8.963797953125Q11.255901953125,9.018255953125,11.280961953125,9.078767953125Q11.306031953125,9.139278953125,11.318801953125,9.203516953125Q11.331581953125,9.267755153125,11.331581953125,9.333251953125ZM5.998251953125,9.333251953125Q5.998251953125,9.398748753125,5.985473953125,9.462986953125Q5.972695953125,9.527224953125,5.947631953125,9.587735953125Q5.922566953125,9.648247953125,5.886178953125,9.702705953125Q5.849790953125,9.757164953125,5.803477953125,9.803477953125Q5.757164953125,9.849790953125,5.702705953125,9.886178953125Q5.648247953125,9.922566953125,5.587735953125,9.947631953125Q5.527224953125,9.972695953125,5.462986953125,9.985473953125Q5.398748753125,9.998251953125,5.333251953125,9.998251953125Q5.267755153125,9.998251953125,5.203516953125,9.985473953125Q5.139278953125,9.972695953125,5.078767953125,9.947631953125Q5.018255953125,9.922566953125,4.963797953125,9.886178953125Q4.909338953125,9.849790953125,4.863025953125,9.803477953125Q4.816712953125,9.757164953125,4.780324953125,9.702705953125Q4.743936953125,9.648247953125,4.718871953125,9.587735953125Q4.693807953125,9.527224953125,4.681029953125,9.462986953125Q4.668251953125,9.398748753125,4.668251953125,9.333251953125Q4.668251953125,9.267755153125,4.681029953125,9.203516953125Q4.693807953125,9.139278953125,4.718871953125,9.078767953125Q4.743936953125,9.018255953125,4.780324953125,8.963797953125Q4.816712953125,8.909338953125,4.863025953125,8.863025953125Q4.909338953125,8.816712953125,4.963797953125,8.780324953125Q5.018255953125,8.743936953125,5.078767953125,8.718871953125Q5.139278953125,8.693807953125,5.203516953125,8.681029953125Q5.267755153125,8.668251953125,5.333251953125,8.668251953125Q5.398748753125,8.668251953125,5.462986953125,8.681029953125Q5.527224953125,8.693807953125,5.587735953125,8.718871953125Q5.648247953125,8.743936953125,5.702705953125,8.780324953125Q5.757164953125,8.816712953125,5.803477953125,8.863025953125Q5.849790953125,8.909338953125,5.886178953125,8.963797953125Q5.922566953125,9.018255953125,5.947631953125,9.078767953125Q5.972695953125,9.139278953125,5.985473953125,9.203516953125Q5.998251953125,9.267755153125,5.998251953125,9.333251953125Z" fill="#212121" fill-opacity="1"/></g></g></svg>