<svg xmlns="http://www.w3.org/2000/svg" xmlns:xlink="http://www.w3.org/1999/xlink" fill="none" version="1.1" width="16" height="16" viewBox="0 0 16 16"><defs><clipPath id="master_svg0_346_2623"><rect x="0" y="0" width="16" height="16" rx="0"/></clipPath></defs><g clip-path="url(#master_svg0_346_2623)"><g><path d="M3.666748046875,7.272641953125L8.000078046875,7.272641953125Q9.074568046875001,7.272641953125,9.834688046875,6.510151953125Q10.595748046875,5.746711953125,10.595748046875,4.666581953125Q10.595748046875,3.586451953125,9.834688046875,2.823021953125Q9.074568046875001,2.060523953125,8.000088046875,2.060523953125L3.666748046875,2.060524953125L3.666748046875,1.333251953125L4.394021046875,1.333251953125L4.394021046875,7.999921953125L3.666748046875,7.999921953125L3.666748046875,7.272641953125ZM3.666748046875,8.727191953125Q3.595117946875,8.727191953125,3.524864046875,8.713211953125Q3.454610046875,8.699241953125,3.388433046875,8.671831953125Q3.322255046875,8.644421953125,3.262697046875,8.604621953125001Q3.203139046875,8.564831953125001,3.152489046875,8.514181953125Q3.1018380468749998,8.463531953124999,3.062043046875,8.403971953125Q3.022247046875,8.344411953125,2.994836046875,8.278231953125001Q2.967424046875,8.212051953125,2.953450046875,8.141801953125Q2.939475046875,8.071551953124999,2.939475046875,7.999921953125L2.939475046875,1.333251953125Q2.939475046875,1.261621853125,2.953450046875,1.1913679531249999Q2.967424046875,1.121113953125,2.994836046875,1.054936953125Q3.022247046875,0.9887589531250001,3.062043046875,0.9292009531250001Q3.1018380468749998,0.8696429531250001,3.152489046875,0.818992953125Q3.203139046875,0.768341953125,3.262697046875,0.728546953125Q3.322255046875,0.688750953125,3.388433046875,0.661339953125Q3.454610046875,0.633927953125,3.524864046875,0.619953953125Q3.595117946875,0.605978953125,3.666748046875,0.605978953125L8.000088046875,0.605978953125Q9.678398046875,0.605978953125,10.864808046875,1.796106953125Q12.050288046875,2.985291953125,12.050288046875,4.666581953125Q12.050288046875,6.347871953125,10.864808046875,7.537051953125Q9.678398046875,8.727191953125,8.000078046875,8.727191953125L3.666748046875,8.727191953125Z" fill="#212121" fill-opacity="1"/></g><g><path d="M3.666748046875,13.93939L9.343818046875,13.93939Q10.418298046875,13.93939,11.178418046874999,13.1769Q11.939478046875,12.41346,11.939478046875,11.33333Q11.939478046875,10.25321,11.178418046874999,9.48977Q10.418298046875,8.727273,9.343818046875,8.727273L3.666748046875,8.727273L3.666748046875,8L4.394021046875,8L4.394021046875,14.66667L3.666748046875,14.66667L3.666748046875,13.93939ZM3.666748046875,15.39394Q3.595117946875,15.39394,3.524864046875,15.37996Q3.454610046875,15.36599,3.388433046875,15.33858Q3.322255046875,15.31117,3.262697046875,15.271370000000001Q3.203139046875,15.231580000000001,3.152489046875,15.18093Q3.1018380468749998,15.130279999999999,3.062043046875,15.07072Q3.022247046875,15.01116,2.994836046875,14.944980000000001Q2.967424046875,14.8788,2.953450046875,14.80855Q2.939475046875,14.738299999999999,2.939475046875,14.66667L2.939475046875,8Q2.939475046875,7.9283699,2.953450046875,7.858116Q2.967424046875,7.787862,2.994836046875,7.721685Q3.022247046875,7.655507,3.062043046875,7.595949Q3.1018380468749998,7.536391,3.152489046875,7.485741Q3.203139046875,7.43509,3.262697046875,7.395295Q3.322255046875,7.355499,3.388433046875,7.328088Q3.454610046875,7.300676,3.524864046875,7.286702Q3.595117946875,7.272727,3.666748046875,7.272727L9.343818046875,7.272727Q11.022128046875,7.272728,12.208548046875,8.462862Q13.394018046875,9.65205,13.394018046875,11.33333Q13.394018046875,13.01462,12.208548046875,14.203800000000001Q11.022128046875,15.39394,9.343818046875,15.39394L3.666748046875,15.39394Z" fill="#212121" fill-opacity="1"/></g></g></svg>