<svg xmlns="http://www.w3.org/2000/svg" xmlns:xlink="http://www.w3.org/1999/xlink" fill="none" version="1.1" width="16" height="16" viewBox="0 0 16 16"><defs><clipPath id="master_svg0_436_0824"><rect x="0" y="0" width="16" height="16" rx="0"/></clipPath></defs><g clip-path="url(#master_svg0_436_0824)"><g></g><g><path d="M1.7334573369026185,10.725842603492737L3.2149373369026186,11.836992603492737L2.8149373369026183,12.370292603492738L2.4149373369026184,11.836992603492737L3.8964173369026183,10.725842603492737Q3.9489473369026182,10.686452603492738,4.008157336902618,10.658052603492736Q4.067357336902619,10.629662603492736,4.130967336902618,10.613372603492737Q4.194567336902619,10.597072603492737,4.260137336902618,10.593502603492738Q4.325697336902619,10.589922603492736,4.390697336902619,10.599212603492736Q4.4556973369026185,10.608502603492736,4.517637336902618,10.630282603492736Q4.579577336902618,10.652072603492737,4.636077336902618,10.685532603492737Q4.692577336902619,10.718982603492737,4.741467336902619,10.762812603492737Q4.790357336902618,10.806652603492736,4.829747336902618,10.859182603492737Q4.869147336902619,10.911702603492737,4.8975373369026185,10.970912603492737Q4.925927336902618,11.030112603492737,4.942227336902619,11.093722603492736Q4.958527336902619,11.157332603492737,4.962097336902619,11.222892603492737Q4.9656673369026185,11.288452603492736,4.956387336902618,11.353492603492738Q4.947097336902618,11.418492603492737,4.925307336902619,11.480392603492737Q4.903517336902619,11.542292603492736,4.870067336902618,11.598792603492736Q4.836617336902618,11.655292603492736,4.792777336902619,11.704192603492737Q4.748947336902618,11.753092603492737,4.696417336902618,11.792492603492736L3.2149373369026186,12.903592603492736Q3.1719473369026185,12.935892603492738,3.1243373369026184,12.960792603492736Q3.0767373369026183,12.985792603492737,3.0257573369026183,13.002792603492736Q2.974767336902618,13.019692603492738,2.9217273369026184,13.028392603492737Q2.8686773369026186,13.036992603492736,2.8149373369026183,13.036992603492736Q2.7611973369026184,13.036992603492736,2.7081473369026186,13.028392603492737Q2.6550973369026183,13.019692603492738,2.6041173369026183,13.002792603492736Q2.5531373369026182,12.985792603492737,2.505537336902618,12.960792603492736Q2.4579273369026184,12.935892603492738,2.4149373369026184,12.903592603492736L0.9334553369026184,11.792492603492736Q0.8809263369026183,11.753092603492737,0.8370933369026184,11.704192603492737Q0.7932593369026184,11.655292603492736,0.7598057369026184,11.598792603492736Q0.7263519369026185,11.542292603492736,0.7045634369026184,11.480392603492737Q0.6827749369026184,11.418492603492737,0.6734890569026184,11.353492603492738Q0.6642031869026184,11.288452603492736,0.6677768069026184,11.222892603492737Q0.6713504269026184,11.157332603492737,0.6876462369026184,11.093722603492736Q0.7039420369026184,11.030112603492737,0.7323337369026184,10.970912603492737Q0.7607254369026184,10.911702603492737,0.8001223369026185,10.859182603492737Q0.8395183369026185,10.806652603492736,0.8884063369026184,10.762812603492737Q0.9372933369026184,10.718982603492737,0.9937933369026184,10.685532603492737Q1.0502923369026185,10.652072603492737,1.1122333369026185,10.630282603492736Q1.1741733369026184,10.608502603492736,1.2391743369026185,10.599212603492736Q1.3041753369026186,10.589922603492736,1.3697393369026183,10.593502603492738Q1.4353023369026183,10.597072603492737,1.4989093369026185,10.613372603492737Q1.5625153369026186,10.629662603492736,1.6217213369026184,10.658052603492736Q1.6809273369026183,10.686452603492738,1.7334573369026185,10.725842603492737ZM2.1482673369026184,12.370292603492738L2.1482673369026184,1.9999186034927368Q2.1482673369026184,1.9342576034927368,2.1610773369026184,1.869858603492737Q2.1738873369026184,1.805458603492737,2.1990173369026182,1.7447966034927367Q2.224147336902618,1.6841336034927368,2.260627336902618,1.6295386034927368Q2.2971073369026183,1.5749436034927369,2.3435273369026186,1.528513603492737Q2.3899573369026186,1.4820846034927369,2.4445573369026183,1.4456056034927367Q2.4991473369026185,1.4091262034927368,2.5598173369026185,1.383998903492737Q2.6204773369026184,1.3588715034927368,2.6848773369026184,1.346061703492737Q2.7492773369026184,1.3332518934927369,2.8149373369026183,1.3332518934927369Q2.8805973369026185,1.3332518934927369,2.9449973369026186,1.346061703492737Q3.0093973369026186,1.3588715034927368,3.0700573369026185,1.383998903492737Q3.1307173369026184,1.4091262034927368,3.185317336902618,1.4456056034927367Q3.2399073369026183,1.4820846034927369,3.2863373369026183,1.528513603492737Q3.3327673369026183,1.5749436034927369,3.3692473369026184,1.6295386034927368Q3.4057273369026184,1.6841336034927368,3.4308573369026183,1.7447966034927367Q3.4559873369026186,1.805458603492737,3.4687973369026186,1.869858603492737Q3.4816073369026186,1.9342576034927368,3.4816073369026186,1.9999186034927368L3.4816073369026186,12.370292603492738Q3.4816073369026186,12.435992603492737,3.4687973369026186,12.500392603492736Q3.4559873369026186,12.564792603492737,3.4308573369026183,12.625392603492736Q3.4057273369026184,12.686092603492737,3.3692473369026184,12.740692603492738Q3.3327673369026183,12.795292603492737,3.2863373369026183,12.841692603492737Q3.2399073369026183,12.888092603492737,3.185317336902618,12.924592603492737Q3.1307173369026184,12.961092603492737,3.0700573369026185,12.986192603492738Q3.0093973369026186,13.011292603492738,2.9449973369026186,13.024192603492736Q2.8805973369026185,13.036992603492736,2.8149373369026183,13.036992603492736Q2.7492773369026184,13.036992603492736,2.6848773369026184,13.024192603492736Q2.6204773369026184,13.011292603492738,2.5598173369026185,12.986192603492738Q2.4991473369026185,12.961092603492737,2.4445573369026183,12.924592603492737Q2.3899573369026186,12.888092603492737,2.3435273369026186,12.841692603492737Q2.2971073369026183,12.795292603492737,2.260627336902618,12.740692603492738Q2.224147336902618,12.686092603492737,2.1990173369026182,12.625392603492736Q2.1738873369026184,12.564792603492737,2.1610773369026184,12.500392603492736Q2.1482673369026184,12.435992603492737,2.1482673369026184,12.370292603492738ZM13.084307336902619,14.491492603492738L14.195407336902619,13.380392603492737L14.666807336902618,13.851792603492736L14.195407336902619,14.323192603492737L13.084307336902619,13.212092603492737Q13.037807336902619,13.165592603492737,13.001407336902618,13.110992603492736Q12.964907336902618,13.056492603492737,12.939807336902618,12.995792603492736Q12.914607336902618,12.935092603492738,12.901807336902618,12.870692603492737Q12.889007336902619,12.806292603492738,12.889007336902619,12.740692603492738Q12.889007336902619,12.674992603492736,12.901807336902618,12.610592603492737Q12.914607336902618,12.546192603492736,12.939807336902618,12.485492603492737Q12.964907336902618,12.424892603492736,13.001407336902618,12.370292603492738Q13.037807336902619,12.315692603492737,13.084307336902619,12.269292603492737Q13.130707336902619,12.222792603492737,13.185307336902618,12.186392603492736Q13.239907336902618,12.149892603492736,13.30050733690262,12.124692603492736Q13.361207336902618,12.099592603492736,13.425607336902619,12.086792603492738Q13.490007336902618,12.073992603492737,13.555707336902618,12.073992603492737Q13.621307336902618,12.073992603492737,13.685707336902619,12.086792603492738Q13.750107336902618,12.099592603492736,13.810807336902618,12.124692603492736Q13.871507336902619,12.149892603492736,13.926007336902618,12.186392603492736Q13.980607336902619,12.222792603492737,14.027107336902619,12.269292603492737L15.138207336902619,13.380392603492737Q15.184607336902618,13.426792603492737,15.221107336902618,13.481392603492736Q15.257607336902618,13.535992603492737,15.282707336902618,13.596692603492738Q15.307807336902618,13.657292603492737,15.320607336902619,13.721692603492738Q15.333407336902619,13.786092603492737,15.333407336902619,13.851792603492736Q15.333407336902619,13.917392603492736,15.320607336902619,13.981792603492737Q15.307807336902618,14.046192603492736,15.282707336902618,14.106892603492737Q15.257607336902618,14.167592603492738,15.221107336902618,14.222192603492736Q15.184607336902618,14.276792603492737,15.138207336902619,14.323192603492737L14.027107336902619,15.434292603492738Q13.980607336902619,15.480692603492736,13.926007336902618,15.517192603492736Q13.871507336902619,15.553692603492737,13.810807336902618,15.578792603492737Q13.750107336902618,15.603892603492737,13.685707336902619,15.616692603492737Q13.621307336902618,15.629592603492737,13.555707336902618,15.629592603492737Q13.490007336902618,15.629592603492737,13.425607336902619,15.616692603492737Q13.361207336902618,15.603892603492737,13.30050733690262,15.578792603492737Q13.239907336902618,15.553692603492737,13.185307336902618,15.517192603492736Q13.130707336902619,15.480692603492736,13.084307336902619,15.434292603492738Q13.037807336902619,15.387892603492737,13.001407336902618,15.333292603492737Q12.964907336902618,15.278692603492736,12.939807336902618,15.217992603492737Q12.914607336902618,15.157292603492737,12.901807336902618,15.092892603492738Q12.889007336902619,15.028492603492737,12.889007336902619,14.962892603492737Q12.889007336902619,14.897192603492737,12.901807336902618,14.832792603492736Q12.914607336902618,14.768392603492737,12.939807336902618,14.707792603492736Q12.964907336902618,14.647092603492737,13.001407336902618,14.592492603492737Q13.037807336902619,14.537892603492736,13.084307336902619,14.491492603492738ZM14.666807336902618,14.518392603492737L4.296417336902619,14.518392603492737Q4.230757336902618,14.518392603492737,4.166357336902618,14.505592603492737Q4.101957336902618,14.492792603492736,4.041297336902618,14.467692603492736Q3.9806373369026185,14.442592603492736,3.9260373369026182,14.406092603492738Q3.8714473369026186,14.369592603492737,3.8250173369026186,14.323192603492737Q3.7785873369026186,14.276792603492737,3.7421073369026185,14.222192603492736Q3.7056273369026185,14.167592603492738,3.6804973369026186,14.106892603492737Q3.6553673369026183,14.046192603492736,3.6425573369026183,13.981792603492737Q3.6297473369026183,13.917392603492736,3.6297473369026183,13.851792603492736Q3.6297473369026183,13.786092603492737,3.6425573369026183,13.721692603492738Q3.6553673369026183,13.657292603492737,3.6804973369026186,13.596692603492738Q3.7056273369026185,13.535992603492737,3.7421073369026185,13.481392603492736Q3.7785873369026186,13.426792603492737,3.8250173369026186,13.380392603492737Q3.8714473369026186,13.333892603492737,3.9260373369026182,13.297492603492737Q3.9806373369026185,13.260992603492737,4.041297336902618,13.235892603492736Q4.101957336902618,13.210692603492737,4.166357336902618,13.197892603492736Q4.230757336902618,13.185092603492738,4.296417336902619,13.185092603492738L14.666807336902618,13.185092603492738Q14.732407336902618,13.185092603492738,14.796807336902619,13.197892603492736Q14.861207336902618,13.210692603492737,14.921907336902619,13.235892603492736Q14.982607336902618,13.260992603492737,15.037207336902618,13.297492603492737Q15.091807336902619,13.333892603492737,15.138207336902619,13.380392603492737Q15.184607336902618,13.426792603492737,15.221107336902618,13.481392603492736Q15.257607336902618,13.535992603492737,15.282707336902618,13.596692603492738Q15.307807336902618,13.657292603492737,15.320607336902619,13.721692603492738Q15.333407336902619,13.786092603492737,15.333407336902619,13.851792603492736Q15.333407336902619,13.917392603492736,15.320607336902619,13.981792603492737Q15.307807336902618,14.046192603492736,15.282707336902618,14.106892603492737Q15.257607336902618,14.167592603492738,15.221107336902618,14.222192603492736Q15.184607336902618,14.276792603492737,15.138207336902619,14.323192603492737Q15.091807336902619,14.369592603492737,15.037207336902618,14.406092603492738Q14.982607336902618,14.442592603492736,14.921907336902619,14.467692603492736Q14.861207336902618,14.492792603492736,14.796807336902619,14.505592603492737Q14.732407336902618,14.518392603492737,14.666807336902618,14.518392603492737ZM12.518607336902619,3.481402603492737L12.518607336902619,1.9999186034927368L13.185307336902618,1.9999186034927368L13.185307336902618,2.6665826034927367L5.777897336902618,2.6665826034927367L5.777897336902618,1.9999186034927368L6.444567336902619,1.9999186034927368L6.444567336902619,3.481402603492737Q6.444567336902619,3.5470626034927366,6.431757336902618,3.6114626034927366Q6.418947336902618,3.6758626034927366,6.393817336902618,3.736522603492737Q6.368687336902618,3.797182603492737,6.332207336902618,3.8517826034927367Q6.295737336902619,3.906372603492737,6.249307336902619,3.952802603492737Q6.202877336902619,3.999232603492737,6.148277336902618,4.035712603492737Q6.093687336902619,4.072192603492737,6.033017336902619,4.097322603492737Q5.972357336902618,4.122442603492736,5.907957336902618,4.135252603492736Q5.843557336902618,4.148062603492737,5.777897336902618,4.148062603492737Q5.712237336902619,4.148062603492737,5.647837336902619,4.135252603492736Q5.583437336902619,4.122442603492736,5.522777336902618,4.097322603492737Q5.462117336902619,4.072192603492737,5.407517336902618,4.035712603492737Q5.352927336902618,3.999232603492737,5.306497336902618,3.952802603492737Q5.260067336902618,3.906372603492737,5.223587336902618,3.8517826034927367Q5.187107336902619,3.797182603492737,5.161977336902618,3.736522603492737Q5.136847336902618,3.6758626034927366,5.124037336902618,3.6114626034927366Q5.111237336902619,3.5470626034927366,5.111237336902619,3.481402603492737L5.111237336902619,1.9999186034927368Q5.111237336902619,1.9342576034927368,5.124047336902619,1.869858603492737Q5.136847336902618,1.805458603492737,5.161977336902618,1.7447966034927367Q5.187107336902619,1.6841336034927368,5.223587336902618,1.6295386034927368Q5.260067336902618,1.5749436034927369,5.306497336902618,1.528513603492737Q5.352927336902618,1.4820846034927369,5.407517336902618,1.4456056034927367Q5.462117336902619,1.4091262034927368,5.522777336902618,1.383998903492737Q5.583437336902619,1.3588715034927368,5.647837336902619,1.346061703492737Q5.712237336902619,1.3332518934927369,5.777897336902618,1.3332518934927369L13.185307336902618,1.3332518934927369Q13.25100733690262,1.3332518934927369,13.315407336902618,1.346061703492737Q13.37980733690262,1.3588715034927368,13.440407336902618,1.383998903492737Q13.501107336902619,1.4091262034927368,13.555707336902618,1.4456056034927367Q13.610307336902618,1.4820846034927369,13.656707336902619,1.528513603492737Q13.703107336902619,1.5749436034927369,13.739607336902619,1.6295386034927368Q13.77610733690262,1.6841336034927368,13.801207336902618,1.7447966034927367Q13.826307336902618,1.805458603492737,13.839207336902618,1.869858603492737Q13.852007336902618,1.9342576034927368,13.852007336902618,1.9999186034927368L13.852007336902618,3.481402603492737Q13.852007336902618,3.5470626034927366,13.839207336902618,3.6114626034927366Q13.826307336902618,3.6758626034927366,13.801207336902618,3.736522603492737Q13.77610733690262,3.797182603492737,13.739607336902619,3.8517826034927367Q13.703107336902619,3.906372603492737,13.656707336902619,3.952802603492737Q13.610307336902618,3.999232603492737,13.555707336902618,4.035712603492737Q13.501107336902619,4.072192603492737,13.440407336902618,4.097322603492737Q13.37980733690262,4.122442603492736,13.315407336902618,4.135252603492736Q13.25100733690262,4.148062603492737,13.185307336902618,4.148062603492737Q13.119607336902618,4.148062603492737,13.055207336902619,4.135252603492736Q12.990807336902618,4.122442603492736,12.930207336902619,4.097322603492737Q12.869507336902618,4.072192603492737,12.814907336902618,4.035712603492737Q12.760307336902619,3.999232603492737,12.713907336902619,3.952802603492737Q12.667507336902618,3.906372603492737,12.631007336902618,3.8517826034927367Q12.594507336902618,3.797182603492737,12.569407336902618,3.736522603492737Q12.544307336902618,3.6758626034927366,12.531407336902618,3.6114626034927366Q12.518607336902619,3.5470626034927366,12.518607336902619,3.481402603492737ZM11.703807336902619,11.555492603492738L7.259377336902618,11.555492603492738Q7.193717336902618,11.555492603492738,7.129317336902618,11.542692603492737Q7.064917336902618,11.529892603492737,7.004257336902619,11.504692603492737Q6.943597336902618,11.479592603492737,6.8889973369026185,11.443092603492737Q6.834407336902618,11.406592603492737,6.787977336902618,11.360192603492736Q6.741547336902618,11.313782603492736,6.705067336902618,11.259192603492737Q6.668587336902618,11.204592603492737,6.643457336902618,11.143932603492736Q6.618337336902618,11.083262603492736,6.605527336902618,11.018862603492737Q6.592717336902618,10.954472603492738,6.592717336902618,10.888812603492736Q6.592717336902618,10.823142603492737,6.605527336902618,10.758742603492736Q6.618337336902618,10.694342603492737,6.643457336902618,10.633682603492737Q6.668587336902618,10.573022603492737,6.705067336902618,10.518422603492736Q6.741547336902618,10.463832603492737,6.787977336902618,10.417402603492738Q6.834407336902618,10.370972603492737,6.8889973369026185,10.334492603492738Q6.943597336902618,10.298012603492737,7.004257336902619,10.272882603492738Q7.064917336902618,10.247762603492736,7.129317336902618,10.234952603492737Q7.193717336902618,10.222142603492737,7.259377336902618,10.222142603492737L11.703807336902619,10.222142603492737Q11.769507336902619,10.222142603492737,11.833907336902618,10.234952603492737Q11.898307336902619,10.247762603492736,11.958907336902618,10.272882603492738Q12.019607336902618,10.298012603492737,12.074207336902619,10.334492603492738Q12.128807336902618,10.370972603492737,12.175207336902618,10.417402603492738Q12.221707336902618,10.463832603492737,12.258107336902619,10.518422603492736Q12.294607336902619,10.573022603492737,12.319707336902619,10.633682603492737Q12.344907336902619,10.694342603492737,12.35770733690262,10.758742603492736Q12.370507336902618,10.823142603492737,12.370507336902618,10.888812603492736Q12.370507336902618,10.954472603492738,12.35770733690262,11.018862603492737Q12.344907336902619,11.083262603492736,12.319707336902619,11.143932603492736Q12.294607336902619,11.204592603492737,12.258107336902619,11.259182603492738Q12.221707336902618,11.313782603492736,12.175207336902618,11.360192603492736Q12.128807336902618,11.406592603492737,12.074207336902619,11.443092603492737Q12.019607336902618,11.479592603492737,11.958907336902618,11.504692603492737Q11.898307336902619,11.529892603492737,11.833907336902618,11.542692603492737Q11.769507336902619,11.555492603492738,11.703807336902619,11.555492603492738ZM8.814937336902618,10.518442603492737L8.814937336902618,2.740662603492737Q8.814937336902618,2.6750026034927368,8.827747336902618,2.6106026034927368Q8.840557336902618,2.5462026034927367,8.865687336902619,2.4855326034927367Q8.890807336902618,2.424872603492737,8.927287336902618,2.370282603492737Q8.963767336902619,2.3156836034927366,9.010197336902618,2.2692546034927368Q9.056627336902618,2.222825603492737,9.111227336902619,2.186346603492737Q9.165817336902618,2.149866603492737,9.226477336902619,2.1247396034927366Q9.287147336902619,2.0996126034927367,9.351547336902618,2.0868026034927367Q9.415947336902619,2.0739926034927367,9.481607336902618,2.0739926034927367Q9.547267336902618,2.0739926034927367,9.611667336902618,2.0868026034927367Q9.676067336902618,2.0996126034927367,9.736727336902618,2.1247396034927366Q9.797387336902618,2.149866603492737,9.851987336902619,2.186346603492737Q9.906577336902618,2.222825603492737,9.953007336902619,2.2692546034927368Q9.999437336902618,2.3156836034927366,10.03591733690262,2.370282603492737Q10.072397336902618,2.424872603492737,10.097527336902619,2.4855326034927367Q10.122647336902618,2.5462026034927367,10.135457336902618,2.6106026034927368Q10.148267336902618,2.6750026034927368,10.148267336902618,2.740662603492737L10.148267336902618,10.518442603492737Q10.148267336902618,10.584102603492736,10.135457336902618,10.648492603492738Q10.122647336902618,10.712892603492737,10.097527336902619,10.773562603492737Q10.072397336902618,10.834222603492737,10.03591733690262,10.888822603492736Q9.999437336902618,10.943412603492737,9.953007336902619,10.989842603492736Q9.906577336902618,11.036272603492737,9.851987336902619,11.072752603492736Q9.797387336902618,11.109232603492737,9.736727336902618,11.134352603492736Q9.676067336902618,11.159482603492737,9.611667336902618,11.172292603492737Q9.547267336902618,11.185102603492737,9.481607336902618,11.185102603492737Q9.415947336902619,11.185102603492737,9.351547336902618,11.172292603492737Q9.287147336902619,11.159482603492737,9.226477336902619,11.134352603492736Q9.165817336902618,11.109232603492737,9.111227336902619,11.072752603492736Q9.056627336902618,11.036272603492737,9.010197336902618,10.989842603492736Q8.963767336902619,10.943412603492737,8.927287336902618,10.888812603492736Q8.890807336902618,10.834222603492737,8.865687336902619,10.773562603492737Q8.840557336902618,10.712892603492737,8.827747336902618,10.648502603492737Q8.814937336902618,10.584102603492736,8.814937336902618,10.518442603492737ZM1.9984573369026184,11.259182603492738Q1.9984573369026184,11.324672603492736,1.9856773369026184,11.388892603492737Q1.9728973369026184,11.453192603492736,1.9478373369026185,11.513692603492737Q1.9227673369026184,11.574192603492737,1.8863873369026185,11.628592603492736Q1.8499973369026184,11.683092603492737,1.8036773369026184,11.729392603492737Q1.7573673369026184,11.775692603492736,1.7029073369026184,11.812092603492736Q1.6484513369026184,11.848492603492737,1.5879393369026185,11.873592603492737Q1.5274283369026183,11.898592603492737,1.4631903369026185,11.911392603492736Q1.3989523369026184,11.924192603492736,1.3334553369026185,11.924192603492736Q1.2679583369026184,11.924192603492736,1.2037203369026184,11.911392603492736Q1.1394823369026184,11.898592603492737,1.0789703369026185,11.873592603492737Q1.0184593369026185,11.848492603492737,0.9640013369026184,11.812092603492736Q0.9095423369026184,11.775692603492736,0.8632293369026184,11.729392603492737Q0.8169163369026184,11.683092603492737,0.7805283369026184,11.628592603492736Q0.7441400369026184,11.574192603492737,0.7190754369026184,11.513692603492737Q0.6940109369026184,11.453192603492736,0.6812331369026184,11.388892603492737Q0.6684553669026184,11.324672603492736,0.6684553669026184,11.259182603492738Q0.6684553669026184,11.193682603492737,0.6812331369026184,11.129442603492738Q0.6940109369026184,11.065202603492736,0.7190754369026184,11.004692603492737Q0.7441400369026184,10.944182603492736,0.7805283369026184,10.889722603492737Q0.8169163369026184,10.835262603492737,0.8632293369026184,10.788952603492737Q0.9095423369026184,10.742642603492737,0.9640013369026184,10.706252603492738Q1.0184593369026185,10.669862603492737,1.0789703369026185,10.644802603492737Q1.1394823369026184,10.619732603492738,1.2037203369026184,10.606952603492736Q1.2679583369026184,10.594182603492737,1.3334553369026185,10.594182603492737Q1.3989523369026184,10.594182603492737,1.4631903369026185,10.606952603492736Q1.5274283369026183,10.619732603492738,1.5879393369026185,10.644792603492737Q1.6484513369026184,10.669862603492737,1.7029073369026184,10.706252603492738Q1.7573673369026184,10.742642603492737,1.8036773369026184,10.788952603492737Q1.8499973369026184,10.835262603492737,1.8863873369026185,10.889722603492737Q1.9227673369026184,10.944182603492736,1.9478373369026185,11.004692603492737Q1.9728973369026184,11.065202603492736,1.9856773369026184,11.129442603492738Q1.9984573369026184,11.193682603492737,1.9984573369026184,11.259182603492738ZM14.220707336902619,12.740692603492738Q14.220707336902619,12.806192603492736,14.207907336902618,12.870392603492737Q14.195107336902618,12.934592603492737,14.170007336902618,12.995192603492736Q14.14500733690262,13.055692603492737,14.108607336902619,13.110092603492737Q14.072207336902618,13.164592603492737,14.025907336902618,13.210892603492736Q13.97960733690262,13.257192603492737,13.925107336902618,13.293592603492737Q13.870707336902619,13.329992603492737,13.810207336902618,13.354992603492736Q13.749607336902619,13.380092603492736,13.68540733690262,13.392892603492736Q13.621207336902618,13.405692603492737,13.555707336902618,13.405692603492737Q13.490207336902618,13.405692603492737,13.425907336902618,13.392892603492736Q13.361707336902619,13.380092603492736,13.301207336902618,13.354992603492736Q13.240707336902618,13.329992603492737,13.18620733690262,13.293592603492737Q13.131807336902618,13.257192603492737,13.085407336902618,13.210892603492736Q13.03910733690262,13.164592603492737,13.002707336902619,13.110092603492737Q12.966407336902618,13.055692603492737,12.941307336902618,12.995192603492736Q12.916207336902618,12.934592603492737,12.90340733690262,12.870392603492737Q12.890707336902619,12.806192603492736,12.890707336902619,12.740692603492738Q12.890707336902619,12.675192603492738,12.90340733690262,12.610892603492736Q12.916207336902618,12.546692603492737,12.941307336902618,12.486192603492738Q12.966407336902618,12.425692603492736,13.002707336902619,12.371192603492737Q13.03910733690262,12.316792603492736,13.085407336902618,12.270392603492736Q13.131807336902618,12.224092603492737,13.18620733690262,12.187692603492737Q13.240707336902618,12.151392603492736,13.301207336902618,12.126292603492736Q13.361707336902619,12.101192603492736,13.425907336902618,12.088392603492737Q13.490207336902618,12.075692603492737,13.555707336902618,12.075692603492737Q13.621207336902618,12.075692603492737,13.68540733690262,12.088392603492737Q13.749607336902619,12.101192603492736,13.810207336902618,12.126292603492736Q13.870707336902619,12.151392603492736,13.925107336902618,12.187692603492737Q13.97960733690262,12.224092603492737,14.025907336902618,12.270392603492736Q14.072207336902618,12.316792603492736,14.108607336902619,12.371192603492737Q14.14500733690262,12.425692603492736,14.170007336902618,12.486192603492738Q14.195107336902618,12.546692603492737,14.207907336902618,12.610892603492736Q14.220707336902619,12.675192603492738,14.220707336902619,12.740692603492738ZM4.961417336902619,11.259182603492738Q4.961417336902619,11.324672603492736,4.948637336902618,11.388892603492737Q4.935867336902619,11.453192603492736,4.910797336902618,11.513692603492737Q4.8857373369026185,11.574192603492737,4.8493473369026185,11.628592603492736Q4.812957336902619,11.683092603492737,4.7666473369026185,11.729392603492737Q4.720327336902618,11.775692603492736,4.665867336902618,11.812092603492736Q4.611417336902619,11.848492603492737,4.550907336902618,11.873592603492737Q4.490387336902618,11.898592603492737,4.426157336902619,11.911392603492736Q4.361917336902618,11.924192603492736,4.296417336902619,11.924192603492736Q4.2309173369026185,11.924192603492736,4.166687336902618,11.911392603492736Q4.102447336902618,11.898592603492737,4.041937336902619,11.873592603492737Q3.9814173369026182,11.848492603492737,3.9269673369026186,11.812092603492736Q3.8725073369026184,11.775692603492736,3.8261873369026183,11.729392603492737Q3.7798773369026186,11.683092603492737,3.7434873369026183,11.628592603492736Q3.7071073369026184,11.574192603492737,3.6820373369026185,11.513692603492737Q3.6569773369026186,11.453192603492736,3.6441973369026184,11.388892603492737Q3.6314173369026186,11.324672603492736,3.6314173369026186,11.259182603492738Q3.6314173369026186,11.193682603492737,3.6441973369026184,11.129442603492738Q3.6569773369026186,11.065202603492736,3.6820373369026185,11.004692603492737Q3.7071073369026184,10.944182603492736,3.7434873369026183,10.889722603492737Q3.7798773369026186,10.835262603492737,3.8261873369026183,10.788952603492737Q3.8725073369026184,10.742642603492737,3.9269673369026186,10.706252603492738Q3.9814173369026182,10.669862603492737,4.041937336902619,10.644802603492737Q4.102447336902618,10.619732603492738,4.166687336902618,10.606952603492736Q4.2309173369026185,10.594182603492737,4.296417336902619,10.594182603492737Q4.361917336902618,10.594182603492737,4.426157336902619,10.606952603492736Q4.490387336902618,10.619732603492738,4.550907336902618,10.644792603492737Q4.611417336902619,10.669862603492737,4.665877336902618,10.706252603492738Q4.720327336902618,10.742642603492737,4.7666473369026185,10.788952603492737Q4.812957336902619,10.835262603492737,4.8493473369026185,10.889722603492737Q4.8857373369026185,10.944182603492736,4.910797336902618,11.004692603492737Q4.935867336902619,11.065202603492736,4.948637336902618,11.129442603492738Q4.961417336902619,11.193682603492737,4.961417336902619,11.259182603492738ZM12.368807336902618,10.888812603492736Q12.368807336902618,10.954302603492737,12.356007336902618,11.018542603492737Q12.343307336902619,11.082782603492737,12.318207336902619,11.143292603492737Q12.293107336902619,11.203802603492736,12.256707336902618,11.258262603492737Q12.220407336902618,11.312722603492738,12.17400733690262,11.358992603492737Q12.127707336902619,11.405392603492738,12.073307336902618,11.441692603492736Q12.018807336902618,11.478092603492737,11.95830733690262,11.503192603492737Q11.897807336902618,11.528292603492737,11.833607336902618,11.540992603492738Q11.769307336902619,11.553792603492736,11.703807336902619,11.553792603492736Q11.638307336902619,11.553792603492736,11.57410733690262,11.540992603492738Q11.509807336902618,11.528292603492737,11.449307336902619,11.503192603492737Q11.388807336902618,11.478092603492737,11.334407336902618,11.441692603492736Q11.27990733690262,11.405392603492738,11.233607336902619,11.358992603492737Q11.187307336902618,11.312722603492738,11.150907336902618,11.258262603492737Q11.11450733690262,11.203802603492736,11.08940733690262,11.143292603492737Q11.064407336902619,11.082782603492737,11.051607336902618,11.018542603492737Q11.038807336902618,10.954302603492737,11.038807336902618,10.888812603492736Q11.038807336902618,10.823312603492736,11.051607336902618,10.759072603492736Q11.064407336902619,10.694832603492737,11.08940733690262,10.634322603492738Q11.11450733690262,10.573812603492737,11.150907336902618,10.519352603492736Q11.187307336902618,10.464892603492737,11.233607336902619,10.418582603492737Q11.27990733690262,10.372272603492737,11.334407336902618,10.335882603492736Q11.388807336902618,10.299492603492737,11.449307336902619,10.274422603492736Q11.509807336902618,10.249362603492736,11.57410733690262,10.236582603492737Q11.638307336902619,10.223812603492737,11.703807336902619,10.223812603492737Q11.769307336902619,10.223812603492737,11.833607336902618,10.236582603492737Q11.897807336902618,10.249362603492736,11.95830733690262,10.274422603492736Q12.018807336902618,10.299492603492737,12.073307336902618,10.335882603492736Q12.127707336902619,10.372272603492737,12.17400733690262,10.418582603492737Q12.220407336902618,10.464892603492737,12.256707336902618,10.519352603492736Q12.293107336902619,10.573812603492737,12.318207336902619,10.634322603492738Q12.343307336902619,10.694832603492737,12.356007336902618,10.759072603492736Q12.368807336902618,10.823312603492736,12.368807336902618,10.888812603492736ZM4.961417336902619,13.851792603492736Q4.961417336902619,13.917292603492736,4.948637336902618,13.981492603492736Q4.935867336902619,14.045792603492737,4.910797336902618,14.106292603492737Q4.8857373369026185,14.166792603492738,4.8493473369026185,14.221192603492737Q4.812957336902619,14.275692603492736,4.7666473369026185,14.321992603492737Q4.720327336902618,14.368292603492737,4.665867336902618,14.404692603492737Q4.611417336902619,14.441092603492736,4.550907336902618,14.466192603492736Q4.490387336902618,14.491192603492737,4.426157336902619,14.503992603492737Q4.361917336902618,14.516792603492737,4.296417336902619,14.516792603492737Q4.2309173369026185,14.516792603492737,4.166687336902618,14.503992603492737Q4.102447336902618,14.491192603492737,4.041937336902619,14.466192603492736Q3.9814173369026182,14.441092603492736,3.9269673369026186,14.404692603492737Q3.8725073369026184,14.368292603492737,3.8261873369026183,14.321992603492737Q3.7798773369026186,14.275692603492736,3.7434873369026183,14.221192603492737Q3.7071073369026184,14.166792603492738,3.6820373369026185,14.106292603492737Q3.6569773369026186,14.045792603492737,3.6441973369026184,13.981492603492736Q3.6314173369026186,13.917292603492736,3.6314173369026186,13.851792603492736Q3.6314173369026186,13.786292603492736,3.6441973369026184,13.721992603492737Q3.6569773369026186,13.657792603492737,3.6820373369026185,13.597292603492736Q3.7071073369026184,13.536792603492737,3.7434873369026183,13.482292603492736Q3.7798773369026186,13.427892603492737,3.8261873369026183,13.381592603492736Q3.8725073369026184,13.335192603492736,3.9269673369026186,13.298892603492737Q3.9814173369026182,13.262492603492737,4.041937336902619,13.237392603492736Q4.102447336902618,13.212292603492736,4.166687336902618,13.199592603492738Q4.2309173369026185,13.186792603492737,4.296417336902619,13.186792603492737Q4.361917336902618,13.186792603492737,4.426157336902619,13.199592603492738Q4.490387336902618,13.212292603492736,4.550907336902618,13.237392603492736Q4.611417336902619,13.262492603492737,4.665877336902618,13.298892603492737Q4.720327336902618,13.335192603492736,4.7666473369026185,13.381592603492736Q4.812957336902619,13.427892603492737,4.8493473369026185,13.482292603492736Q4.8857373369026185,13.536792603492737,4.910797336902618,13.597292603492736Q4.935867336902619,13.657792603492737,4.948637336902618,13.721992603492737Q4.961417336902619,13.786292603492736,4.961417336902619,13.851792603492736ZM7.9243773369026185,10.888812603492736Q7.9243773369026185,10.954302603492737,7.911607336902619,11.018542603492737Q7.8988273369026185,11.082782603492737,7.873757336902618,11.143292603492737Q7.848697336902618,11.203802603492736,7.812307336902618,11.258262603492737Q7.775917336902618,11.312722603492738,7.729607336902618,11.358992603492737Q7.683297336902618,11.405392603492738,7.628837336902619,11.441692603492736Q7.574377336902619,11.478092603492737,7.513867336902618,11.503192603492737Q7.453357336902618,11.528292603492737,7.389117336902618,11.540992603492738Q7.3248773369026186,11.553792603492736,7.259377336902618,11.553792603492736Q7.193887336902619,11.553792603492736,7.129647336902618,11.540992603492738Q7.065407336902618,11.528292603492737,7.004897336902618,11.503192603492737Q6.944387336902619,11.478092603492737,6.889927336902619,11.441692603492736Q6.835467336902618,11.405392603492738,6.789157336902618,11.358992603492737Q6.742837336902618,11.312722603492738,6.706457336902618,11.258262603492737Q6.670067336902618,11.203802603492736,6.644997336902619,11.143292603492737Q6.619937336902618,11.082782603492737,6.607157336902619,11.018542603492737Q6.594377336902618,10.954302603492737,6.594377336902618,10.888812603492736Q6.594377336902618,10.823312603492736,6.607157336902619,10.759072603492736Q6.619937336902618,10.694832603492737,6.644997336902619,10.634322603492738Q6.670067336902618,10.573812603492737,6.706457336902618,10.519352603492736Q6.742837336902618,10.464892603492737,6.789157336902618,10.418582603492737Q6.835467336902618,10.372272603492737,6.889927336902619,10.335882603492736Q6.944387336902619,10.299492603492737,7.004897336902618,10.274422603492736Q7.065407336902618,10.249362603492736,7.129647336902618,10.236582603492737Q7.193887336902619,10.223812603492737,7.259377336902618,10.223812603492737Q7.3248773369026186,10.223812603492737,7.389117336902618,10.236582603492737Q7.453357336902618,10.249362603492736,7.513867336902618,10.274422603492736Q7.574377336902619,10.299492603492737,7.628837336902619,10.335882603492736Q7.683297336902618,10.372272603492737,7.729607336902618,10.418582603492737Q7.775917336902618,10.464892603492737,7.812307336902618,10.519352603492736Q7.848697336902618,10.573812603492737,7.873757336902618,10.634322603492738Q7.8988273369026185,10.694832603492737,7.911607336902619,10.759072603492736Q7.9243773369026185,10.823312603492736,7.9243773369026185,10.888812603492736ZM3.4799373369026183,1.9999186034927368Q3.4799373369026183,2.065415603492737,3.4671573369026185,2.129653603492737Q3.4543773369026183,2.193891603492737,3.4293173369026184,2.254402603492737Q3.4042473369026185,2.314913603492737,3.367867336902618,2.369372603492737Q3.3314773369026183,2.4238326034927367,3.285167336902618,2.4701426034927367Q3.2388473369026185,2.516462603492737,3.1843873369026183,2.5528426034927367Q3.1299273369026186,2.5892326034927367,3.0694173369026183,2.614302603492737Q3.0089073369026185,2.639362603492737,2.9446673369026186,2.652142603492737Q2.8804373369026184,2.664922603492737,2.8149373369026183,2.664922603492737Q2.7494373369026186,2.664922603492737,2.6851973369026183,2.652142603492737Q2.6209673369026185,2.639362603492737,2.5604473369026186,2.614302603492737Q2.4999373369026183,2.5892326034927367,2.4454873369026187,2.5528426034927367Q2.3910273369026185,2.516462603492737,2.3447073369026183,2.4701426034927367Q2.2983973369026183,2.4238326034927367,2.2620073369026183,2.369372603492737Q2.2256173369026184,2.314913603492737,2.2005573369026186,2.254402603492737Q2.1754973369026187,2.193891603492737,2.1627173369026185,2.129653603492737Q2.1499373369026182,2.065415603492737,2.1499373369026182,1.9999186034927368Q2.1499373369026182,1.9344216034927368,2.1627173369026185,1.8701836034927368Q2.1754973369026187,1.8059456034927368,2.2005573369026186,1.745433603492737Q2.2256173369026184,1.684922603492737,2.2620073369026183,1.6304646034927368Q2.2983973369026183,1.5760056034927368,2.3447073369026183,1.5296926034927367Q2.3910273369026185,1.483379603492737,2.4454873369026187,1.4469916034927368Q2.4999373369026183,1.4106032034927367,2.5604473369026186,1.385538703492737Q2.6209673369026185,1.3604741034927368,2.6851973369026183,1.3476963034927367Q2.7494373369026186,1.3349185634927367,2.8149373369026183,1.3349185634927367Q2.8804373369026184,1.3349185634927367,2.9446673369026186,1.3476963034927367Q3.0089073369026185,1.3604741034927368,3.0694173369026183,1.385538703492737Q3.1299273369026186,1.4106032034927367,3.1843873369026183,1.4469916034927368Q3.2388473369026185,1.483379603492737,3.285167336902618,1.5296926034927367Q3.3314773369026183,1.5760056034927368,3.367867336902618,1.6304646034927368Q3.4042473369026185,1.684922603492737,3.4293173369026184,1.745433603492737Q3.4543773369026183,1.8059456034927368,3.4671573369026185,1.8701836034927368Q3.4799373369026183,1.9344216034927368,3.4799373369026183,1.9999186034927368ZM10.146607336902619,10.518442603492737Q10.146607336902619,10.583932603492737,10.133827336902618,10.648172603492737Q10.121047336902619,10.712412603492737,10.095987336902619,10.772922603492736Q10.07091733690262,10.833432603492737,10.034527336902618,10.887892603492737Q9.998147336902619,10.942352603492736,9.951827336902618,10.988662603492736Q9.90551733690262,11.034972603492736,9.851057336902619,11.071362603492737Q9.796597336902618,11.107752603492736,9.736087336902619,11.132812603492736Q9.675577336902618,11.157882603492737,9.611337336902618,11.170662603492737Q9.547097336902619,11.183442603492736,9.481607336902618,11.183442603492736Q9.416107336902618,11.183442603492736,9.351867336902618,11.170662603492737Q9.287627336902618,11.157882603492737,9.227117336902618,11.132812603492736Q9.166607336902619,11.107752603492736,9.112147336902618,11.071362603492737Q9.05768733690262,11.034972603492736,9.011377336902619,10.988662603492736Q8.965067336902619,10.942352603492736,8.928677336902618,10.887892603492737Q8.89228733690262,10.833432603492737,8.867227336902618,10.772922603492736Q8.842157336902618,10.712412603492737,8.829377336902619,10.648172603492737Q8.816607336902619,10.583932603492737,8.816607336902619,10.518442603492737Q8.816607336902619,10.452942603492737,8.829377336902619,10.388702603492737Q8.842157336902618,10.324462603492737,8.867227336902618,10.263952603492736Q8.89228733690262,10.203442603492737,8.928677336902618,10.148982603492737Q8.965067336902619,10.094522603492736,9.011377336902619,10.048212603492736Q9.05768733690262,10.001902603492736,9.112147336902618,9.965512603492737Q9.166607336902619,9.929122603492736,9.227117336902618,9.904052603492737Q9.287627336902618,9.878992603492737,9.351867336902618,9.866212603492738Q9.416107336902618,9.853442603492736,9.481607336902618,9.853442603492736Q9.547097336902619,9.853442603492736,9.611337336902618,9.866212603492738Q9.675577336902618,9.878992603492737,9.736087336902619,9.904052603492737Q9.796597336902618,9.929122603492736,9.851057336902619,9.965512603492737Q9.90551733690262,10.001902603492736,9.951827336902618,10.048212603492736Q9.998147336902619,10.094522603492736,10.034527336902618,10.148982603492737Q10.07091733690262,10.203442603492737,10.095987336902619,10.263952603492736Q10.121047336902619,10.324462603492737,10.133827336902618,10.388702603492737Q10.146607336902619,10.452942603492737,10.146607336902619,10.518442603492737ZM14.220707336902619,14.962892603492737Q14.220707336902619,15.028392603492737,14.207907336902618,15.092592603492736Q14.195107336902618,15.156892603492738,14.170007336902618,15.217392603492737Q14.14500733690262,15.277892603492736,14.108607336902619,15.332292603492737Q14.072207336902618,15.386792603492736,14.025907336902618,15.433092603492737Q13.97960733690262,15.479392603492737,13.925107336902618,15.515792603492736Q13.870707336902619,15.552192603492736,13.810207336902618,15.577292603492737Q13.749607336902619,15.602292603492737,13.68540733690262,15.615092603492737Q13.621207336902618,15.627892603492738,13.555707336902618,15.627892603492738Q13.490207336902618,15.627892603492738,13.425907336902618,15.615092603492737Q13.361707336902619,15.602292603492737,13.301207336902618,15.577292603492737Q13.240707336902618,15.552192603492736,13.18620733690262,15.515792603492736Q13.131807336902618,15.479392603492737,13.085407336902618,15.433092603492737Q13.03910733690262,15.386792603492736,13.002707336902619,15.332292603492737Q12.966407336902618,15.277892603492736,12.941307336902618,15.217392603492737Q12.916207336902618,15.156892603492738,12.90340733690262,15.092592603492736Q12.890707336902619,15.028392603492737,12.890707336902619,14.962892603492737Q12.890707336902619,14.897392603492737,12.90340733690262,14.833192603492737Q12.916207336902618,14.768892603492738,12.941307336902618,14.708392603492737Q12.966407336902618,14.647892603492737,13.002707336902619,14.593392603492736Q13.03910733690262,14.538992603492737,13.085407336902618,14.492692603492737Q13.131807336902618,14.446292603492736,13.18620733690262,14.409992603492737Q13.240707336902618,14.373592603492737,13.301207336902618,14.348492603492737Q13.361707336902619,14.323392603492737,13.425907336902618,14.310692603492736Q13.490207336902618,14.297892603492738,13.555707336902618,14.297892603492738Q13.621207336902618,14.297892603492738,13.68540733690262,14.310692603492736Q13.749607336902619,14.323392603492737,13.810207336902618,14.348492603492737Q13.870707336902619,14.373592603492737,13.925107336902618,14.409992603492737Q13.97960733690262,14.446292603492736,14.025907336902618,14.492692603492737Q14.072207336902618,14.538992603492737,14.108607336902619,14.593392603492736Q14.14500733690262,14.647892603492737,14.170007336902618,14.708392603492737Q14.195107336902618,14.768892603492738,14.207907336902618,14.833192603492737Q14.220707336902619,14.897392603492737,14.220707336902619,14.962892603492737ZM10.146607336902619,2.740662603492737Q10.146607336902619,2.8061526034927367,10.133827336902618,2.8703926034927365Q10.121047336902619,2.934632603492737,10.095987336902619,2.995142603492737Q10.07091733690262,3.055652603492737,10.034527336902618,3.1101126034927367Q9.998147336902619,3.164572603492737,9.951827336902618,3.210882603492737Q9.90551733690262,3.257202603492737,9.851057336902619,3.293582603492737Q9.796597336902618,3.329972603492737,9.736087336902619,3.3550426034927368Q9.675577336902618,3.3801026034927366,9.611337336902618,3.392882603492737Q9.547097336902619,3.4056626034927366,9.481607336902618,3.4056626034927366Q9.416107336902618,3.4056626034927366,9.351867336902618,3.392882603492737Q9.287627336902618,3.3801026034927366,9.227117336902618,3.3550426034927368Q9.166607336902619,3.329972603492737,9.112147336902618,3.293582603492737Q9.05768733690262,3.257202603492737,9.011377336902619,3.210882603492737Q8.965067336902619,3.164572603492737,8.928677336902618,3.1101126034927367Q8.89228733690262,3.055652603492737,8.867227336902618,2.995142603492737Q8.842157336902618,2.934632603492737,8.829377336902619,2.8703926034927365Q8.816607336902619,2.8061526034927367,8.816607336902619,2.740662603492737Q8.816607336902619,2.675162603492737,8.829377336902619,2.610922603492737Q8.842157336902618,2.546682603492737,8.867227336902618,2.4861726034927365Q8.89228733690262,2.4256626034927367,8.928677336902618,2.371202603492737Q8.965067336902619,2.316746603492737,9.011377336902619,2.270433603492737Q9.05768733690262,2.2241206034927368,9.112147336902618,2.187731603492737Q9.166607336902619,2.151343603492737,9.227117336902618,2.126279603492737Q9.287627336902618,2.101214603492737,9.351867336902618,2.0884376034927365Q9.416107336902618,2.0756596034927366,9.481607336902618,2.0756596034927366Q9.547097336902619,2.0756596034927366,9.611337336902618,2.088436603492737Q9.675577336902618,2.101214603492737,9.736087336902619,2.126279603492737Q9.796597336902618,2.151343603492737,9.851057336902619,2.187731603492737Q9.90551733690262,2.2241196034927366,9.951827336902618,2.270433603492737Q9.998147336902619,2.316746603492737,10.034527336902618,2.371202603492737Q10.07091733690262,2.4256626034927367,10.095987336902619,2.4861726034927365Q10.121047336902619,2.546682603492737,10.133827336902618,2.610922603492737Q10.146607336902619,2.675162603492737,10.146607336902619,2.740662603492737Z" fill="#333333" fill-opacity="1"/></g></g></svg>