<svg xmlns="http://www.w3.org/2000/svg" xmlns:xlink="http://www.w3.org/1999/xlink" fill="none" version="1.1" width="16" height="16" viewBox="0 0 16 16"><defs><clipPath id="master_svg0_346_2627"><rect x="0" y="0" width="16" height="16" rx="0"/></clipPath></defs><g clip-path="url(#master_svg0_346_2627)"><g><path d="M14.333448046875,8.727273L1.666748046875,8.727273Q1.595117946875,8.727273,1.5248640468749999,8.713298Q1.454610046875,8.699324,1.388433046875,8.671912Q1.322255046875,8.644501,1.262697046875,8.604705Q1.203139046875,8.56491,1.152489046875,8.514259Q1.101838046875,8.463609,1.062043046875,8.404051Q1.022247046875,8.344493,0.994836046875,8.278315Q0.967424046875,8.212138,0.953450046875,8.141884Q0.939475046875,8.0716301,0.939475046875,8Q0.939475046875,7.9283699,0.953450046875,7.858116Q0.967424046875,7.787862,0.994836046875,7.721685Q1.022247046875,7.655507,1.062043046875,7.595949Q1.101838046875,7.536391,1.152489046875,7.485741Q1.203139046875,7.43509,1.262697046875,7.395295Q1.322255046875,7.355499,1.388433046875,7.328088Q1.454610046875,7.300676,1.5248640468749999,7.286702Q1.595117946875,7.272727,1.666748046875,7.272727L14.333448046875,7.272727Q14.405048046875,7.272727,14.475248046875,7.286702Q14.545548046875,7.300676,14.611748046875,7.328088Q14.677948046875,7.355499,14.737448046875,7.395295Q14.797048046875,7.43509,14.847648046875,7.485741Q14.898348046875,7.536391,14.938148046875,7.595949Q14.977948046875,7.655507,15.005348046875,7.721685Q15.032748046875,7.787862,15.046748046875,7.858116Q15.060648046875,7.9283699,15.060648046875,8Q15.060648046875,8.0716301,15.046748046875,8.141884Q15.032748046875,8.212138,15.005348046875,8.278315Q14.977948046875,8.344493,14.938148046875,8.404051Q14.898348046875,8.463609,14.847648046875,8.514259Q14.797048046875,8.56491,14.737448046875,8.604705Q14.677948046875,8.644501,14.611748046875,8.671912Q14.545548046875,8.699324,14.475248046875,8.713298Q14.405048046875,8.727273,14.333448046875,8.727273ZM15.058448046875,8Q15.058448046875,8.0714063,15.044448046875,8.14144Q15.030548046875,8.211475,15.003248046875,8.277445Q14.975948046875,8.343416,14.936248046875,8.402788Q14.896548046875,8.46216,14.846048046875,8.512652Q14.795548046875,8.563144,14.736248046875,8.602815Q14.676848046875,8.642487,14.610848046875,8.669813Q14.544848046875,8.697139,14.474848046875,8.711069Q14.404848046875,8.725,14.333448046875,8.725Q14.262048046875,8.725,14.191948046875,8.711069Q14.121948046875,8.697139,14.055948046875,8.669813Q13.989948046875,8.642487,13.930648046875,8.602815Q13.871248046875,8.563144,13.820748046875,8.512652Q13.770248046875,8.46216,13.730548046875,8.402788Q13.690948046875,8.343416,13.663648046875,8.277445Q13.636248046875,8.211475,13.622348046875,8.14144Q13.608448046875,8.0714063,13.608448046875,8Q13.608448046875,7.9285937,13.622348046875,7.85856Q13.636248046875,7.788525,13.663648046875,7.722555Q13.690948046875,7.656584,13.730548046875,7.597212Q13.770248046875,7.53784,13.820748046875,7.487348Q13.871248046875,7.436856,13.930648046875,7.397185Q13.989948046875,7.357513,14.055948046875,7.3301870000000005Q14.121948046875,7.302861,14.191948046875,7.288931Q14.262048046875,7.275,14.333448046875,7.275Q14.404848046875,7.275,14.474848046875,7.288931Q14.544848046875,7.302861,14.610848046875,7.3301870000000005Q14.676848046875,7.357513,14.736248046875,7.397185Q14.795548046875,7.436856,14.846048046875,7.487348Q14.896548046875,7.53784,14.936248046875,7.597212Q14.975948046875,7.656584,15.003248046875,7.722555Q15.030548046875,7.788525,15.044448046875,7.85856Q15.058448046875,7.9285937,15.058448046875,8ZM2.391748046875,8Q2.391748046875,8.0714063,2.377817046875,8.14144Q2.363887046875,8.211475,2.336561046875,8.277445Q2.309235046875,8.343416,2.269563046875,8.402788Q2.229892046875,8.46216,2.179400046875,8.512652Q2.128908046875,8.563144,2.069536046875,8.602815Q2.010164046875,8.642487,1.944193046875,8.669813Q1.878223046875,8.697139,1.808188046875,8.711069Q1.738154346875,8.725,1.666748046875,8.725Q1.595341746875,8.725,1.525308046875,8.711069Q1.455273046875,8.697139,1.389303046875,8.669813Q1.323332046875,8.642487,1.263960046875,8.602815Q1.204588046875,8.563144,1.154096046875,8.512652Q1.1036040468750001,8.46216,1.063933046875,8.402788Q1.024261046875,8.343416,0.996935046875,8.277445Q0.969609046875,8.211475,0.955679046875,8.14144Q0.941748046875,8.0714063,0.941748046875,8Q0.941748046875,7.9285937,0.955679046875,7.85856Q0.969609046875,7.788525,0.996935046875,7.722555Q1.024261046875,7.656584,1.063933046875,7.597212Q1.1036040468750001,7.53784,1.154096046875,7.487348Q1.204588046875,7.436856,1.263960046875,7.397185Q1.323332046875,7.357513,1.389303046875,7.3301870000000005Q1.455273046875,7.302861,1.525308046875,7.288931Q1.595341746875,7.275,1.666748046875,7.275Q1.738154346875,7.275,1.808188046875,7.288931Q1.878223046875,7.302861,1.944193046875,7.3301870000000005Q2.010164046875,7.357513,2.069536046875,7.397185Q2.128908046875,7.436856,2.179400046875,7.487348Q2.229892046875,7.53784,2.269563046875,7.597212Q2.309235046875,7.656584,2.336561046875,7.722555Q2.363887046875,7.788525,2.377817046875,7.85856Q2.391748046875,7.9285937,2.391748046875,8Z" fill="#212121" fill-opacity="1"/></g><g><path d="M9,13.394021046875L7,13.394021046875Q6.9283699,13.394021046875,6.858116,13.380046046875Q6.787862,13.366072046875,6.721685,13.338660046875Q6.655507,13.311249046875,6.595949,13.271453046875Q6.536391,13.231658046875,6.485741,13.181007046875Q6.43509,13.130357046875,6.395295,13.070799046875Q6.355499,13.011241046875,6.328088,12.945063046875Q6.300676,12.878886046875,6.286702,12.808632046875Q6.272727,12.738378146875,6.272727,12.666748046875Q6.272727,12.595117946875,6.286702,12.524864046875Q6.300676,12.454610046875,6.328088,12.388433046875Q6.355499,12.322255046875,6.395295,12.262697046875Q6.43509,12.203139046875,6.485741,12.152489046875Q6.536391,12.101838046875,6.595949,12.062043046875Q6.655507,12.022247046875,6.721685,11.994836046875Q6.787862,11.967424046875,6.858116,11.953450046875Q6.9283699,11.939475046875,7,11.939475046875L9,11.939475046875Q9.071629999999999,11.939475046875,9.14188,11.953450046875Q9.21214,11.967424046875,9.27832,11.994836046875Q9.34449,12.022247046875,9.40405,12.062043046875Q9.46361,12.101838046875,9.51426,12.152489046875Q9.56491,12.203139046875,9.6047,12.262697046875Q9.6445,12.322255046875,9.67191,12.388433046875Q9.69932,12.454610046875,9.7133,12.524864046875Q9.72727,12.595117946875,9.72727,12.666748046875Q9.72727,12.738378146875,9.7133,12.808632046875Q9.69932,12.878886046875,9.67191,12.945063046875Q9.6445,13.011241046875,9.6047,13.070799046875Q9.56491,13.130357046875,9.51426,13.181007046875Q9.46361,13.231658046875,9.40405,13.271453046875Q9.34449,13.311249046875,9.27832,13.338660046875Q9.21214,13.366072046875,9.14188,13.380046046875Q9.071629999999999,13.394021046875,9,13.394021046875ZM9.725,12.666748046875Q9.725,12.738154346875,9.71107,12.808188046875Q9.697140000000001,12.878223046875,9.66981,12.944193046875Q9.64249,13.010164046875,9.60282,13.069536046875Q9.56314,13.128908046875,9.51265,13.179400046875Q9.46216,13.229892046875,9.40279,13.269563046875Q9.34342,13.309235046875,9.27745,13.336561046875Q9.21147,13.363887046875,9.14144,13.377817046875Q9.07141,13.391748046875,9,13.391748046875Q8.92859,13.391748046875,8.85856,13.377817046875Q8.78853,13.363887046875,8.72255,13.336561046875Q8.65658,13.309235046875,8.59721,13.269563046875Q8.53784,13.229892046875,8.48735,13.179400046875Q8.43686,13.128908046875,8.39718,13.069536046875Q8.35751,13.010164046875,8.33019,12.944193046875Q8.302859999999999,12.878223046875,8.28893,12.808188046875Q8.275,12.738154346875,8.275,12.666748046875Q8.275,12.595341746875,8.28893,12.525308046875Q8.302859999999999,12.455273046875,8.33019,12.389303046875Q8.35751,12.323332046875,8.39718,12.263960046875Q8.43686,12.204588046875,8.48735,12.154096046875Q8.53784,12.103604046875,8.59721,12.063933046875Q8.65658,12.024261046875,8.72255,11.996935046875Q8.78853,11.969609046875,8.85856,11.955679046875Q8.92859,11.941748046875,9,11.941748046875Q9.07141,11.941748046875,9.14144,11.955679046875Q9.21147,11.969609046875,9.27745,11.996935046875Q9.34342,12.024261046875,9.40279,12.063933046875Q9.46216,12.103604046875,9.51265,12.154096046875Q9.56314,12.204588046875,9.60282,12.263960046875Q9.64249,12.323332046875,9.66981,12.389303046875Q9.697140000000001,12.455273046875,9.71107,12.525308046875Q9.725,12.595341746875,9.725,12.666748046875ZM7.725,12.666748046875Q7.725,12.738154346875,7.711069,12.808188046875Q7.697139,12.878223046875,7.6698129999999995,12.944193046875Q7.642487,13.010164046875,7.602815,13.069536046875Q7.563144,13.128908046875,7.512652,13.179400046875Q7.46216,13.229892046875,7.402788,13.269563046875Q7.343416,13.309235046875,7.277445,13.336561046875Q7.211475,13.363887046875,7.14144,13.377817046875Q7.0714063,13.391748046875,7,13.391748046875Q6.9285937,13.391748046875,6.85856,13.377817046875Q6.788525,13.363887046875,6.722555,13.336561046875Q6.656584,13.309235046875,6.597212,13.269563046875Q6.53784,13.229892046875,6.487348,13.179400046875Q6.436856,13.128908046875,6.397185,13.069536046875Q6.357513,13.010164046875,6.3301870000000005,12.944193046875Q6.302861,12.878223046875,6.288931,12.808188046875Q6.275,12.738154346875,6.275,12.666748046875Q6.275,12.595341746875,6.288931,12.525308046875Q6.302861,12.455273046875,6.3301870000000005,12.389303046875Q6.357513,12.323332046875,6.397185,12.263960046875Q6.436856,12.204588046875,6.487348,12.154096046875Q6.53784,12.103604046875,6.597212,12.063933046875Q6.656584,12.024261046875,6.722555,11.996935046875Q6.788525,11.969609046875,6.85856,11.955679046875Q6.9285937,11.941748046875,7,11.941748046875Q7.0714063,11.941748046875,7.14144,11.955679046875Q7.211475,11.969609046875,7.277445,11.996935046875Q7.343416,12.024261046875,7.402788,12.063933046875Q7.46216,12.103604046875,7.512652,12.154096046875Q7.563144,12.204588046875,7.602815,12.263960046875Q7.642487,12.323332046875,7.6698129999999995,12.389303046875Q7.697139,12.455273046875,7.711069,12.525308046875Q7.725,12.595341746875,7.725,12.666748046875Z" fill="#212121" fill-opacity="1"/></g><g><path d="M14.33331298828125,13.394021046875L12.33331298828125,13.394021046875Q12.26168288828125,13.394021046875,12.19142898828125,13.380046046875Q12.12117498828125,13.366072046875,12.05499798828125,13.338660046875Q11.98881998828125,13.311249046875,11.92926198828125,13.271453046875Q11.86970398828125,13.231658046875,11.81905398828125,13.181007046875Q11.76840298828125,13.130357046875,11.72860798828125,13.070799046875Q11.68881198828125,13.011241046875,11.66140098828125,12.945063046875Q11.63398898828125,12.878886046875,11.62001498828125,12.808632046875Q11.60603998828125,12.738378146875,11.60603998828125,12.666748046875Q11.60603998828125,12.595117946875,11.62001498828125,12.524864046875Q11.63398898828125,12.454610046875,11.66140098828125,12.388433046875Q11.68881198828125,12.322255046875,11.72860798828125,12.262697046875Q11.76840298828125,12.203139046875,11.81905398828125,12.152489046875Q11.86970398828125,12.101838046875,11.92926198828125,12.062043046875Q11.98881998828125,12.022247046875,12.05499798828125,11.994836046875Q12.12117498828125,11.967424046875,12.19142898828125,11.953450046875Q12.26168288828125,11.939475046875,12.33331298828125,11.939475046875L14.33331298828125,11.939475046875Q14.404942988281249,11.939475046875,14.47519298828125,11.953450046875Q14.54545298828125,11.967424046875,14.61163298828125,11.994836046875Q14.67780298828125,12.022247046875,14.73736298828125,12.062043046875Q14.79692298828125,12.101838046875,14.84757298828125,12.152489046875Q14.89822298828125,12.203139046875,14.93801298828125,12.262697046875Q14.97781298828125,12.322255046875,15.00522298828125,12.388433046875Q15.03263298828125,12.454610046875,15.04661298828125,12.524864046875Q15.06058298828125,12.595117946875,15.06058298828125,12.666748046875Q15.06058298828125,12.738378146875,15.04661298828125,12.808632046875Q15.03263298828125,12.878886046875,15.00522298828125,12.945063046875Q14.97781298828125,13.011241046875,14.93801298828125,13.070799046875Q14.89822298828125,13.130357046875,14.84757298828125,13.181007046875Q14.79692298828125,13.231658046875,14.73736298828125,13.271453046875Q14.67780298828125,13.311249046875,14.61163298828125,13.338660046875Q14.54545298828125,13.366072046875,14.47519298828125,13.380046046875Q14.404942988281249,13.394021046875,14.33331298828125,13.394021046875ZM15.05831298828125,12.666748046875Q15.05831298828125,12.738154346875,15.04438298828125,12.808188046875Q15.030452988281251,12.878223046875,15.00312298828125,12.944193046875Q14.97580298828125,13.010164046875,14.93613298828125,13.069536046875Q14.89645298828125,13.128908046875,14.84596298828125,13.179400046875Q14.79547298828125,13.229892046875,14.73610298828125,13.269563046875Q14.67673298828125,13.309235046875,14.61076298828125,13.336561046875Q14.54478298828125,13.363887046875,14.47475298828125,13.377817046875Q14.40472298828125,13.391748046875,14.33331298828125,13.391748046875Q14.26190298828125,13.391748046875,14.19187298828125,13.377817046875Q14.12184298828125,13.363887046875,14.05586298828125,13.336561046875Q13.98989298828125,13.309235046875,13.93052298828125,13.269563046875Q13.87115298828125,13.229892046875,13.82066298828125,13.179400046875Q13.77017298828125,13.128908046875,13.73049298828125,13.069536046875Q13.69082298828125,13.010164046875,13.66350298828125,12.944193046875Q13.636172988281249,12.878223046875,13.62224298828125,12.808188046875Q13.60831298828125,12.738154346875,13.60831298828125,12.666748046875Q13.60831298828125,12.595341746875,13.62224298828125,12.525308046875Q13.636172988281249,12.455273046875,13.66350298828125,12.389303046875Q13.69082298828125,12.323332046875,13.73049298828125,12.263960046875Q13.77017298828125,12.204588046875,13.82066298828125,12.154096046875Q13.87115298828125,12.103604046875,13.93052298828125,12.063933046875Q13.98989298828125,12.024261046875,14.05586298828125,11.996935046875Q14.12184298828125,11.969609046875,14.19187298828125,11.955679046875Q14.26190298828125,11.941748046875,14.33331298828125,11.941748046875Q14.40472298828125,11.941748046875,14.47475298828125,11.955679046875Q14.54478298828125,11.969609046875,14.61076298828125,11.996935046875Q14.67673298828125,12.024261046875,14.73610298828125,12.063933046875Q14.79547298828125,12.103604046875,14.84596298828125,12.154096046875Q14.89645298828125,12.204588046875,14.93613298828125,12.263960046875Q14.97580298828125,12.323332046875,15.00312298828125,12.389303046875Q15.030452988281251,12.455273046875,15.04438298828125,12.525308046875Q15.05831298828125,12.595341746875,15.05831298828125,12.666748046875ZM13.05831298828125,12.666748046875Q13.05831298828125,12.738154346875,13.04438198828125,12.808188046875Q13.03045198828125,12.878223046875,13.00312598828125,12.944193046875Q12.97579998828125,13.010164046875,12.93612798828125,13.069536046875Q12.89645698828125,13.128908046875,12.84596498828125,13.179400046875Q12.79547298828125,13.229892046875,12.73610098828125,13.269563046875Q12.67672898828125,13.309235046875,12.61075798828125,13.336561046875Q12.54478798828125,13.363887046875,12.47475298828125,13.377817046875Q12.40471928828125,13.391748046875,12.33331298828125,13.391748046875Q12.26190668828125,13.391748046875,12.19187298828125,13.377817046875Q12.12183798828125,13.363887046875,12.05586798828125,13.336561046875Q11.98989698828125,13.309235046875,11.93052498828125,13.269563046875Q11.87115298828125,13.229892046875,11.82066098828125,13.179400046875Q11.77016898828125,13.128908046875,11.73049798828125,13.069536046875Q11.69082598828125,13.010164046875,11.66349998828125,12.944193046875Q11.63617398828125,12.878223046875,11.62224398828125,12.808188046875Q11.60831298828125,12.738154346875,11.60831298828125,12.666748046875Q11.60831298828125,12.595341746875,11.62224398828125,12.525308046875Q11.63617398828125,12.455273046875,11.66349998828125,12.389303046875Q11.69082598828125,12.323332046875,11.73049798828125,12.263960046875Q11.77016898828125,12.204588046875,11.82066098828125,12.154096046875Q11.87115298828125,12.103604046875,11.93052498828125,12.063933046875Q11.98989698828125,12.024261046875,12.05586798828125,11.996935046875Q12.12183798828125,11.969609046875,12.19187298828125,11.955679046875Q12.26190668828125,11.941748046875,12.33331298828125,11.941748046875Q12.40471928828125,11.941748046875,12.47475298828125,11.955679046875Q12.54478798828125,11.969609046875,12.61075798828125,11.996935046875Q12.67672898828125,12.024261046875,12.73610098828125,12.063933046875Q12.79547298828125,12.103604046875,12.84596498828125,12.154096046875Q12.89645698828125,12.204588046875,12.93612798828125,12.263960046875Q12.97579998828125,12.323332046875,13.00312598828125,12.389303046875Q13.03045198828125,12.455273046875,13.04438198828125,12.525308046875Q13.05831298828125,12.595341746875,13.05831298828125,12.666748046875Z" fill="#212121" fill-opacity="1"/></g><g><path d="M9,4.060524953125L7,4.060524953125Q6.9283699,4.060524953125,6.858116,4.046549953125Q6.787862,4.032575953125,6.721685,4.005163953125Q6.655507,3.977752953125,6.595949,3.937956953125Q6.536391,3.8981619531250002,6.485741,3.847510953125Q6.43509,3.796860953125,6.395295,3.737302953125Q6.355499,3.677744953125,6.328088,3.611566953125Q6.300676,3.545389953125,6.286702,3.475135953125Q6.272727,3.404882053125,6.272727,3.333251953125Q6.272727,3.261621853125,6.286702,3.191367953125Q6.300676,3.121113953125,6.328088,3.054936953125Q6.355499,2.988758953125,6.395295,2.929200953125Q6.43509,2.869642953125,6.485741,2.818992953125Q6.536391,2.7683419531249998,6.595949,2.728546953125Q6.655507,2.688750953125,6.721685,2.661339953125Q6.787862,2.633927953125,6.858116,2.619953953125Q6.9283699,2.605978953125,7,2.605978953125L9,2.605978953125Q9.071629999999999,2.605978953125,9.14188,2.619953953125Q9.21214,2.633927953125,9.27832,2.661339953125Q9.34449,2.688750953125,9.40405,2.728546953125Q9.46361,2.7683419531249998,9.51426,2.818992953125Q9.56491,2.869642953125,9.6047,2.929200953125Q9.6445,2.988758953125,9.67191,3.054936953125Q9.69932,3.121113953125,9.7133,3.191367953125Q9.72727,3.261621853125,9.72727,3.333251953125Q9.72727,3.404882053125,9.7133,3.475135953125Q9.69932,3.545389953125,9.67191,3.611566953125Q9.6445,3.677744953125,9.6047,3.737302953125Q9.56491,3.796860953125,9.51426,3.847510953125Q9.46361,3.8981619531250002,9.40405,3.937956953125Q9.34449,3.977752953125,9.27832,4.005163953125Q9.21214,4.032575953125,9.14188,4.046549953125Q9.071629999999999,4.060524953125,9,4.060524953125ZM9.725,3.333251953125Q9.725,3.404658253125,9.71107,3.4746919531250002Q9.697140000000001,3.544726953125,9.66981,3.610696953125Q9.64249,3.676667953125,9.60282,3.736039953125Q9.56314,3.795411953125,9.51265,3.845903953125Q9.46216,3.896395953125,9.40279,3.936066953125Q9.34342,3.975738953125,9.27745,4.0030649531249995Q9.21147,4.030390953125,9.14144,4.044320953125Q9.07141,4.058251953125,9,4.058251953125Q8.92859,4.058251953125,8.85856,4.044320953125Q8.78853,4.030390953125,8.72255,4.0030649531249995Q8.65658,3.975738953125,8.59721,3.936066953125Q8.53784,3.896395953125,8.48735,3.845903953125Q8.43686,3.795411953125,8.39718,3.736039953125Q8.35751,3.676667953125,8.33019,3.610696953125Q8.302859999999999,3.544726953125,8.28893,3.4746919531250002Q8.275,3.404658253125,8.275,3.333251953125Q8.275,3.261845653125,8.28893,3.1918119531249998Q8.302859999999999,3.121776953125,8.33019,3.055806953125Q8.35751,2.989835953125,8.39718,2.930463953125Q8.43686,2.871091953125,8.48735,2.820599953125Q8.53784,2.770107953125,8.59721,2.730436953125Q8.65658,2.690764953125,8.72255,2.663438953125Q8.78853,2.636112953125,8.85856,2.622182953125Q8.92859,2.608251953125,9,2.608251953125Q9.07141,2.608251953125,9.14144,2.622182953125Q9.21147,2.636112953125,9.27745,2.663438953125Q9.34342,2.690764953125,9.40279,2.730436953125Q9.46216,2.770107953125,9.51265,2.820599953125Q9.56314,2.871091953125,9.60282,2.930463953125Q9.64249,2.989835953125,9.66981,3.055806953125Q9.697140000000001,3.121776953125,9.71107,3.1918119531249998Q9.725,3.261845653125,9.725,3.333251953125ZM7.725,3.333251953125Q7.725,3.404658253125,7.711069,3.4746919531250002Q7.697139,3.544726953125,7.6698129999999995,3.610696953125Q7.642487,3.676667953125,7.602815,3.736039953125Q7.563144,3.795411953125,7.512652,3.845903953125Q7.46216,3.896395953125,7.402788,3.936066953125Q7.343416,3.975738953125,7.277445,4.0030649531249995Q7.211475,4.030390953125,7.14144,4.044320953125Q7.0714063,4.058251953125,7,4.058251953125Q6.9285937,4.058251953125,6.85856,4.044320953125Q6.788525,4.030390953125,6.722555,4.0030649531249995Q6.656584,3.975738953125,6.597212,3.936066953125Q6.53784,3.896395953125,6.487348,3.845903953125Q6.436856,3.795411953125,6.397185,3.736039953125Q6.357513,3.676667953125,6.3301870000000005,3.610696953125Q6.302861,3.544726953125,6.288931,3.4746919531250002Q6.275,3.404658253125,6.275,3.333251953125Q6.275,3.261845653125,6.288931,3.1918119531249998Q6.302861,3.121776953125,6.3301870000000005,3.055806953125Q6.357513,2.989835953125,6.397185,2.930463953125Q6.436856,2.871091953125,6.487348,2.820599953125Q6.53784,2.770107953125,6.597212,2.730436953125Q6.656584,2.690764953125,6.722555,2.663438953125Q6.788525,2.636112953125,6.85856,2.622182953125Q6.9285937,2.608251953125,7,2.608251953125Q7.0714063,2.608251953125,7.14144,2.622182953125Q7.211475,2.636112953125,7.277445,2.663438953125Q7.343416,2.690764953125,7.402788,2.730436953125Q7.46216,2.770107953125,7.512652,2.820599953125Q7.563144,2.871091953125,7.602815,2.930463953125Q7.642487,2.989835953125,7.6698129999999995,3.055806953125Q7.697139,3.121776953125,7.711069,3.1918119531249998Q7.725,3.261845653125,7.725,3.333251953125Z" fill="#212121" fill-opacity="1"/></g><g><path d="M3.666748046875,13.394021046875L1.666748046875,13.394021046875Q1.595117946875,13.394021046875,1.5248640468749999,13.380046046875Q1.454610046875,13.366072046875,1.388433046875,13.338660046875Q1.322255046875,13.311249046875,1.262697046875,13.271453046875Q1.203139046875,13.231658046875,1.152489046875,13.181007046875Q1.101838046875,13.130357046875,1.062043046875,13.070799046875Q1.022247046875,13.011241046875,0.994836046875,12.945063046875Q0.967424046875,12.878886046875,0.953450046875,12.808632046875Q0.939475046875,12.738378146875,0.939475046875,12.666748046875Q0.939475046875,12.595117946875,0.953450046875,12.524864046875Q0.967424046875,12.454610046875,0.994836046875,12.388433046875Q1.022247046875,12.322255046875,1.062043046875,12.262697046875Q1.101838046875,12.203139046875,1.152489046875,12.152489046875Q1.203139046875,12.101838046875,1.262697046875,12.062043046875Q1.322255046875,12.022247046875,1.388433046875,11.994836046875Q1.454610046875,11.967424046875,1.5248640468749999,11.953450046875Q1.595117946875,11.939475046875,1.666748046875,11.939475046875L3.666748046875,11.939475046875Q3.738378046875,11.939475046875,3.808628046875,11.953450046875Q3.878888046875,11.967424046875,3.945068046875,11.994836046875Q4.011238046875,12.022247046875,4.070798046875,12.062043046875Q4.130358046875,12.101838046875,4.181008046875,12.152489046875Q4.231658046874999,12.203139046875,4.271448046874999,12.262697046875Q4.311248046875,12.322255046875,4.3386580468750005,12.388433046875Q4.366068046875,12.454610046875,4.380048046875,12.524864046875Q4.394018046875,12.595117946875,4.394018046875,12.666748046875Q4.394018046875,12.738378146875,4.380048046875,12.808632046875Q4.366068046875,12.878886046875,4.3386580468750005,12.945063046875Q4.311248046875,13.011241046875,4.271448046874999,13.070799046875Q4.231658046874999,13.130357046875,4.181008046875,13.181007046875Q4.130358046875,13.231658046875,4.070798046875,13.271453046875Q4.011238046875,13.311249046875,3.945068046875,13.338660046875Q3.878888046875,13.366072046875,3.808628046875,13.380046046875Q3.738378046875,13.394021046875,3.666748046875,13.394021046875ZM4.391748046875,12.666748046875Q4.391748046875,12.738154346875,4.377818046874999,12.808188046875Q4.363888046875,12.878223046875,4.336558046875,12.944193046875Q4.3092380468750004,13.010164046875,4.2695680468749995,13.069536046875Q4.229888046875001,13.128908046875,4.179398046875,13.179400046875Q4.128908046875,13.229892046875,4.0695380468749995,13.269563046875Q4.010168046875,13.309235046875,3.944198046875,13.336561046875Q3.878218046875,13.363887046875,3.808188046875,13.377817046875Q3.738158046875,13.391748046875,3.666748046875,13.391748046875Q3.595338046875,13.391748046875,3.5253080468749998,13.377817046875Q3.4552780468749997,13.363887046875,3.389298046875,13.336561046875Q3.323328046875,13.309235046875,3.263958046875,13.269563046875Q3.204588046875,13.229892046875,3.154098046875,13.179400046875Q3.1036080468750002,13.128908046875,3.063928046875,13.069536046875Q3.024258046875,13.010164046875,2.996938046875,12.944193046875Q2.969608046875,12.878223046875,2.9556780468749997,12.808188046875Q2.941748046875,12.738154346875,2.941748046875,12.666748046875Q2.941748046875,12.595341746875,2.9556780468749997,12.525308046875Q2.969608046875,12.455273046875,2.996938046875,12.389303046875Q3.024258046875,12.323332046875,3.063928046875,12.263960046875Q3.1036080468750002,12.204588046875,3.154098046875,12.154096046875Q3.204588046875,12.103604046875,3.263958046875,12.063933046875Q3.323328046875,12.024261046875,3.389298046875,11.996935046875Q3.4552780468749997,11.969609046875,3.5253080468749998,11.955679046875Q3.595338046875,11.941748046875,3.666748046875,11.941748046875Q3.738158046875,11.941748046875,3.808188046875,11.955679046875Q3.878218046875,11.969609046875,3.944198046875,11.996935046875Q4.010168046875,12.024261046875,4.0695380468749995,12.063933046875Q4.128908046875,12.103604046875,4.179398046875,12.154096046875Q4.229888046875001,12.204588046875,4.2695680468749995,12.263960046875Q4.3092380468750004,12.323332046875,4.336558046875,12.389303046875Q4.363888046875,12.455273046875,4.377818046874999,12.525308046875Q4.391748046875,12.595341746875,4.391748046875,12.666748046875ZM2.391748046875,12.666748046875Q2.391748046875,12.738154346875,2.377817046875,12.808188046875Q2.363887046875,12.878223046875,2.336561046875,12.944193046875Q2.309235046875,13.010164046875,2.269563046875,13.069536046875Q2.229892046875,13.128908046875,2.179400046875,13.179400046875Q2.128908046875,13.229892046875,2.069536046875,13.269563046875Q2.010164046875,13.309235046875,1.944193046875,13.336561046875Q1.878223046875,13.363887046875,1.808188046875,13.377817046875Q1.738154346875,13.391748046875,1.666748046875,13.391748046875Q1.595341746875,13.391748046875,1.525308046875,13.377817046875Q1.455273046875,13.363887046875,1.389303046875,13.336561046875Q1.323332046875,13.309235046875,1.263960046875,13.269563046875Q1.204588046875,13.229892046875,1.154096046875,13.179400046875Q1.1036040468750001,13.128908046875,1.063933046875,13.069536046875Q1.024261046875,13.010164046875,0.996935046875,12.944193046875Q0.969609046875,12.878223046875,0.955679046875,12.808188046875Q0.941748046875,12.738154346875,0.941748046875,12.666748046875Q0.941748046875,12.595341746875,0.955679046875,12.525308046875Q0.969609046875,12.455273046875,0.996935046875,12.389303046875Q1.024261046875,12.323332046875,1.063933046875,12.263960046875Q1.1036040468750001,12.204588046875,1.154096046875,12.154096046875Q1.204588046875,12.103604046875,1.263960046875,12.063933046875Q1.323332046875,12.024261046875,1.389303046875,11.996935046875Q1.455273046875,11.969609046875,1.525308046875,11.955679046875Q1.595341746875,11.941748046875,1.666748046875,11.941748046875Q1.738154346875,11.941748046875,1.808188046875,11.955679046875Q1.878223046875,11.969609046875,1.944193046875,11.996935046875Q2.010164046875,12.024261046875,2.069536046875,12.063933046875Q2.128908046875,12.103604046875,2.179400046875,12.154096046875Q2.229892046875,12.204588046875,2.269563046875,12.263960046875Q2.309235046875,12.323332046875,2.336561046875,12.389303046875Q2.363887046875,12.455273046875,2.377817046875,12.525308046875Q2.391748046875,12.595341746875,2.391748046875,12.666748046875Z" fill="#212121" fill-opacity="1"/></g><g><path d="M3.666748046875,4.060524953125L1.666748046875,4.060524953125Q1.595117946875,4.060524953125,1.5248640468749999,4.046549953125Q1.454610046875,4.032575953125,1.388433046875,4.005163953125Q1.322255046875,3.977752953125,1.262697046875,3.937956953125Q1.203139046875,3.8981619531250002,1.152489046875,3.847510953125Q1.101838046875,3.796860953125,1.062043046875,3.737302953125Q1.022247046875,3.677744953125,0.994836046875,3.611566953125Q0.967424046875,3.545389953125,0.953450046875,3.475135953125Q0.939475046875,3.404882053125,0.939475046875,3.333251953125Q0.939475046875,3.261621853125,0.953450046875,3.191367953125Q0.967424046875,3.121113953125,0.994836046875,3.054936953125Q1.022247046875,2.988758953125,1.062043046875,2.929200953125Q1.101838046875,2.869642953125,1.152489046875,2.818992953125Q1.203139046875,2.7683419531249998,1.262697046875,2.728546953125Q1.322255046875,2.688750953125,1.388433046875,2.661339953125Q1.454610046875,2.633927953125,1.5248640468749999,2.619953953125Q1.595117946875,2.605978953125,1.666748046875,2.605978953125L3.666748046875,2.605978953125Q3.738378046875,2.605978953125,3.808628046875,2.619953953125Q3.878888046875,2.633927953125,3.945068046875,2.661339953125Q4.011238046875,2.688750953125,4.070798046875,2.728546953125Q4.130358046875,2.7683419531249998,4.181008046875,2.818992953125Q4.231658046874999,2.869642953125,4.271448046874999,2.929200953125Q4.311248046875,2.988758953125,4.3386580468750005,3.054936953125Q4.366068046875,3.121113953125,4.380048046875,3.191367953125Q4.394018046875,3.261621853125,4.394018046875,3.333251953125Q4.394018046875,3.404882053125,4.380048046875,3.475135953125Q4.366068046875,3.545389953125,4.3386580468750005,3.611566953125Q4.311248046875,3.677744953125,4.271448046874999,3.737302953125Q4.231658046874999,3.796860953125,4.181008046875,3.847510953125Q4.130358046875,3.8981619531250002,4.070798046875,3.937956953125Q4.011238046875,3.977752953125,3.945068046875,4.005163953125Q3.878888046875,4.032575953125,3.808628046875,4.046549953125Q3.738378046875,4.060524953125,3.666748046875,4.060524953125ZM4.391748046875,3.333251953125Q4.391748046875,3.404658253125,4.377818046874999,3.4746919531250002Q4.363888046875,3.544726953125,4.336558046875,3.610696953125Q4.3092380468750004,3.676667953125,4.2695680468749995,3.736039953125Q4.229888046875001,3.795411953125,4.179398046875,3.845903953125Q4.128908046875,3.896395953125,4.0695380468749995,3.936066953125Q4.010168046875,3.975738953125,3.944198046875,4.0030649531249995Q3.878218046875,4.030390953125,3.808188046875,4.044320953125Q3.738158046875,4.058251953125,3.666748046875,4.058251953125Q3.595338046875,4.058251953125,3.5253080468749998,4.044320953125Q3.4552780468749997,4.030390953125,3.389298046875,4.0030649531249995Q3.323328046875,3.975738953125,3.263958046875,3.936066953125Q3.204588046875,3.896395953125,3.154098046875,3.845903953125Q3.1036080468750002,3.795411953125,3.063928046875,3.736039953125Q3.024258046875,3.676667953125,2.996938046875,3.610696953125Q2.969608046875,3.544726953125,2.9556780468749997,3.4746919531250002Q2.941748046875,3.404658253125,2.941748046875,3.333251953125Q2.941748046875,3.261845653125,2.9556780468749997,3.1918119531249998Q2.969608046875,3.121776953125,2.996938046875,3.055806953125Q3.024258046875,2.989835953125,3.063928046875,2.930463953125Q3.1036080468750002,2.871091953125,3.154098046875,2.820599953125Q3.204588046875,2.770107953125,3.263958046875,2.730436953125Q3.323328046875,2.690764953125,3.389298046875,2.663438953125Q3.4552780468749997,2.636112953125,3.5253080468749998,2.622182953125Q3.595338046875,2.608251953125,3.666748046875,2.608251953125Q3.738158046875,2.608251953125,3.808188046875,2.622182953125Q3.878218046875,2.636112953125,3.944198046875,2.663438953125Q4.010168046875,2.690764953125,4.0695380468749995,2.730436953125Q4.128908046875,2.770107953125,4.179398046875,2.820599953125Q4.229888046875001,2.871091953125,4.2695680468749995,2.930463953125Q4.3092380468750004,2.989835953125,4.336558046875,3.055806953125Q4.363888046875,3.121776953125,4.377818046874999,3.1918119531249998Q4.391748046875,3.261845653125,4.391748046875,3.333251953125ZM2.391748046875,3.333251953125Q2.391748046875,3.404658253125,2.377817046875,3.4746919531250002Q2.363887046875,3.544726953125,2.336561046875,3.610696953125Q2.309235046875,3.676667953125,2.269563046875,3.736039953125Q2.229892046875,3.795411953125,2.179400046875,3.845903953125Q2.128908046875,3.896395953125,2.069536046875,3.936066953125Q2.010164046875,3.975738953125,1.944193046875,4.0030649531249995Q1.878223046875,4.030390953125,1.808188046875,4.044320953125Q1.738154346875,4.058251953125,1.666748046875,4.058251953125Q1.595341746875,4.058251953125,1.525308046875,4.044320953125Q1.455273046875,4.030390953125,1.389303046875,4.0030649531249995Q1.323332046875,3.975738953125,1.263960046875,3.936066953125Q1.204588046875,3.896395953125,1.154096046875,3.845903953125Q1.1036040468750001,3.795411953125,1.063933046875,3.736039953125Q1.024261046875,3.676667953125,0.996935046875,3.610696953125Q0.969609046875,3.544726953125,0.955679046875,3.4746919531250002Q0.941748046875,3.404658253125,0.941748046875,3.333251953125Q0.941748046875,3.261845653125,0.955679046875,3.1918119531249998Q0.969609046875,3.121776953125,0.996935046875,3.055806953125Q1.024261046875,2.989835953125,1.063933046875,2.930463953125Q1.1036040468750001,2.871091953125,1.154096046875,2.820599953125Q1.204588046875,2.770107953125,1.263960046875,2.730436953125Q1.323332046875,2.690764953125,1.389303046875,2.663438953125Q1.455273046875,2.636112953125,1.525308046875,2.622182953125Q1.595341746875,2.608251953125,1.666748046875,2.608251953125Q1.738154346875,2.608251953125,1.808188046875,2.622182953125Q1.878223046875,2.636112953125,1.944193046875,2.663438953125Q2.010164046875,2.690764953125,2.069536046875,2.730436953125Q2.128908046875,2.770107953125,2.179400046875,2.820599953125Q2.229892046875,2.871091953125,2.269563046875,2.930463953125Q2.309235046875,2.989835953125,2.336561046875,3.055806953125Q2.363887046875,3.121776953125,2.377817046875,3.1918119531249998Q2.391748046875,3.261845653125,2.391748046875,3.333251953125Z" fill="#212121" fill-opacity="1"/></g><g><path d="M14.33331298828125,4.060524953125L12.33331298828125,4.060524953125Q12.26168288828125,4.060524953125,12.19142898828125,4.046549953125Q12.12117498828125,4.032575953125,12.05499798828125,4.005163953125Q11.98881998828125,3.977752953125,11.92926198828125,3.937956953125Q11.86970398828125,3.8981619531250002,11.81905398828125,3.847510953125Q11.76840298828125,3.796860953125,11.72860798828125,3.737302953125Q11.68881198828125,3.677744953125,11.66140098828125,3.611566953125Q11.63398898828125,3.545389953125,11.62001498828125,3.475135953125Q11.60603998828125,3.404882053125,11.60603998828125,3.333251953125Q11.60603998828125,3.261621853125,11.62001498828125,3.191367953125Q11.63398898828125,3.121113953125,11.66140098828125,3.054936953125Q11.68881198828125,2.988758953125,11.72860798828125,2.929200953125Q11.76840298828125,2.869642953125,11.81905398828125,2.818992953125Q11.86970398828125,2.7683419531249998,11.92926198828125,2.728546953125Q11.98881998828125,2.688750953125,12.05499798828125,2.661339953125Q12.12117498828125,2.633927953125,12.19142898828125,2.619953953125Q12.26168288828125,2.605978953125,12.33331298828125,2.605978953125L14.33331298828125,2.605978953125Q14.404942988281249,2.605978953125,14.47519298828125,2.619953953125Q14.54545298828125,2.633927953125,14.61163298828125,2.661339953125Q14.67780298828125,2.688750953125,14.73736298828125,2.728546953125Q14.79692298828125,2.7683419531249998,14.84757298828125,2.818992953125Q14.89822298828125,2.869642953125,14.93801298828125,2.929200953125Q14.97781298828125,2.988758953125,15.00522298828125,3.054936953125Q15.03263298828125,3.121113953125,15.04661298828125,3.191367953125Q15.06058298828125,3.261621853125,15.06058298828125,3.333251953125Q15.06058298828125,3.404882053125,15.04661298828125,3.475135953125Q15.03263298828125,3.545389953125,15.00522298828125,3.611566953125Q14.97781298828125,3.677744953125,14.93801298828125,3.737302953125Q14.89822298828125,3.796860953125,14.84757298828125,3.847510953125Q14.79692298828125,3.8981619531250002,14.73736298828125,3.937956953125Q14.67780298828125,3.977752953125,14.61163298828125,4.005163953125Q14.54545298828125,4.032575953125,14.47519298828125,4.046549953125Q14.404942988281249,4.060524953125,14.33331298828125,4.060524953125ZM15.05831298828125,3.333251953125Q15.05831298828125,3.404658253125,15.04438298828125,3.4746919531250002Q15.030452988281251,3.544726953125,15.00312298828125,3.610696953125Q14.97580298828125,3.676667953125,14.93613298828125,3.736039953125Q14.89645298828125,3.795411953125,14.84596298828125,3.845903953125Q14.79547298828125,3.896395953125,14.73610298828125,3.936066953125Q14.67673298828125,3.975738953125,14.61076298828125,4.0030649531249995Q14.54478298828125,4.030390953125,14.47475298828125,4.044320953125Q14.40472298828125,4.058251953125,14.33331298828125,4.058251953125Q14.26190298828125,4.058251953125,14.19187298828125,4.044320953125Q14.12184298828125,4.030390953125,14.05586298828125,4.0030649531249995Q13.98989298828125,3.975738953125,13.93052298828125,3.936066953125Q13.87115298828125,3.896395953125,13.82066298828125,3.845903953125Q13.77017298828125,3.795411953125,13.73049298828125,3.736039953125Q13.69082298828125,3.676667953125,13.66350298828125,3.610696953125Q13.636172988281249,3.544726953125,13.62224298828125,3.4746919531250002Q13.60831298828125,3.404658253125,13.60831298828125,3.333251953125Q13.60831298828125,3.261845653125,13.62224298828125,3.1918119531249998Q13.636172988281249,3.121776953125,13.66350298828125,3.055806953125Q13.69082298828125,2.989835953125,13.73049298828125,2.930463953125Q13.77017298828125,2.871091953125,13.82066298828125,2.820599953125Q13.87115298828125,2.770107953125,13.93052298828125,2.730436953125Q13.98989298828125,2.690764953125,14.05586298828125,2.663438953125Q14.12184298828125,2.636112953125,14.19187298828125,2.622182953125Q14.26190298828125,2.608251953125,14.33331298828125,2.608251953125Q14.40472298828125,2.608251953125,14.47475298828125,2.622182953125Q14.54478298828125,2.636112953125,14.61076298828125,2.663438953125Q14.67673298828125,2.690764953125,14.73610298828125,2.730436953125Q14.79547298828125,2.770107953125,14.84596298828125,2.820599953125Q14.89645298828125,2.871091953125,14.93613298828125,2.930463953125Q14.97580298828125,2.989835953125,15.00312298828125,3.055806953125Q15.030452988281251,3.121776953125,15.04438298828125,3.1918119531249998Q15.05831298828125,3.261845653125,15.05831298828125,3.333251953125ZM13.05831298828125,3.333251953125Q13.05831298828125,3.404658253125,13.04438198828125,3.4746919531250002Q13.03045198828125,3.544726953125,13.00312598828125,3.610696953125Q12.97579998828125,3.676667953125,12.93612798828125,3.736039953125Q12.89645698828125,3.795411953125,12.84596498828125,3.845903953125Q12.79547298828125,3.896395953125,12.73610098828125,3.936066953125Q12.67672898828125,3.975738953125,12.61075798828125,4.0030649531249995Q12.54478798828125,4.030390953125,12.47475298828125,4.044320953125Q12.40471928828125,4.058251953125,12.33331298828125,4.058251953125Q12.26190668828125,4.058251953125,12.19187298828125,4.044320953125Q12.12183798828125,4.030390953125,12.05586798828125,4.0030649531249995Q11.98989698828125,3.975738953125,11.93052498828125,3.936066953125Q11.87115298828125,3.896395953125,11.82066098828125,3.845903953125Q11.77016898828125,3.795411953125,11.73049798828125,3.736039953125Q11.69082598828125,3.676667953125,11.66349998828125,3.610696953125Q11.63617398828125,3.544726953125,11.62224398828125,3.4746919531250002Q11.60831298828125,3.404658253125,11.60831298828125,3.333251953125Q11.60831298828125,3.261845653125,11.62224398828125,3.1918119531249998Q11.63617398828125,3.121776953125,11.66349998828125,3.055806953125Q11.69082598828125,2.989835953125,11.73049798828125,2.930463953125Q11.77016898828125,2.871091953125,11.82066098828125,2.820599953125Q11.87115298828125,2.770107953125,11.93052498828125,2.730436953125Q11.98989698828125,2.690764953125,12.05586798828125,2.663438953125Q12.12183798828125,2.636112953125,12.19187298828125,2.622182953125Q12.26190668828125,2.608251953125,12.33331298828125,2.608251953125Q12.40471928828125,2.608251953125,12.47475298828125,2.622182953125Q12.54478798828125,2.636112953125,12.61075798828125,2.663438953125Q12.67672898828125,2.690764953125,12.73610098828125,2.730436953125Q12.79547298828125,2.770107953125,12.84596498828125,2.820599953125Q12.89645698828125,2.871091953125,12.93612798828125,2.930463953125Q12.97579998828125,2.989835953125,13.00312598828125,3.055806953125Q13.03045198828125,3.121776953125,13.04438198828125,3.1918119531249998Q13.05831298828125,3.261845653125,13.05831298828125,3.333251953125Z" fill="#212121" fill-opacity="1"/></g></g></svg>