<svg xmlns="http://www.w3.org/2000/svg" xmlns:xlink="http://www.w3.org/1999/xlink" fill="none" version="1.1" width="16" height="16" viewBox="0 0 16 16"><defs><clipPath id="master_svg0_346_2622"><rect x="0" y="0" width="16" height="16" rx="0"/></clipPath></defs><g clip-path="url(#master_svg0_346_2622)"><g><path d="M1.2726354472656252,13.333448046875L1.2726354472656252,2.666748046875Q1.2726354472656252,2.595117946875,1.286610447265625,2.524864046875Q1.3005844472656252,2.454610046875,1.3279964472656252,2.388433046875Q1.355407447265625,2.322255046875,1.395203447265625,2.262697046875Q1.434998447265625,2.203139046875,1.485649447265625,2.152489046875Q1.536299447265625,2.1018380468749998,1.595857447265625,2.062043046875Q1.655415447265625,2.022247046875,1.721593447265625,1.9948360468750002Q1.787770447265625,1.9674240468750002,1.8580244472656249,1.953450046875Q1.928278347265625,1.9394750468750002,1.999908447265625,1.9394750468750002Q2.071538547265625,1.9394750468750002,2.141792447265625,1.953450046875Q2.212046447265625,1.9674240468750002,2.278223447265625,1.9948360468750002Q2.344401447265625,2.022247046875,2.403959447265625,2.062043046875Q2.463517447265625,2.1018380468749998,2.514167447265625,2.152489046875Q2.5648184472656252,2.203139046875,2.604613447265625,2.262697046875Q2.644409447265625,2.322255046875,2.671820447265625,2.388433046875Q2.699232447265625,2.454610046875,2.713206447265625,2.524864046875Q2.727181447265625,2.595117946875,2.727181447265625,2.666748046875L2.727181447265625,13.333448046875Q2.727181447265625,13.405048046875,2.713206447265625,13.475248046875Q2.699232447265625,13.545548046875,2.671820447265625,13.611748046875Q2.644409447265625,13.677848046875,2.604613447265625,13.737448046875Q2.5648184472656252,13.797048046875,2.514167447265625,13.847648046875Q2.463517447265625,13.898348046875,2.403959447265625,13.938148046875Q2.344401447265625,13.977948046875,2.278223447265625,14.005348046875Q2.212046447265625,14.032748046875,2.141792447265625,14.046648046875Q2.071538547265625,14.060648046875,1.999908447265625,14.060648046875Q1.928278347265625,14.060648046875,1.8580244472656249,14.046648046875Q1.787770447265625,14.032748046875,1.721593447265625,14.005348046875Q1.655415447265625,13.977948046875,1.595857447265625,13.938148046875Q1.536299447265625,13.898348046875,1.485649447265625,13.847648046875Q1.434998447265625,13.797048046875,1.395203447265625,13.737448046875Q1.355407447265625,13.677848046875,1.3279964472656252,13.611748046875Q1.3005844472656252,13.545548046875,1.286610447265625,13.475248046875Q1.2726354472656252,13.405048046875,1.2726354472656252,13.333448046875ZM2.724908447265625,13.333448046875Q2.724908447265625,13.404848046875,2.710977447265625,13.474848046875Q2.697047447265625,13.544848046875,2.669721447265625,13.610848046875Q2.642395447265625,13.676848046875,2.602723447265625,13.736148046875Q2.563052447265625,13.795548046875,2.512560447265625,13.846048046875Q2.462068447265625,13.896548046875,2.402696447265625,13.936248046875Q2.343324447265625,13.975848046875,2.277353447265625,14.003248046875Q2.211383447265625,14.030548046875,2.1413484472656252,14.044448046875Q2.071314747265625,14.058448046875,1.999908447265625,14.058448046875Q1.928502147265625,14.058448046875,1.858468447265625,14.044448046875Q1.788433447265625,14.030548046875,1.722463447265625,14.003248046875Q1.656492447265625,13.975848046875,1.597120447265625,13.936248046875Q1.537748447265625,13.896548046875,1.487256447265625,13.846048046875Q1.4367644472656251,13.795548046875,1.397093447265625,13.736148046875Q1.357421447265625,13.676848046875,1.330095447265625,13.610848046875Q1.302769447265625,13.544848046875,1.288839447265625,13.474848046875Q1.274908447265625,13.404848046875,1.274908447265625,13.333448046875Q1.274908447265625,13.261948046875,1.288839447265625,13.191948046875Q1.302769447265625,13.121948046875,1.330095447265625,13.055948046875Q1.357421447265625,12.989948046875,1.397093447265625,12.930648046875Q1.4367644472656251,12.871248046875,1.487256447265625,12.820748046875Q1.537748447265625,12.770248046875,1.597120447265625,12.730548046875Q1.656492447265625,12.690948046875,1.722463447265625,12.663588046875Q1.788433447265625,12.636258046875,1.858468447265625,12.622328046875Q1.928502147265625,12.608398046875,1.999908447265625,12.608398046875Q2.071314747265625,12.608398046875,2.1413484472656252,12.622328046875Q2.211383447265625,12.636258046875,2.277353447265625,12.663588046875Q2.343324447265625,12.690948046875,2.402696447265625,12.730548046875Q2.462068447265625,12.770248046875,2.512560447265625,12.820748046875Q2.563052447265625,12.871248046875,2.602723447265625,12.930648046875Q2.642395447265625,12.989948046875,2.669721447265625,13.055948046875Q2.697047447265625,13.121948046875,2.710977447265625,13.191948046875Q2.724908447265625,13.261948046875,2.724908447265625,13.333448046875ZM2.724908447265625,2.666748046875Q2.724908447265625,2.738154346875,2.710977447265625,2.8081880468750002Q2.697047447265625,2.878223046875,2.669721447265625,2.944193046875Q2.642395447265625,3.010164046875,2.602723447265625,3.069536046875Q2.563052447265625,3.128908046875,2.512560447265625,3.179400046875Q2.462068447265625,3.229892046875,2.402696447265625,3.269563046875Q2.343324447265625,3.309235046875,2.277353447265625,3.336561046875Q2.211383447265625,3.363887046875,2.1413484472656252,3.377817046875Q2.071314747265625,3.391748046875,1.999908447265625,3.391748046875Q1.928502147265625,3.391748046875,1.858468447265625,3.377817046875Q1.788433447265625,3.363887046875,1.722463447265625,3.336561046875Q1.656492447265625,3.309235046875,1.597120447265625,3.269563046875Q1.537748447265625,3.229892046875,1.487256447265625,3.179400046875Q1.4367644472656251,3.128908046875,1.397093447265625,3.069536046875Q1.357421447265625,3.010164046875,1.330095447265625,2.944193046875Q1.302769447265625,2.878223046875,1.288839447265625,2.8081880468750002Q1.274908447265625,2.738154346875,1.274908447265625,2.666748046875Q1.274908447265625,2.595341746875,1.288839447265625,2.5253080468749998Q1.302769447265625,2.455273046875,1.330095447265625,2.389303046875Q1.357421447265625,2.323332046875,1.397093447265625,2.263960046875Q1.4367644472656251,2.204588046875,1.487256447265625,2.154096046875Q1.537748447265625,2.103604046875,1.597120447265625,2.063933046875Q1.656492447265625,2.024261046875,1.722463447265625,1.996935046875Q1.788433447265625,1.969609046875,1.858468447265625,1.955679046875Q1.928502147265625,1.941748046875,1.999908447265625,1.941748046875Q2.071314747265625,1.941748046875,2.1413484472656252,1.955679046875Q2.211383447265625,1.969609046875,2.277353447265625,1.996935046875Q2.343324447265625,2.024261046875,2.402696447265625,2.063933046875Q2.462068447265625,2.103604046875,2.512560447265625,2.154096046875Q2.563052447265625,2.204588046875,2.602723447265625,2.263960046875Q2.642395447265625,2.323332046875,2.669721447265625,2.389303046875Q2.697047447265625,2.455273046875,2.710977447265625,2.5253080468749998Q2.724908447265625,2.595341746875,2.724908447265625,2.666748046875Z" fill="#212121" fill-opacity="1"/></g><g><path d="M7.272635447265625,13.333448046875L7.272635447265625,2.666748046875Q7.272635447265625,2.595117946875,7.286610447265625,2.524864046875Q7.300584447265625,2.454610046875,7.327996447265625,2.388433046875Q7.355407447265625,2.322255046875,7.395203447265625,2.262697046875Q7.434998447265625,2.203139046875,7.485649447265625,2.152489046875Q7.536299447265625,2.1018380468749998,7.595857447265625,2.062043046875Q7.655415447265625,2.022247046875,7.721593447265625,1.9948360468750002Q7.787770447265625,1.9674240468750002,7.858024447265625,1.953450046875Q7.928278347265625,1.9394750468750002,7.999908447265625,1.9394750468750002Q8.071538547265625,1.9394750468750002,8.141792447265624,1.953450046875Q8.212046447265624,1.9674240468750002,8.278223447265624,1.9948360468750002Q8.344401447265625,2.022247046875,8.403959447265626,2.062043046875Q8.463517447265625,2.1018380468749998,8.514167447265624,2.152489046875Q8.564818447265624,2.203139046875,8.604613447265624,2.262697046875Q8.644409447265625,2.322255046875,8.671820447265626,2.388433046875Q8.699232447265626,2.454610046875,8.713206447265625,2.524864046875Q8.727181447265625,2.595117946875,8.727181447265625,2.666748046875L8.727181447265625,13.333448046875Q8.727181447265625,13.405048046875,8.713206447265625,13.475248046875Q8.699232447265626,13.545548046875,8.671820447265626,13.611748046875Q8.644409447265625,13.677848046875,8.604613447265624,13.737448046875Q8.564818447265624,13.797048046875,8.514167447265624,13.847648046875Q8.463517447265625,13.898348046875,8.403959447265626,13.938148046875Q8.344401447265625,13.977948046875,8.278223447265624,14.005348046875Q8.212046447265624,14.032748046875,8.141792447265624,14.046648046875Q8.071538547265625,14.060648046875,7.999908447265625,14.060648046875Q7.928278347265625,14.060648046875,7.858024447265625,14.046648046875Q7.787770447265625,14.032748046875,7.721593447265625,14.005348046875Q7.655415447265625,13.977948046875,7.595857447265625,13.938148046875Q7.536299447265625,13.898348046875,7.485649447265625,13.847648046875Q7.434998447265625,13.797048046875,7.395203447265625,13.737448046875Q7.355407447265625,13.677848046875,7.327996447265625,13.611748046875Q7.300584447265625,13.545548046875,7.286610447265625,13.475248046875Q7.272635447265625,13.405048046875,7.272635447265625,13.333448046875ZM8.724908447265625,13.333448046875Q8.724908447265625,13.404848046875,8.710977447265625,13.474848046875Q8.697047447265625,13.544848046875,8.669721447265625,13.610848046875Q8.642395447265624,13.676848046875,8.602723447265625,13.736148046875Q8.563052447265624,13.795548046875,8.512560447265624,13.846048046875Q8.462068447265626,13.896548046875,8.402696447265624,13.936248046875Q8.343324447265624,13.975848046875,8.277353447265625,14.003248046875Q8.211383447265625,14.030548046875,8.141348447265624,14.044448046875Q8.071314747265625,14.058448046875,7.999908447265625,14.058448046875Q7.928502147265625,14.058448046875,7.858468447265625,14.044448046875Q7.788433447265625,14.030548046875,7.722463447265625,14.003248046875Q7.656492447265625,13.975848046875,7.597120447265625,13.936248046875Q7.537748447265625,13.896548046875,7.487256447265625,13.846048046875Q7.436764447265625,13.795548046875,7.397093447265625,13.736148046875Q7.357421447265625,13.676848046875,7.3300954472656255,13.610848046875Q7.302769447265625,13.544848046875,7.288839447265625,13.474848046875Q7.274908447265625,13.404848046875,7.274908447265625,13.333448046875Q7.274908447265625,13.261948046875,7.288839447265625,13.191948046875Q7.302769447265625,13.121948046875,7.3300954472656255,13.055948046875Q7.357421447265625,12.989948046875,7.397093447265625,12.930648046875Q7.436764447265625,12.871248046875,7.487256447265625,12.820748046875Q7.537748447265625,12.770248046875,7.597120447265625,12.730548046875Q7.656492447265625,12.690948046875,7.722463447265625,12.663588046875Q7.788433447265625,12.636258046875,7.858468447265625,12.622328046875Q7.928502147265625,12.608398046875,7.999908447265625,12.608398046875Q8.071314747265625,12.608398046875,8.141348447265624,12.622328046875Q8.211383447265625,12.636258046875,8.277353447265625,12.663588046875Q8.343324447265624,12.690948046875,8.402696447265624,12.730548046875Q8.462068447265626,12.770248046875,8.512560447265624,12.820748046875Q8.563052447265624,12.871248046875,8.602723447265625,12.930648046875Q8.642395447265624,12.989948046875,8.669721447265625,13.055948046875Q8.697047447265625,13.121948046875,8.710977447265625,13.191948046875Q8.724908447265625,13.261948046875,8.724908447265625,13.333448046875ZM8.724908447265625,2.666748046875Q8.724908447265625,2.738154346875,8.710977447265625,2.8081880468750002Q8.697047447265625,2.878223046875,8.669721447265625,2.944193046875Q8.642395447265624,3.010164046875,8.602723447265625,3.069536046875Q8.563052447265624,3.128908046875,8.512560447265624,3.179400046875Q8.462068447265626,3.229892046875,8.402696447265624,3.269563046875Q8.343324447265624,3.309235046875,8.277353447265625,3.336561046875Q8.211383447265625,3.363887046875,8.141348447265624,3.377817046875Q8.071314747265625,3.391748046875,7.999908447265625,3.391748046875Q7.928502147265625,3.391748046875,7.858468447265625,3.377817046875Q7.788433447265625,3.363887046875,7.722463447265625,3.336561046875Q7.656492447265625,3.309235046875,7.597120447265625,3.269563046875Q7.537748447265625,3.229892046875,7.487256447265625,3.179400046875Q7.436764447265625,3.128908046875,7.397093447265625,3.069536046875Q7.357421447265625,3.010164046875,7.3300954472656255,2.944193046875Q7.302769447265625,2.878223046875,7.288839447265625,2.8081880468750002Q7.274908447265625,2.738154346875,7.274908447265625,2.666748046875Q7.274908447265625,2.595341746875,7.288839447265625,2.5253080468749998Q7.302769447265625,2.455273046875,7.3300954472656255,2.389303046875Q7.357421447265625,2.323332046875,7.397093447265625,2.263960046875Q7.436764447265625,2.204588046875,7.487256447265625,2.154096046875Q7.537748447265625,2.103604046875,7.597120447265625,2.063933046875Q7.656492447265625,2.024261046875,7.722463447265625,1.996935046875Q7.788433447265625,1.969609046875,7.858468447265625,1.955679046875Q7.928502147265625,1.941748046875,7.999908447265625,1.941748046875Q8.071314747265625,1.941748046875,8.141348447265624,1.955679046875Q8.211383447265625,1.969609046875,8.277353447265625,1.996935046875Q8.343324447265624,2.024261046875,8.402696447265624,2.063933046875Q8.462068447265626,2.103604046875,8.512560447265624,2.154096046875Q8.563052447265624,2.204588046875,8.602723447265625,2.263960046875Q8.642395447265624,2.323332046875,8.669721447265625,2.389303046875Q8.697047447265625,2.455273046875,8.710977447265625,2.5253080468749998Q8.724908447265625,2.595341746875,8.724908447265625,2.666748046875Z" fill="#212121" fill-opacity="1"/></g><g><path d="M7.666581953125,8.727273L2.333251953125,8.727273Q2.261621853125,8.727273,2.191367953125,8.713298Q2.121113953125,8.699324,2.054936953125,8.671912Q1.988758953125,8.644501,1.929200953125,8.604705Q1.869642953125,8.56491,1.818992953125,8.514259Q1.768341953125,8.463609,1.728546953125,8.404051Q1.688750953125,8.344493,1.6613399531250002,8.278315Q1.6339279531250002,8.212138,1.619953953125,8.141884Q1.6059789531250002,8.0716301,1.6059789531250002,8Q1.6059789531250002,7.9283699,1.619953953125,7.858116Q1.6339279531250002,7.787862,1.6613399531250002,7.721685Q1.688750953125,7.655507,1.728546953125,7.595949Q1.768341953125,7.536391,1.818992953125,7.485741Q1.869642953125,7.43509,1.929200953125,7.395295Q1.988758953125,7.355499,2.054936953125,7.328088Q2.121113953125,7.300676,2.191367953125,7.286702Q2.261621853125,7.272727,2.333251953125,7.272727L7.666581953125,7.272727Q7.738211953125,7.272727,7.808471953125,7.286702Q7.878721953125,7.300676,7.944901953125,7.328088Q8.011081953125,7.355499,8.070631953125,7.395295Q8.130191953125,7.43509,8.180841953125,7.485741Q8.231491953125001,7.536391,8.271291953125,7.595949Q8.311081953125,7.655507,8.338491953125,7.721685Q8.365911953125,7.787862,8.379881953125,7.858116Q8.393851953125,7.9283699,8.393861953125,8Q8.393851953125,8.0716301,8.379881953125,8.141884Q8.365911953125,8.212138,8.338491953125,8.278315Q8.311081953125,8.344493,8.271291953125,8.404051Q8.231491953125001,8.463609,8.180841953125,8.514259Q8.130191953125,8.56491,8.070631953125,8.604705Q8.011071953125,8.644501,7.944901953125,8.671912Q7.878721953125,8.699324,7.808471953125,8.713298Q7.738211953125,8.727273,7.666581953125,8.727273ZM8.391581953125,8Q8.391581953125,8.0714063,8.377651953125,8.14144Q8.363721953125001,8.211475,8.336401953125,8.277445Q8.309071953124999,8.343416,8.269401953125,8.402788Q8.229731953125,8.46216,8.179231953125,8.512652Q8.128741953125001,8.563144,8.069371953125,8.602815Q8.010001953125,8.642487,7.944031953125,8.669813Q7.878061953125,8.697139,7.808021953125,8.711069Q7.737991953125,8.725,7.666581953125,8.725Q7.595181953125,8.725,7.525141953125,8.711069Q7.455111953125,8.697139,7.389141953125,8.669813Q7.323171953125,8.642487,7.263791953125,8.602815Q7.204421953125,8.563144,7.153931953125,8.512652Q7.103441953125,8.46216,7.063771953125,8.402788Q7.024101953125,8.343416,6.996771953125,8.277445Q6.969441953125,8.211475,6.955511953125,8.14144Q6.941581953125,8.0714063,6.941581953125,8Q6.941581953125,7.9285937,6.955511953125,7.85856Q6.969441953125,7.788525,6.996771953125,7.722555Q7.024101953125,7.656584,7.063771953125,7.597212Q7.103441953125,7.53784,7.153931953125,7.487348Q7.204421953125,7.436856,7.263791953125,7.397185Q7.323171953125,7.357513,7.389141953125,7.3301870000000005Q7.455111953125,7.302861,7.525141953125,7.288931Q7.595181953125,7.275,7.666581953125,7.275Q7.737991953125,7.275,7.808021953125,7.288931Q7.878061953125,7.302861,7.944031953125,7.3301870000000005Q8.010001953125,7.357513,8.069371953125,7.397185Q8.128741953125001,7.436856,8.179231953125,7.487348Q8.229731953125,7.53784,8.269401953125,7.597212Q8.309071953124999,7.656584,8.336391953125,7.722555Q8.363721953125001,7.788525,8.377651953125,7.85856Q8.391581953125,7.9285937,8.391581953125,8ZM3.058251953125,8Q3.058251953125,8.0714063,3.044320953125,8.14144Q3.030390953125,8.211475,3.003064953125,8.277445Q2.975738953125,8.343416,2.936066953125,8.402788Q2.896395953125,8.46216,2.845903953125,8.512652Q2.795411953125,8.563144,2.736039953125,8.602815Q2.676667953125,8.642487,2.610696953125,8.669813Q2.544726953125,8.697139,2.4746919531250002,8.711069Q2.404658253125,8.725,2.333251953125,8.725Q2.261845653125,8.725,2.1918119531249998,8.711069Q2.121776953125,8.697139,2.055806953125,8.669813Q1.989835953125,8.642487,1.930463953125,8.602815Q1.871091953125,8.563144,1.820599953125,8.512652Q1.7701079531250001,8.46216,1.730436953125,8.402788Q1.690764953125,8.343416,1.663438953125,8.277445Q1.636112953125,8.211475,1.622182953125,8.14144Q1.608251953125,8.0714063,1.608251953125,8Q1.608251953125,7.9285937,1.622182953125,7.85856Q1.636112953125,7.788525,1.663438953125,7.722555Q1.690764953125,7.656584,1.730436953125,7.597212Q1.7701079531250001,7.53784,1.820599953125,7.487348Q1.871091953125,7.436856,1.930463953125,7.397185Q1.989835953125,7.357513,2.055806953125,7.3301870000000005Q2.121776953125,7.302861,2.1918119531249998,7.288931Q2.261845653125,7.275,2.333251953125,7.275Q2.404658253125,7.275,2.4746919531250002,7.288931Q2.544726953125,7.302861,2.610696953125,7.3301870000000005Q2.676667953125,7.357513,2.736039953125,7.397185Q2.795411953125,7.436856,2.845903953125,7.487348Q2.896395953125,7.53784,2.936066953125,7.597212Q2.975738953125,7.656584,3.003064953125,7.722555Q3.030390953125,7.788525,3.044320953125,7.85856Q3.058251953125,7.9285937,3.058251953125,8Z" fill="#212121" fill-opacity="1"/></g><g><path d="M9.939383494140625,13.33333L9.939383494140625,8Q9.939383494140625,7.9283699,9.953358494140625,7.858116Q9.967332494140624,7.787862,9.994744494140624,7.721685Q10.022155494140625,7.655507,10.061951494140626,7.595949Q10.101746494140626,7.536391,10.152397494140626,7.485741Q10.203047494140625,7.43509,10.262605494140624,7.395295Q10.322163494140625,7.355499,10.388341494140626,7.328088Q10.454518494140626,7.300676,10.524772494140626,7.286702Q10.595026394140625,7.272727,10.666656494140625,7.272727Q10.738286594140625,7.272727,10.808540494140624,7.286702Q10.878794494140624,7.300676,10.944971494140624,7.328088Q11.011149494140625,7.355499,11.070707494140626,7.395295Q11.130265494140625,7.43509,11.180915494140624,7.485741Q11.231566494140624,7.536391,11.271361494140624,7.595949Q11.311157494140625,7.655507,11.338568494140626,7.721685Q11.365980494140626,7.787862,11.379954494140625,7.858116Q11.393929494140625,7.9283699,11.393929494140625,8L11.393929494140625,13.33333Q11.393929494140625,13.404959999999999,11.379954494140625,13.47522Q11.365980494140626,13.54547,11.338568494140626,13.611650000000001Q11.311157494140625,13.67783,11.271361494140624,13.73738Q11.231566494140624,13.79694,11.180915494140624,13.84759Q11.130265494140625,13.898240000000001,11.070707494140626,13.93804Q11.011149494140625,13.97783,10.944971494140624,14.00524Q10.878794494140624,14.03266,10.808540494140624,14.04663Q10.738286594140625,14.0606,10.666656494140625,14.06061Q10.595026394140625,14.0606,10.524772494140626,14.04663Q10.454518494140626,14.03266,10.388341494140626,14.00524Q10.322163494140625,13.97783,10.262605494140624,13.93804Q10.203047494140625,13.898240000000001,10.152397494140626,13.84759Q10.101746494140626,13.79694,10.061951494140626,13.73738Q10.022155494140625,13.67782,9.994744494140624,13.611650000000001Q9.967332494140624,13.54547,9.953358494140625,13.47522Q9.939383494140625,13.404959999999999,9.939383494140625,13.33333ZM11.391656494140625,13.33333Q11.391656494140625,13.40474,11.377725494140625,13.47477Q11.363795494140625,13.54481,11.336469494140625,13.61078Q11.309143494140624,13.67675,11.269471494140625,13.73612Q11.229800494140624,13.795490000000001,11.179308494140624,13.84598Q11.128816494140626,13.89648,11.069444494140624,13.93615Q11.010072494140624,13.975819999999999,10.944101494140625,14.00314Q10.878131494140625,14.030470000000001,10.808096494140624,14.0444Q10.738062794140625,14.05833,10.666656494140625,14.05833Q10.595250194140625,14.05833,10.525216494140626,14.0444Q10.455181494140625,14.030470000000001,10.389211494140625,14.00315Q10.323240494140626,13.975819999999999,10.263868494140626,13.93615Q10.204496494140624,13.89648,10.154004494140626,13.84598Q10.103512494140626,13.795490000000001,10.063841494140625,13.73612Q10.024169494140626,13.67675,9.996843494140625,13.61078Q9.969517494140625,13.54481,9.955587494140625,13.47477Q9.941656494140625,13.40474,9.941656494140625,13.33333Q9.941656494140625,13.26193,9.955587494140625,13.19189Q9.969517494140625,13.12186,9.996843494140625,13.05589Q10.024169494140626,12.98992,10.063841494140625,12.93054Q10.103512494140626,12.87117,10.154004494140626,12.82068Q10.204496494140624,12.77019,10.263868494140626,12.73052Q10.323240494140626,12.690850000000001,10.389211494140625,12.66352Q10.455181494140625,12.63619,10.525216494140626,12.62226Q10.595250194140625,12.608329999999999,10.666656494140625,12.608329999999999Q10.738062794140625,12.608329999999999,10.808096494140624,12.62226Q10.878131494140625,12.63619,10.944101494140625,12.66352Q11.010072494140624,12.690850000000001,11.069444494140624,12.73052Q11.128816494140626,12.77019,11.179308494140624,12.82068Q11.229800494140624,12.87117,11.269471494140625,12.93054Q11.309143494140624,12.98992,11.336469494140625,13.05589Q11.363795494140625,13.12186,11.377725494140625,13.19189Q11.391656494140625,13.26193,11.391656494140625,13.33333ZM11.391656494140625,8Q11.391656494140625,8.0714063,11.377725494140625,8.14144Q11.363795494140625,8.211475,11.336469494140625,8.277445Q11.309143494140624,8.343416,11.269471494140625,8.402788Q11.229800494140624,8.46216,11.179308494140624,8.512652Q11.128816494140626,8.563144,11.069444494140624,8.602815Q11.010072494140624,8.642487,10.944101494140625,8.669813Q10.878131494140625,8.697139,10.808096494140624,8.711069Q10.738062794140625,8.725,10.666656494140625,8.725Q10.595250194140625,8.725,10.525216494140626,8.711069Q10.455181494140625,8.697139,10.389211494140625,8.669813Q10.323240494140626,8.642487,10.263868494140626,8.602815Q10.204496494140624,8.563144,10.154004494140626,8.512652Q10.103512494140626,8.46216,10.063841494140625,8.402788Q10.024169494140626,8.343416,9.996843494140625,8.277445Q9.969517494140625,8.211475,9.955587494140625,8.14144Q9.941656494140625,8.0714063,9.941656494140625,8Q9.941656494140625,7.9285937,9.955587494140625,7.85856Q9.969517494140625,7.788525,9.996843494140625,7.722555Q10.024169494140626,7.656584,10.063841494140625,7.597212Q10.103512494140626,7.53784,10.154004494140626,7.487348Q10.204496494140624,7.436856,10.263868494140626,7.397185Q10.323240494140626,7.357513,10.389211494140625,7.3301870000000005Q10.455181494140625,7.302861,10.525216494140626,7.288931Q10.595250194140625,7.275,10.666656494140625,7.275Q10.738062794140625,7.275,10.808096494140624,7.288931Q10.878131494140625,7.302861,10.944101494140625,7.3301870000000005Q11.010072494140624,7.357513,11.069444494140624,7.397185Q11.128816494140626,7.436856,11.179308494140624,7.487348Q11.229800494140624,7.53784,11.269471494140625,7.597212Q11.309143494140624,7.656584,11.336469494140625,7.722555Q11.363795494140625,7.788525,11.377725494140625,7.85856Q11.391656494140625,7.9285937,11.391656494140625,8Z" fill="#212121" fill-opacity="1"/></g><g><path d="M13.272716494140624,13.337878046875L13.272716494140624,13.135838046875L13.272716494140624,10.341248046875Q13.272716494140624,9.944148046875,13.013936494140625,9.671258046875Q12.751026494140625,9.394021046875,12.333326494140625,9.394021046875Q11.923936494140625,9.394021046875,11.656104494140624,9.680328046875Q11.393929494140625,9.960598046874999,11.393929494140625,10.341248046875Q11.393929494140625,10.412878046875,11.379954494140625,10.483128046875Q11.365980494140626,10.553388046875,11.338568494140626,10.619558046875Q11.311157494140625,10.685738046875,11.271361494140624,10.745298046875Q11.231566494140624,10.804858046875001,11.180915494140624,10.855508046875Q11.130265494140625,10.906158046875,11.070707494140626,10.945948046875Q11.011149494140625,10.985748046874999,10.944971494140624,11.013158046875Q10.878794494140624,11.040568046875,10.808540494140624,11.054548046875Q10.738286594140625,11.068518046874999,10.666656494140625,11.068518046874999Q10.595026394140625,11.068518046874999,10.524772494140626,11.054548046875Q10.454518494140626,11.040568046875,10.388341494140626,11.013158046875Q10.322163494140625,10.985748046874999,10.262605494140624,10.945948046875Q10.203047494140625,10.906158046875,10.152397494140626,10.855508046875Q10.101747494140625,10.804858046875001,10.061951494140626,10.745298046875Q10.022156494140624,10.685738046875,9.994744494140624,10.619558046875Q9.967332494140624,10.553388046875,9.953358494140625,10.483128046875Q9.939384494140626,10.412878046875,9.939383494140625,10.341248046875Q9.939383494140625,9.386316046875,10.593875494140624,8.686664946875Q11.292836494140625,7.939475046875,12.333326494140625,7.939475046875Q13.376246494140625,7.939475046875,14.069376494140625,8.670384706875Q14.727266494140625,9.364136046875,14.727266494140625,10.341248046875L14.727266494140625,13.135838046875L14.727266494140625,13.337878046875Q14.727266494140625,13.409508046875,14.713286494140625,13.479768046875Q14.699316494140625,13.550018046875,14.671896494140626,13.616198046874999Q14.644486494140626,13.682368046875,14.604696494140626,13.741928046875Q14.564896494140624,13.801488046875,14.514246494140625,13.852138046875Q14.463596494140624,13.902788046875,14.404036494140625,13.942588046874999Q14.344486494140625,13.982378046874999,14.278306494140626,14.009788046875Q14.212126494140625,14.037198046875,14.141876494140625,14.051178046875Q14.071616494140624,14.065148046874999,13.999986494140625,14.065148046874999Q13.928356494140624,14.065148046874999,13.858106494140625,14.051178046875Q13.787856494140625,14.037198046875,13.721676494140624,14.009788046875Q13.655496494140625,13.982378046874999,13.595936494140625,13.942588046874999Q13.536376494140626,13.902788046875,13.485726494140625,13.852138046875Q13.435076494140624,13.801488046875,13.395286494140624,13.741928046875Q13.355486494140624,13.682368046875,13.328076494140625,13.616198046874999Q13.300666494140625,13.550018046875,13.286686494140625,13.479768046875Q13.272716494140624,13.409508046875,13.272716494140624,13.337878046875ZM14.724986494140625,13.337878046875Q14.724986494140625,13.409288046875,14.711056494140625,13.479318046875001Q14.697126494140626,13.549358046875,14.669806494140625,13.615328046875Q14.642476494140626,13.681298046875,14.602806494140625,13.740668046875001Q14.563136494140625,13.800038046874999,14.512636494140626,13.850528046874999Q14.462146494140626,13.901028046875,14.402776494140625,13.940698046875Q14.343406494140625,13.980368046875,14.277436494140625,14.007688046875Q14.211466494140625,14.035018046874999,14.141426494140624,14.048948046875001Q14.071396494140625,14.062878046875,13.999986494140625,14.062878046875Q13.928586494140625,14.062878046875,13.858546494140626,14.048948046875001Q13.788516494140625,14.035018046874999,13.722546494140625,14.007688046875Q13.656576494140625,13.980368046875,13.597196494140626,13.940698046875Q13.537826494140624,13.901028046875,13.487336494140624,13.850528046874999Q13.436846494140624,13.800038046874999,13.397176494140625,13.740668046875001Q13.357506494140626,13.681298046875,13.330176494140625,13.615328046875Q13.302846494140624,13.549358046875,13.288916494140626,13.479318046875001Q13.274986494140625,13.409288046875,13.274986494140625,13.337878046875Q13.274986494140625,13.266478046875001,13.288916494140626,13.196438046875Q13.302846494140624,13.126408046875,13.330176494140625,13.060438046875Q13.357506494140626,12.994458046875,13.397176494140625,12.935088046875Q13.436846494140624,12.875718046875,13.487336494140624,12.825228046875Q13.537826494140624,12.774738046875001,13.597196494140626,12.735068046875Q13.656576494140625,12.695398046874999,13.722546494140625,12.668068046875Q13.788516494140625,12.640738046875,13.858546494140626,12.626808046875Q13.928586494140625,12.612878046875,13.999986494140625,12.612878046875Q14.071396494140625,12.612878046875,14.141426494140624,12.626808046875Q14.211466494140625,12.640738046875,14.277436494140625,12.668068046875Q14.343406494140625,12.695398046874999,14.402776494140625,12.735068046875Q14.462146494140626,12.774738046875001,14.512646494140625,12.825228046875Q14.563136494140625,12.875718046875,14.602806494140625,12.935088046875Q14.642476494140626,12.994458046875,14.669806494140625,13.060438046875Q14.697126494140626,13.126408046875,14.711056494140625,13.196438046875Q14.724986494140625,13.266478046875001,14.724986494140625,13.337878046875ZM11.391656494140625,10.341248046875Q11.391656494140625,10.412658046875,11.377725494140625,10.482688046875Q11.363795494140625,10.552718046875,11.336469494140625,10.618688046875Q11.309143494140624,10.684668046875,11.269471494140625,10.744038046875Q11.229800494140624,10.803408046875,11.179308494140624,10.853898046874999Q11.128816494140626,10.904388046874999,11.069444494140624,10.944058046875Q11.010072494140624,10.983738046875,10.944101494140625,11.011058046875Q10.878131494140625,11.038388046875,10.808096494140624,11.052318046875Q10.738062794140625,11.066248046875,10.666656494140625,11.066248046875Q10.595250194140625,11.066248046875,10.525216494140626,11.052318046875Q10.455181494140625,11.038388046875,10.389211494140625,11.011058046875Q10.323240494140626,10.983738046875,10.263868494140626,10.944058046875Q10.204496494140624,10.904388046874999,10.154004494140626,10.853898046874999Q10.103512494140626,10.803408046875,10.063841494140625,10.744038046875Q10.024169494140626,10.684668046875,9.996843494140625,10.618688046875Q9.969517494140625,10.552718046875,9.955587494140625,10.482688046875Q9.941656494140625,10.412658046875,9.941656494140625,10.341248046875Q9.941656494140625,10.269838046875,9.955587494140625,10.199808046875Q9.969517494140625,10.129768046875,9.996843494140625,10.063798046875Q10.024169494140626,9.997828046875,10.063841494140625,9.938458046875Q10.103512494140626,9.879088046875,10.154004494140626,9.828598046875Q10.204496494140624,9.778108046875,10.263868494140626,9.738428046875Q10.323240494140626,9.698758046875,10.389211494140625,9.671438046875Q10.455181494140625,9.644109046875,10.525216494140626,9.630178046875Q10.595250194140625,9.616248046875,10.666656494140625,9.616248046875Q10.738062794140625,9.616248046875,10.808096494140624,9.630178046875Q10.878131494140625,9.644109046875,10.944101494140625,9.671438046875Q11.010072494140624,9.698758046875,11.069444494140624,9.738428046875Q11.128816494140626,9.778108046875,11.179308494140624,9.828598046875Q11.229800494140624,9.879088046875,11.269471494140625,9.938458046875Q11.309143494140624,9.997828046875,11.336469494140625,10.063798046875Q11.363795494140625,10.129768046875,11.377725494140625,10.199808046875Q11.391656494140625,10.269838046875,11.391656494140625,10.341248046875Z" fill="#212121" fill-opacity="1"/></g></g></svg>