<svg xmlns="http://www.w3.org/2000/svg" xmlns:xlink="http://www.w3.org/1999/xlink" fill="none" version="1.1" width="16" height="16" viewBox="0 0 16 16"><g style="mix-blend-mode:passthrough"><g><rect x="0" y="0" width="16" height="16" rx="0" fill="#FFFFFF" fill-opacity="0.009999999776482582"/></g><g><g><path d="M1.00014208203125,2.666667Q1.00014208203125,2.114382,1.39066708203125,1.723858Q1.78119108203125,1.333333,2.33347608203125,1.333333L13.66680908203125,1.333333Q14.21910908203125,1.333333,14.60960908203125,1.723858Q15.00010908203125,2.114382,15.00010908203125,2.666667L15.00010908203125,13.3333Q15.00010908203125,13.8856,14.60960908203125,14.2761Q14.21910908203125,14.6667,13.66680908203125,14.6667L2.33347608203125,14.6667Q1.78119108203125,14.6667,1.39066608203125,14.2761Q1.00014208203125,13.8856,1.00014208203125,13.3333L1.00014208203125,2.666667ZM2.33347608203125,2.666667L2.33347608203125,13.3333L2.33347608203125,13.3333L13.66680908203125,13.3333L13.66680908203125,13.3333L13.66680908203125,2.666667Q13.66680908203125,2.666667,13.66680908203125,2.666667L2.33347608203125,2.666667Q2.33347608203125,2.666667,2.33347608203125,2.666667Z" fill="#212121" fill-opacity="1"/></g><g><ellipse cx="4.83331298828125" cy="5.5" rx="0.5" ry="0.5" fill-opacity="0" stroke-opacity="1" stroke="#212121" fill="none" stroke-width="1.3333332538604736" stroke-linecap="ROUND" stroke-linejoin="round"/></g><g><path d="M1.25034608203125,10.812838046875001L4.583679082031249,8.146169046875Q4.6276890820312495,8.110960046875,4.67698908203125,8.083639046875Q4.726289082031251,8.056319046875,4.77946908203125,8.037662046875Q4.83265908203125,8.019006046875,4.8882190820312506,8.009544046875Q4.94377908203125,8.000081046875,5.00013908203125,8.000081046875Q5.0565090820312495,8.000081046875,5.11206908203125,8.009544046875Q5.16762908203125,8.019006046875,5.22080908203125,8.037662046875Q5.27399908203125,8.056319046875,5.32329908203125,8.083639046875Q5.37259908203125,8.110960046875,5.4166090820312505,8.146169046875L7.08326908203125,9.479498046875L6.66680908203125,10.000078046875L6.16063908203125,9.566218046875L8.160639082031249,7.232887046875Q8.199689082031249,7.187321046875,8.24625908203125,7.149462046875Q8.29282908203125,7.111604046875,8.34540908203125,7.082671046875Q8.39798908203125,7.053738046875,8.45488908203125,7.034661046875Q8.51178908203125,7.015583046875,8.57118908203125,7.006975046875Q8.63057908203125,6.998367046875,8.69055908203125,7.000505046875Q8.75052908203125,7.002642046875,8.80915908203125,7.015457046875Q8.867789082031251,7.028272046875,8.92318908203125,7.0513520468749995Q8.978589082031249,7.074432046875,9.028979082031249,7.107035046875L14.69560908203125,10.773698046875Q14.76570908203125,10.819048046875,14.82250908203125,10.880278046875Q14.87920908203125,10.941498046875001,14.91910908203125,11.014828046875Q14.95900908203125,11.088148046875,14.97960908203125,11.169048046875Q15.00010908203125,11.249938046875,15.00010908203125,11.333418046875L15.00010908203125,13.333418046875Q15.00010908203125,13.885698046875,14.60960908203125,14.276228046875Q14.21910908203125,14.666748046875,13.66680908203125,14.666748046875L2.33347608203125,14.666748046875Q1.78119108203125,14.666748046875,1.39066708203125,14.276228046875Q1.00014208203125,13.885698046875,1.00014208203125,13.333418046875L1.00014208203125,11.333418046875Q1.00014208203125,11.181518046875,1.0659400820312501,11.044618046875Q1.1317380820312501,10.907718046875,1.25034608203125,10.812838046875001ZM2.0832720820312502,11.853998046874999L1.66680908203125,11.333418046875L2.33347608203125,11.333418046875L2.33347608203125,13.333418046875L2.33347608203125,13.333418046875L13.66680908203125,13.333418046875L13.66680908203125,13.333418046875L13.66680908203125,11.333418046875L14.33350908203125,11.333418046875L13.97130908203125,11.893128046874999L8.304639082031251,8.226461046875L8.66680908203125,7.666748046875L9.172979082031251,8.100609046875L7.17297908203125,10.433938046875Q7.13117908203125,10.482718046875,7.08082908203125,10.522608046875Q7.03047908203125,10.562498046875,6.97343908203125,10.592048046875Q6.91640908203125,10.621588046875,6.85477908203125,10.639698046875Q6.79314908203125,10.657808046875001,6.72918908203125,10.663818046875Q6.66523908203125,10.669838046875,6.60131908203125,10.663528046875001Q6.53738908203125,10.657208046875,6.47584908203125,10.638808046874999Q6.41429908203125,10.620408046875,6.35739908203125,10.590598046875Q6.30050908203125,10.560788046875,6.25034908203125,10.520658046874999L4.583679082031249,9.187328046875L5.00013908203125,8.666748046875L5.4166090820312505,9.187328046875L2.0832720820312502,11.853998046874999Z" fill="#212121" fill-opacity="1"/></g></g></g></svg>