<svg xmlns="http://www.w3.org/2000/svg" xmlns:xlink="http://www.w3.org/1999/xlink" fill="none" version="1.1" width="16" height="16" viewBox="0 0 16 16"><defs><clipPath id="master_svg0_346_2624"><rect x="0" y="0" width="16" height="16" rx="0"/></clipPath></defs><g clip-path="url(#master_svg0_346_2624)"><g><path d="M12.000078046875,2.727273L6.666748046875,2.727273Q6.595117946875,2.727273,6.524864046875,2.713298Q6.454610046875,2.699324,6.388433046875,2.671912Q6.322255046875,2.644501,6.262697046875,2.604705Q6.203139046875,2.5649100000000002,6.152489046875,2.514259Q6.101838046875,2.463609,6.062043046875,2.404051Q6.022247046875,2.344493,5.994836046875,2.278315Q5.967424046875,2.212138,5.953450046875,2.141884Q5.939475046875,2.0716301,5.939475046875,2Q5.939475046875,1.9283699,5.953450046875,1.8581159999999999Q5.967424046875,1.787862,5.994836046875,1.721685Q6.022247046875,1.655507,6.062043046875,1.595949Q6.101838046875,1.536391,6.152489046875,1.485741Q6.203139046875,1.43509,6.262697046875,1.395295Q6.322255046875,1.355499,6.388433046875,1.3280880000000002Q6.454610046875,1.3006760000000002,6.524864046875,1.286702Q6.595117946875,1.2727270000000002,6.666748046875,1.2727270000000002L12.000078046875,1.2727270000000002Q12.071708046874999,1.2727270000000002,12.141968046875,1.286702Q12.212218046875,1.3006760000000002,12.278398046875001,1.3280880000000002Q12.344578046875,1.355499,12.404128046875,1.395295Q12.463688046875,1.43509,12.514338046875,1.485741Q12.564988046875001,1.536391,12.604788046875,1.595949Q12.644578046875,1.655507,12.671988046875,1.721685Q12.699408046875,1.787862,12.713378046875,1.8581159999999999Q12.727348046875,1.9283699,12.727358046875,2Q12.727348046875,2.0716301,12.713378046875,2.141884Q12.699408046875,2.212138,12.671988046875,2.278315Q12.644578046875,2.344493,12.604788046875,2.404051Q12.564988046875001,2.463609,12.514338046875,2.514259Q12.463688046875,2.5649100000000002,12.404128046875,2.604705Q12.344568046875,2.644501,12.278398046875001,2.671912Q12.212218046875,2.699324,12.141968046875,2.713298Q12.071708046874999,2.727273,12.000078046875,2.727273ZM12.725078046875,2Q12.725078046875,2.0714063,12.711148046875,2.1414400000000002Q12.697218046875001,2.211475,12.669898046875,2.277445Q12.642568046874999,2.343416,12.602898046875,2.402788Q12.563228046875,2.46216,12.512728046875,2.512652Q12.462238046875001,2.563144,12.402868046875,2.602815Q12.343498046875,2.642487,12.277528046875,2.669813Q12.211558046875,2.697139,12.141518046875,2.711069Q12.071488046875,2.725,12.000078046875,2.725Q11.928678046875,2.725,11.858638046875,2.711069Q11.788608046875,2.697139,11.722638046875,2.669813Q11.656668046875,2.642487,11.597288046875,2.602815Q11.537918046875,2.563144,11.487428046875,2.512652Q11.436938046875,2.46216,11.397268046875,2.402788Q11.357598046875001,2.343416,11.330268046875,2.277445Q11.302938046875,2.211475,11.289008046875,2.1414400000000002Q11.275078046874999,2.0714063,11.275078046874999,2Q11.275078046874999,1.9285937,11.289008046875,1.85856Q11.302938046875,1.788525,11.330268046875,1.722555Q11.357598046875001,1.656584,11.397268046875,1.597212Q11.436938046875,1.53784,11.487428046875,1.487348Q11.537918046875,1.4368560000000001,11.597288046875,1.397185Q11.656668046875,1.357513,11.722638046875,1.330187Q11.788608046875,1.302861,11.858638046875,1.288931Q11.928678046875,1.275,12.000078046875,1.275Q12.071488046875,1.275,12.141518046875,1.288931Q12.211558046875,1.302861,12.277528046875,1.330187Q12.343498046875,1.357513,12.402868046875,1.397185Q12.462238046875001,1.4368560000000001,12.512728046875,1.487348Q12.563228046875,1.53784,12.602898046875,1.597212Q12.642568046874999,1.656584,12.669888046875,1.722555Q12.697218046875001,1.788525,12.711148046875,1.85856Q12.725078046875,1.9285937,12.725078046875,2ZM7.391748046875,2Q7.391748046875,2.0714063,7.377817046875,2.1414400000000002Q7.363887046875,2.211475,7.3365610468749995,2.277445Q7.309235046875,2.343416,7.269563046875,2.402788Q7.229892046875,2.46216,7.179400046875,2.512652Q7.128908046875,2.563144,7.069536046875,2.602815Q7.010164046875,2.642487,6.944193046875,2.669813Q6.878223046875,2.697139,6.808188046875,2.711069Q6.738154346875,2.725,6.666748046875,2.725Q6.595341746875,2.725,6.525308046875,2.711069Q6.455273046875,2.697139,6.389303046875,2.669813Q6.323332046875,2.642487,6.263960046875,2.602815Q6.204588046875,2.563144,6.154096046875,2.512652Q6.103604046875,2.46216,6.063933046875,2.402788Q6.024261046875,2.343416,5.9969350468750005,2.277445Q5.969609046875,2.211475,5.955679046875,2.1414400000000002Q5.941748046875,2.0714063,5.941748046875,2Q5.941748046875,1.9285937,5.955679046875,1.85856Q5.969609046875,1.788525,5.9969350468750005,1.722555Q6.024261046875,1.656584,6.063933046875,1.597212Q6.103604046875,1.53784,6.154096046875,1.487348Q6.204588046875,1.4368560000000001,6.263960046875,1.397185Q6.323332046875,1.357513,6.389303046875,1.330187Q6.455273046875,1.302861,6.525308046875,1.288931Q6.595341746875,1.275,6.666748046875,1.275Q6.738154346875,1.275,6.808188046875,1.288931Q6.878223046875,1.302861,6.944193046875,1.330187Q7.010164046875,1.357513,7.069536046875,1.397185Q7.128908046875,1.4368560000000001,7.179400046875,1.487348Q7.229892046875,1.53784,7.269563046875,1.597212Q7.309235046875,1.656584,7.3365610468749995,1.722555Q7.363887046875,1.788525,7.377817046875,1.85856Q7.391748046875,1.9285937,7.391748046875,2Z" fill="#212121" fill-opacity="1"/></g><g><path d="M9.333421552734375,14.727273L4.000091552734375,14.727273Q3.928461452734375,14.727273,3.858207552734375,14.713298Q3.787953552734375,14.699324,3.721776552734375,14.671912Q3.655598552734375,14.644501,3.596040552734375,14.604705Q3.536482552734375,14.56491,3.485832552734375,14.514259Q3.4351815527343748,14.463609,3.395386552734375,14.404051Q3.355590552734375,14.344493,3.328179552734375,14.278315Q3.300767552734375,14.212138,3.286793552734375,14.141884Q3.272818552734375,14.0716301,3.272818552734375,14Q3.272818552734375,13.9283699,3.286793552734375,13.858116Q3.300767552734375,13.787862,3.328179552734375,13.721685Q3.355590552734375,13.655507,3.395386552734375,13.595949Q3.4351815527343748,13.536391,3.485832552734375,13.485741Q3.536482552734375,13.43509,3.596040552734375,13.395295Q3.655598552734375,13.355499,3.721776552734375,13.328088Q3.787953552734375,13.300676,3.858207552734375,13.286702Q3.928461452734375,13.272727,4.000091552734375,13.272727L9.333421552734375,13.272727Q9.405051552734374,13.272727,9.475311552734375,13.286702Q9.545561552734375,13.300676,9.611741552734376,13.328088Q9.677921552734375,13.355499,9.737471552734375,13.395295Q9.797031552734374,13.43509,9.847681552734375,13.485741Q9.898331552734376,13.536391,9.938131552734376,13.595949Q9.977921552734376,13.655507,10.005331552734376,13.721685Q10.032751552734375,13.787862,10.046721552734375,13.858116Q10.060691552734376,13.9283699,10.060701552734375,14Q10.060691552734376,14.0716301,10.046721552734375,14.141884Q10.032751552734375,14.212138,10.005331552734376,14.278315Q9.977921552734376,14.344493,9.938131552734376,14.404051Q9.898331552734376,14.463609,9.847681552734375,14.514259Q9.797031552734374,14.56491,9.737471552734375,14.604705Q9.677911552734376,14.644501,9.611741552734376,14.671912Q9.545561552734375,14.699324,9.475311552734375,14.713298Q9.405051552734374,14.727273,9.333421552734375,14.727273ZM10.058421552734375,14Q10.058421552734375,14.0714063,10.044491552734375,14.14144Q10.030561552734376,14.211475,10.003241552734375,14.277445Q9.975911552734374,14.343416,9.936241552734375,14.402788Q9.896571552734375,14.46216,9.846071552734376,14.512652Q9.795581552734376,14.563144,9.736211552734375,14.602815Q9.676841552734375,14.642487,9.610871552734375,14.669813Q9.544901552734375,14.697139,9.474861552734374,14.711069Q9.404831552734375,14.725,9.333421552734375,14.725Q9.262021552734375,14.725,9.191981552734376,14.711069Q9.121951552734375,14.697139,9.055981552734375,14.669813Q8.990011552734375,14.642487,8.930631552734376,14.602815Q8.871261552734374,14.563144,8.820771552734374,14.512652Q8.770281552734374,14.46216,8.730611552734375,14.402788Q8.690941552734376,14.343416,8.663611552734375,14.277445Q8.636281552734374,14.211475,8.622351552734376,14.14144Q8.608421552734374,14.0714063,8.608421552734374,14Q8.608421552734374,13.9285937,8.622351552734376,13.85856Q8.636281552734374,13.788525,8.663611552734375,13.722555Q8.690941552734376,13.656584,8.730611552734375,13.597212Q8.770281552734374,13.53784,8.820771552734374,13.487348Q8.871261552734374,13.436856,8.930631552734376,13.397185Q8.990011552734375,13.357513,9.055981552734375,13.330187Q9.121951552734375,13.302861,9.191981552734376,13.288931Q9.262021552734375,13.275,9.333421552734375,13.275Q9.404831552734375,13.275,9.474861552734374,13.288931Q9.544901552734375,13.302861,9.610871552734375,13.330187Q9.676841552734375,13.357513,9.736211552734375,13.397185Q9.795581552734376,13.436856,9.846071552734376,13.487348Q9.896571552734375,13.53784,9.936241552734375,13.597212Q9.975911552734374,13.656584,10.003231552734375,13.722555Q10.030561552734376,13.788525,10.044491552734375,13.85856Q10.058421552734375,13.9285937,10.058421552734375,14ZM4.725091552734375,14Q4.725091552734375,14.0714063,4.711160552734375,14.14144Q4.697230552734375,14.211475,4.6699045527343745,14.277445Q4.642578552734375,14.343416,4.602906552734375,14.402788Q4.563235552734375,14.46216,4.512743552734375,14.512652Q4.462251552734375,14.563144,4.402879552734375,14.602815Q4.343507552734375,14.642487,4.277536552734375,14.669813Q4.211566552734375,14.697139,4.141531552734375,14.711069Q4.071497852734375,14.725,4.000091552734375,14.725Q3.928685252734375,14.725,3.8586515527343748,14.711069Q3.788616552734375,14.697139,3.722646552734375,14.669813Q3.656675552734375,14.642487,3.597303552734375,14.602815Q3.537931552734375,14.563144,3.487439552734375,14.512652Q3.436947552734375,14.46216,3.397276552734375,14.402788Q3.357604552734375,14.343416,3.330278552734375,14.277445Q3.302952552734375,14.211475,3.289022552734375,14.14144Q3.275091552734375,14.0714063,3.275091552734375,14Q3.275091552734375,13.9285937,3.289022552734375,13.85856Q3.302952552734375,13.788525,3.330278552734375,13.722555Q3.357604552734375,13.656584,3.397276552734375,13.597212Q3.436947552734375,13.53784,3.487439552734375,13.487348Q3.537931552734375,13.436856,3.597303552734375,13.397185Q3.656675552734375,13.357513,3.722646552734375,13.330187Q3.788616552734375,13.302861,3.8586515527343748,13.288931Q3.928685252734375,13.275,4.000091552734375,13.275Q4.071497852734375,13.275,4.141531552734375,13.288931Q4.211566552734375,13.302861,4.277536552734375,13.330187Q4.343507552734375,13.357513,4.402879552734375,13.397185Q4.462251552734375,13.436856,4.512743552734375,13.487348Q4.563235552734375,13.53784,4.602906552734375,13.597212Q4.642578552734375,13.656584,4.6699045527343745,13.722555Q4.697230552734375,13.788525,4.711160552734375,13.85856Q4.725091552734375,13.9285937,4.725091552734375,14Z" fill="#212121" fill-opacity="1"/></g><g><path d="M5.63250698828125,13.805630859375L8.96584298828125,1.7897198593749999Q8.98498298828125,1.7206958593750001,9.01723298828125,1.656734859375Q9.04948298828125,1.5927728593750001,9.09358298828125,1.536330859375Q9.13768298828125,1.479889859375,9.19195298828125,1.433136859375Q9.24622298828125,1.386383859375,9.30857298828125,1.3511158593750001Q9.37091298828125,1.315848859375,9.43894298828125,1.2934228593750001Q9.50697298828125,1.2709958593750001,9.57807298828125,1.262271859375Q9.64917298828125,1.253547859375,9.72060298828125,1.258862859375Q9.79203298828125,1.264176859375,9.86105298828125,1.283324859375Q9.93008298828125,1.302471859375,9.994042988281251,1.334717859375Q10.058002988281249,1.366963859375,10.114442988281251,1.4110678593750001Q10.17088298828125,1.455172859375,10.21764298828125,1.509440859375Q10.26439298828125,1.563708859375,10.29966298828125,1.626055859375Q10.33492298828125,1.6884018593749999,10.35735298828125,1.756430859375Q10.37978298828125,1.824459859375,10.38850298828125,1.8955565593750001Q10.39722298828125,1.966653359375,10.39191298828125,2.038086059375Q10.38660298828125,2.109518859375,10.36745298828125,2.178541859375L7.03411898828125,14.194430859375Q7.01497198828125,14.263430859375,6.98272598828125,14.327430859375Q6.95047998828125,14.391330859375,6.90637598828125,14.447830859375Q6.86227098828125,14.504230859375,6.80800298828125,14.551030859375Q6.75373498828125,14.597730859375,6.69138798828125,14.633030859375Q6.62904198828125,14.668230859375,6.5610129882812505,14.690730859375Q6.49298398828125,14.713130859375,6.42188728828125,14.721830859375Q6.35079048828125,14.730630859375,6.27935778828125,14.725230859375Q6.20792498828125,14.719930859375,6.13890198828125,14.700830859375Q6.06987798828125,14.681630859375,6.00591698828125,14.649430859375Q5.94195498828125,14.617130859375,5.88551298828125,14.573030859375Q5.82907198828125,14.528930859375,5.78231898828125,14.474730859375Q5.73556598828125,14.420430859375,5.70029798828125,14.358030859375Q5.66503098828125,14.295730859375,5.64260498828125,14.227730859375Q5.62017798828125,14.159630859375,5.61145398828125,14.088530859375Q5.60272998828125,14.017430859375,5.60804498828125,13.946030859375Q5.6133589882812505,13.874630859375,5.63250698828125,13.805630859375ZM7.05831298828125,14.000030859375Q7.05831298828125,14.071430859375,7.04438198828125,14.141430859375Q7.03045198828125,14.211430859375,7.0031259882812495,14.277430859375Q6.97579998828125,14.343430859375,6.93612798828125,14.402830859375Q6.89645698828125,14.462130859375,6.84596498828125,14.512630859375Q6.79547298828125,14.563130859375,6.73610098828125,14.602830859375Q6.67672898828125,14.642530859375,6.61075798828125,14.669830859375Q6.54478798828125,14.697130859375,6.47475298828125,14.711030859375Q6.40471928828125,14.725030859375,6.33331298828125,14.725030859375Q6.26190668828125,14.725030859375,6.19187298828125,14.711030859375Q6.12183798828125,14.697130859375,6.05586798828125,14.669830859375Q5.98989698828125,14.642530859375,5.93052498828125,14.602830859375Q5.87115298828125,14.563130859375,5.82066098828125,14.512630859375Q5.77016898828125,14.462130859375,5.73049798828125,14.402830859375Q5.69082598828125,14.343430859375,5.6634999882812505,14.277430859375Q5.63617398828125,14.211430859375,5.62224398828125,14.141430859375Q5.60831298828125,14.071430859375,5.60831298828125,14.000030859375Q5.60831298828125,13.928630859375,5.62224398828125,13.858530859375Q5.63617398828125,13.788530859375,5.6634999882812505,13.722530859375Q5.69082598828125,13.656630859375,5.73049798828125,13.597230859375Q5.77016898828125,13.537830859375,5.82066098828125,13.487330859375Q5.87115298828125,13.436830859375,5.93052498828125,13.397230859375Q5.98989698828125,13.357530859375,6.05586798828125,13.330230859375Q6.12183798828125,13.302830859375,6.19187298828125,13.288930859375Q6.26190668828125,13.275030859375,6.33331298828125,13.275030859375Q6.40471928828125,13.275030859375,6.47475298828125,13.288930859375Q6.54478798828125,13.302830859375,6.61075798828125,13.330230859375Q6.67672898828125,13.357530859375,6.73610098828125,13.397230859375Q6.79547298828125,13.436830859375,6.84596498828125,13.487330859375Q6.89645698828125,13.537830859375,6.93612798828125,13.597230859375Q6.97579998828125,13.656630859375,7.0031259882812495,13.722530859375Q7.03045198828125,13.788530859375,7.04438198828125,13.858530859375Q7.05831298828125,13.928630859375,7.05831298828125,14.000030859375ZM10.39164298828125,1.984130859375Q10.39164298828125,2.055537159375,10.37771298828125,2.1255708593750002Q10.363782988281251,2.195605859375,10.33646298828125,2.261575859375Q10.30913298828125,2.327546859375,10.26946298828125,2.386918859375Q10.22979298828125,2.446290859375,10.17929298828125,2.496782859375Q10.128802988281251,2.547274859375,10.06943298828125,2.586945859375Q10.01006298828125,2.626617859375,9.94409298828125,2.653943859375Q9.87812298828125,2.681269859375,9.80808298828125,2.695199859375Q9.73805298828125,2.709130859375,9.66664298828125,2.709130859375Q9.59524298828125,2.709130859375,9.52520298828125,2.695199859375Q9.45517298828125,2.681269859375,9.38920298828125,2.653943859375Q9.32323298828125,2.626617859375,9.26385298828125,2.586945859375Q9.20448298828125,2.547274859375,9.15399298828125,2.496782859375Q9.10350298828125,2.446290859375,9.06383298828125,2.386918859375Q9.024162988281251,2.327546859375,8.99683298828125,2.261575859375Q8.96950298828125,2.195605859375,8.95557298828125,2.1255708593750002Q8.94164298828125,2.055537159375,8.94164298828125,1.984130859375Q8.94164298828125,1.912724559375,8.95557298828125,1.842690859375Q8.96950298828125,1.772655859375,8.99683298828125,1.706685859375Q9.024162988281251,1.640714859375,9.06383298828125,1.581342859375Q9.10350298828125,1.521970859375,9.15399298828125,1.471478859375Q9.20448298828125,1.4209868593750001,9.26385298828125,1.381315859375Q9.32323298828125,1.341643859375,9.38920298828125,1.314317859375Q9.45517298828125,1.286991859375,9.52520298828125,1.273061859375Q9.59524298828125,1.259130859375,9.66664298828125,1.259130859375Q9.73805298828125,1.259130859375,9.80808298828125,1.273061859375Q9.87812298828125,1.286991859375,9.94409298828125,1.314317859375Q10.01006298828125,1.341643859375,10.06943298828125,1.381315859375Q10.128802988281251,1.4209868593750001,10.17930298828125,1.471478859375Q10.22979298828125,1.521970859375,10.26946298828125,1.581342859375Q10.30913298828125,1.640714859375,10.33646298828125,1.706685859375Q10.363782988281251,1.772655859375,10.37771298828125,1.842690859375Q10.39164298828125,1.912724559375,10.39164298828125,1.984130859375Z" fill="#212121" fill-opacity="1"/></g></g></svg>