<svg xmlns="http://www.w3.org/2000/svg" xmlns:xlink="http://www.w3.org/1999/xlink" fill="none" version="1.1" width="16" height="16" viewBox="0 0 16 16"><defs><clipPath id="master_svg0_346_2626"><rect x="0" y="0" width="16" height="16" rx="0"/></clipPath></defs><g clip-path="url(#master_svg0_346_2626)"><g><path d="M14.333448046875,8.727273L1.666748046875,8.727273Q1.595117946875,8.727273,1.5248640468749999,8.713298Q1.454610046875,8.699324,1.388433046875,8.671912Q1.322255046875,8.644501,1.262697046875,8.604705Q1.203139046875,8.56491,1.152489046875,8.514259Q1.101838046875,8.463609,1.062043046875,8.404051Q1.022247046875,8.344493,0.994836046875,8.278315Q0.967424046875,8.212138,0.953450046875,8.141884Q0.939475046875,8.0716301,0.939475046875,8Q0.939475046875,7.9283699,0.953450046875,7.858116Q0.967424046875,7.787862,0.994836046875,7.721685Q1.022247046875,7.655507,1.062043046875,7.595949Q1.101838046875,7.536391,1.152489046875,7.485741Q1.203139046875,7.43509,1.262697046875,7.395295Q1.322255046875,7.355499,1.388433046875,7.328088Q1.454610046875,7.300676,1.5248640468749999,7.286702Q1.595117946875,7.272727,1.666748046875,7.272727L14.333448046875,7.272727Q14.405048046875,7.272727,14.475248046875,7.286702Q14.545548046875,7.300676,14.611748046875,7.328088Q14.677948046875,7.355499,14.737448046875,7.395295Q14.797048046875,7.43509,14.847648046875,7.485741Q14.898348046875,7.536391,14.938148046875,7.595949Q14.977948046875,7.655507,15.005348046875,7.721685Q15.032748046875,7.787862,15.046748046875,7.858116Q15.060648046875,7.9283699,15.060648046875,8Q15.060648046875,8.0716301,15.046748046875,8.141884Q15.032748046875,8.212138,15.005348046875,8.278315Q14.977948046875,8.344493,14.938148046875,8.404051Q14.898348046875,8.463609,14.847648046875,8.514259Q14.797048046875,8.56491,14.737448046875,8.604705Q14.677948046875,8.644501,14.611748046875,8.671912Q14.545548046875,8.699324,14.475248046875,8.713298Q14.405048046875,8.727273,14.333448046875,8.727273ZM15.058448046875,8Q15.058448046875,8.0714063,15.044448046875,8.14144Q15.030548046875,8.211475,15.003248046875,8.277445Q14.975948046875,8.343416,14.936248046875,8.402788Q14.896548046875,8.46216,14.846048046875,8.512652Q14.795548046875,8.563144,14.736248046875,8.602815Q14.676848046875,8.642487,14.610848046875,8.669813Q14.544848046875,8.697139,14.474848046875,8.711069Q14.404848046875,8.725,14.333448046875,8.725Q14.262048046875,8.725,14.191948046875,8.711069Q14.121948046875,8.697139,14.055948046875,8.669813Q13.989948046875,8.642487,13.930648046875,8.602815Q13.871248046875,8.563144,13.820748046875,8.512652Q13.770248046875,8.46216,13.730548046875,8.402788Q13.690948046875,8.343416,13.663648046875,8.277445Q13.636248046875,8.211475,13.622348046875,8.14144Q13.608448046875,8.0714063,13.608448046875,8Q13.608448046875,7.9285937,13.622348046875,7.85856Q13.636248046875,7.788525,13.663648046875,7.722555Q13.690948046875,7.656584,13.730548046875,7.597212Q13.770248046875,7.53784,13.820748046875,7.487348Q13.871248046875,7.436856,13.930648046875,7.397185Q13.989948046875,7.357513,14.055948046875,7.3301870000000005Q14.121948046875,7.302861,14.191948046875,7.288931Q14.262048046875,7.275,14.333448046875,7.275Q14.404848046875,7.275,14.474848046875,7.288931Q14.544848046875,7.302861,14.610848046875,7.3301870000000005Q14.676848046875,7.357513,14.736248046875,7.397185Q14.795548046875,7.436856,14.846048046875,7.487348Q14.896548046875,7.53784,14.936248046875,7.597212Q14.975948046875,7.656584,15.003248046875,7.722555Q15.030548046875,7.788525,15.044448046875,7.85856Q15.058448046875,7.9285937,15.058448046875,8ZM2.391748046875,8Q2.391748046875,8.0714063,2.377817046875,8.14144Q2.363887046875,8.211475,2.336561046875,8.277445Q2.309235046875,8.343416,2.269563046875,8.402788Q2.229892046875,8.46216,2.179400046875,8.512652Q2.128908046875,8.563144,2.069536046875,8.602815Q2.010164046875,8.642487,1.944193046875,8.669813Q1.878223046875,8.697139,1.808188046875,8.711069Q1.738154346875,8.725,1.666748046875,8.725Q1.595341746875,8.725,1.525308046875,8.711069Q1.455273046875,8.697139,1.389303046875,8.669813Q1.323332046875,8.642487,1.263960046875,8.602815Q1.204588046875,8.563144,1.154096046875,8.512652Q1.1036040468750001,8.46216,1.063933046875,8.402788Q1.024261046875,8.343416,0.996935046875,8.277445Q0.969609046875,8.211475,0.955679046875,8.14144Q0.941748046875,8.0714063,0.941748046875,8Q0.941748046875,7.9285937,0.955679046875,7.85856Q0.969609046875,7.788525,0.996935046875,7.722555Q1.024261046875,7.656584,1.063933046875,7.597212Q1.1036040468750001,7.53784,1.154096046875,7.487348Q1.204588046875,7.436856,1.263960046875,7.397185Q1.323332046875,7.357513,1.389303046875,7.3301870000000005Q1.455273046875,7.302861,1.525308046875,7.288931Q1.595341746875,7.275,1.666748046875,7.275Q1.738154346875,7.275,1.808188046875,7.288931Q1.878223046875,7.302861,1.944193046875,7.3301870000000005Q2.010164046875,7.357513,2.069536046875,7.397185Q2.128908046875,7.436856,2.179400046875,7.487348Q2.229892046875,7.53784,2.269563046875,7.597212Q2.309235046875,7.656584,2.336561046875,7.722555Q2.363887046875,7.788525,2.377817046875,7.85856Q2.391748046875,7.9285937,2.391748046875,8Z" fill="#212121" fill-opacity="1"/></g><g><path d="M4.70556,11.82362Q5.23448,13.93939,8,13.93939Q8.96724,13.93939,9.69571,13.34337Q10.38927,12.77592,10.53379,11.95694Q10.685870000000001,11.0952,10.125779999999999,10.30651Q9.41669,9.30799,7.74464,8.680969Q7.677569999999999,8.655817,7.61669,8.618065Q7.555820000000001,8.580312,7.50348,8.531409Q7.4511400000000005,8.482506,7.40935,8.424332Q7.36756,8.366158,7.33791,8.300948Q7.30827,8.235738,7.29192,8.165999Q7.27557,8.0962595,7.27314,8.0246706Q7.270709999999999,7.9530817,7.2823,7.882394Q7.29388,7.811707,7.31903,7.744638Q7.34418,7.677568,7.38194,7.616694Q7.41969,7.55582,7.46859,7.503481Q7.5174900000000004,7.451142,7.575670000000001,7.409349Q7.63384,7.367557,7.69905,7.337916Q7.76426,7.308275,7.834,7.291926Q7.90374,7.275577,7.97533,7.273147Q8.04692,7.2707180000000005,8.117609999999999,7.282301Q8.18829,7.293884,8.25536,7.3190349999999995Q10.34463,8.102509,11.31171,9.46433Q12.22399,10.74896,11.96621,12.20972Q11.727920000000001,13.56002,10.61679,14.46913Q9.486460000000001,15.39394,8,15.39394Q4.098789,15.39394,3.29444,12.17638Q3.277068,12.10689,3.273587,12.03534Q3.270106,11.963799999999999,3.280649,11.892949999999999Q3.291193,11.822099999999999,3.315356,11.75467Q3.339519,11.68723,3.376373,11.62581Q3.413227,11.56439,3.461356,11.51134Q3.509485,11.45829,3.567039,11.41564Q3.624593,11.373000000000001,3.6893599999999998,11.342410000000001Q3.754127,11.31181,3.823619,11.29444Q3.89311,11.27707,3.9646559,11.27359Q4.0362013,11.2701,4.107051,11.28065Q4.177901,11.29119,4.245333,11.31536Q4.312764,11.33952,4.374186,11.37637Q4.435608,11.41323,4.48866,11.461359999999999Q4.541711,11.50948,4.584354,11.56704Q4.626997,11.62459,4.657593,11.68936Q4.688188,11.75413,4.70556,11.82362ZM4.725,12Q4.725,12.07141,4.711069,12.14144Q4.697139,12.21147,4.6698129999999995,12.27744Q4.642487,12.34341,4.602815,12.40279Q4.563144,12.46216,4.512652,12.51265Q4.46216,12.56314,4.402788,12.60281Q4.343416,12.642489999999999,4.277445,12.66981Q4.211475,12.697140000000001,4.14144,12.71107Q4.0714063,12.725,4,12.725Q3.9285937,12.725,3.8585599999999998,12.71107Q3.788525,12.697140000000001,3.722555,12.66981Q3.656584,12.642489999999999,3.597212,12.60281Q3.53784,12.56314,3.487348,12.51265Q3.436856,12.46216,3.397185,12.40279Q3.357513,12.34342,3.330187,12.27744Q3.302861,12.21147,3.288931,12.14144Q3.275,12.07141,3.275,12Q3.275,11.92859,3.288931,11.85856Q3.302861,11.78852,3.330187,11.72255Q3.357513,11.65658,3.397185,11.59721Q3.436856,11.53784,3.487348,11.48735Q3.53784,11.43685,3.597212,11.39718Q3.656584,11.35751,3.722555,11.33019Q3.788525,11.302859999999999,3.8585599999999998,11.28893Q3.9285937,11.275,4,11.275Q4.0714063,11.275,4.14144,11.28893Q4.211475,11.302859999999999,4.277445,11.33019Q4.343416,11.35751,4.402788,11.39718Q4.46216,11.43685,4.512652,11.48735Q4.563144,11.53784,4.602815,11.59721Q4.642487,11.65658,4.6698129999999995,11.72255Q4.697139,11.78852,4.711069,11.85856Q4.725,11.92859,4.725,12ZM8.725,8Q8.725,8.0714063,8.71107,8.14144Q8.697140000000001,8.211475,8.66981,8.277445Q8.642489999999999,8.343416,8.60281,8.402788Q8.56314,8.46216,8.51265,8.512652Q8.46216,8.563144,8.40279,8.602815Q8.34342,8.642487,8.27744,8.669813Q8.21147,8.697139,8.14144,8.711069Q8.07141,8.725,8,8.725Q7.92859,8.725,7.858560000000001,8.711069Q7.78852,8.697139,7.72255,8.669813Q7.65658,8.642487,7.5972100000000005,8.602815Q7.53784,8.563144,7.48735,8.512652Q7.43685,8.46216,7.3971800000000005,8.402788Q7.3575099999999996,8.343416,7.33019,8.277445Q7.30286,8.211475,7.288930000000001,8.14144Q7.275,8.0714063,7.275,8Q7.275,7.9285937,7.288930000000001,7.85856Q7.30286,7.788525,7.33019,7.722555Q7.3575099999999996,7.656584,7.3971800000000005,7.597212Q7.43685,7.53784,7.48735,7.487348Q7.53784,7.436856,7.5972100000000005,7.397185Q7.65658,7.357513,7.72255,7.3301870000000005Q7.78852,7.302861,7.858560000000001,7.288931Q7.92859,7.275,8,7.275Q8.07141,7.275,8.14144,7.288931Q8.21147,7.302861,8.27744,7.3301870000000005Q8.34341,7.357513,8.40279,7.397185Q8.46216,7.436856,8.51265,7.487348Q8.56314,7.53784,8.60281,7.597212Q8.642489999999999,7.656584,8.66981,7.722555Q8.697140000000001,7.788525,8.71107,7.85856Q8.725,7.9285937,8.725,8Z" fill="#212121" fill-opacity="1"/></g><g><path d="M4.593931278125,6.397171953125Q3.977501578125,5.451851953125,3.905799578125,4.421151953124999Q3.834042578125,3.389651953125,4.318478578125,2.514351953125Q4.812284578125,1.6221229531249999,5.761327578125,1.119650953125Q6.731527578125,0.605979953125,7.999887578125,0.605979953125Q11.503937578125,0.605978953125,12.680867578125,3.744561953125Q12.706017578125,3.811631953125,12.717597578125,3.882321953125Q12.729177578125,3.953011953125,12.726747578125,4.024591953125Q12.724317578125,4.096181953125,12.707967578125,4.165921953125Q12.691617578125,4.235661953125,12.661977578125,4.300871953125Q12.632337578125,4.366081953125001,12.590537578125,4.424251953125Q12.548747578124999,4.482431953124999,12.496407578125,4.531331953125Q12.444067578125,4.580231953125001,12.383187578125,4.617981953125Q12.322317578125,4.6557319531250005,12.255247578125001,4.680891953125Q12.188177578125,4.706041953125,12.117487578125,4.7176219531250005Q12.046807578125,4.729201953125,11.975217578125001,4.7267719531250005Q11.903627578125,4.724341953125,11.833887578125001,4.707991953125Q11.764147578125,4.691641953125,11.698937578125001,4.662001953124999Q11.633727578125,4.632361953125001,11.575557578125,4.590561953125Q11.517377578125,4.548771953125,11.468477578125,4.4964319531250005Q11.419577578125,4.444091953125,11.381827578125,4.3832119531250004Q11.344077578124999,4.322341953125,11.318927578124999,4.255271953125Q10.495917578124999,2.060524953125,7.999887578125,2.060524953125Q6.2321075781249995,2.060524953125,5.591114578125,3.218691953125Q4.978982578125,4.324721953125,5.8123175781250005,5.602671953125Q5.851447578125,5.662671953125,5.878117578125,5.729151953125Q5.904787578125,5.795631953125,5.917967578125,5.866031953125Q5.931157578125,5.936441953125,5.930357578125,6.008071953125Q5.929547578125,6.079691953125,5.914787578125,6.149781953125Q5.900027578125,6.219881953125,5.871877578125,6.285741953125Q5.843727578125,6.351611953125,5.803267578125,6.410721953125Q5.762807578125,6.469831953125,5.711587578125,6.519911953125Q5.660377578125,6.569981953125,5.600375578125,6.609111953125Q5.540375578125,6.648241953125,5.473894578125,6.674901953125Q5.407413578125,6.701571953125,5.337008578125,6.714761953125Q5.266602578125,6.727941953125,5.194976578125,6.727141953125Q5.123350578125,6.726341953125,5.053258578125,6.711581953125Q4.983165578125,6.696821953125,4.917299578125,6.668671953125Q4.851432578125,6.640511953125,4.792324578125,6.600051953125Q4.733215578125,6.559591953125,4.683136378125,6.508381953125Q4.633056998125,6.457171953125,4.593931278125,6.397171953125ZM5.928127578125,5.999921953125Q5.928127578125,6.071321953125,5.914197578125,6.141361953125Q5.900267578125,6.211391953125,5.872937578125,6.277361953125Q5.845617578125,6.343331953125,5.805937578125,6.402701953125Q5.7662675781249995,6.462081953125,5.7157775781249995,6.512571953125Q5.665287578125,6.563061953125,5.605914578125,6.602731953125Q5.546542578125,6.642401953125,5.480571578125,6.669731953125Q5.414600578125,6.697051953125,5.344566578125,6.710991953125Q5.274532578125,6.724921953125,5.203125578125,6.724921953125Q5.131719578125,6.724921953125,5.061685578125,6.710981953125Q4.991651578125,6.697051953125,4.925680578125,6.669731953125Q4.859709578125,6.642401953125,4.800337578125,6.602731953125Q4.740965578125,6.563061953125,4.690473578125,6.512571953125Q4.639981778125,6.462081953125,4.600310578125,6.402701953125Q4.560639378125,6.343331953125,4.533313378125,6.277361953125Q4.505987578125,6.211391953125,4.492056578125,6.141361953125Q4.478125578125,6.071321953125,4.478125578125,5.999921953125Q4.478125578125,5.928511953125,4.492056578125,5.858481953125Q4.505987578125,5.788441953125,4.533313378125,5.722471953125Q4.560639378125,5.656501953125,4.600310578125,5.597131953125Q4.639981778125,5.537761953125,4.690473578125,5.487261953125Q4.740965578125,5.436771953125,4.800337578125,5.397101953125Q4.859709578125,5.357431953125,4.925680578125,5.330101953125Q4.991651578125,5.302781953125,5.061685578125,5.2888519531250004Q5.131719578125,5.274921953125,5.203125578125,5.274921953125Q5.274532578125,5.274921953125,5.344566578125,5.2888519531250004Q5.414600578125,5.302781953125,5.480571578125,5.330101953125Q5.546542578125,5.357431953125,5.605914578125,5.397101953125Q5.665287578125,5.436771953125,5.7157775781249995,5.487261953125Q5.7662675781249995,5.537761953125,5.805937578125,5.597131953125Q5.845617578125,5.656501953125,5.872937578125,5.722471953125Q5.900267578125,5.788441953125,5.914197578125,5.858481953125Q5.928127578125,5.928511953125,5.928127578125,5.999921953125ZM12.724897578125,3.999921953125Q12.724897578125,4.0713219531250004,12.710967578125,4.141361953125Q12.697037578125,4.211391953125,12.669707578125,4.277361953125Q12.642377578125,4.343331953125,12.602707578124999,4.402701953125Q12.563037578125,4.462081953125,12.512547578125,4.512571953125001Q12.462057578125,4.5630619531250005,12.402677578125001,4.602731953125Q12.343307578125,4.642401953125,12.277337578125,4.669731953125Q12.211367578125,4.6970519531249995,12.141337578125,4.710991953125Q12.071297578125,4.7249219531249995,11.999897578125001,4.7249219531249995Q11.928487578125,4.7249219531249995,11.858457578125,4.710991953125Q11.788417578125,4.6970519531249995,11.722447578125,4.669731953125Q11.656477578125,4.642401953125,11.597107578125,4.602731953125Q11.537737578125,4.5630619531250005,11.487237578125,4.512571953125001Q11.436747578125,4.462081953125,11.397077578125,4.402701953125Q11.357407578124999,4.343331953125,11.330077578125,4.277361953125Q11.302757578125,4.211391953125,11.288827578125,4.141361953125Q11.274897578125,4.0713219531250004,11.274897578125,3.999921953125Q11.274897578125,3.928511953125,11.288827578125,3.858481953125Q11.302757578125,3.788441953125,11.330077578125,3.722471953125Q11.357407578124999,3.656501953125,11.397077578125,3.597131953125Q11.436747578125,3.537761953125,11.487237578125,3.487261953125Q11.537737578125,3.436771953125,11.597107578125,3.397101953125Q11.656477578125,3.357431953125,11.722447578125,3.3301019531250002Q11.788417578125,3.302781953125,11.858447578125,3.288851953125Q11.928487578125,3.2749219531250002,11.999897578125001,3.2749219531250002Q12.071297578125,3.2749219531250002,12.141337578125,3.288851953125Q12.211367578125,3.302781953125,12.277337578125,3.3301019531250002Q12.343307578125,3.357431953125,12.402677578125001,3.397101953125Q12.462057578125,3.436771953125,12.512547578125,3.487261953125Q12.563037578125,3.537761953125,12.602707578124999,3.597131953125Q12.642377578125,3.656501953125,12.669707578125,3.722471953125Q12.697037578125,3.788441953125,12.710967578125,3.858481953125Q12.724897578125,3.928511953125,12.724897578125,3.999921953125Z" fill="#212121" fill-opacity="1"/></g><g><path d="M11.40596,9.60275Q12.02643,10.554263,12.04881,11.61388Q12.07026,12.62966,11.543800000000001,13.50746Q11.02361,14.3748,10.10623,14.875810000000001Q9.15751,15.39394,8,15.39394Q4.883815,15.39394,3.349504,12.32524Q3.317471,12.26117,3.298552,12.19208Q3.279634,12.123000000000001,3.274557,12.05155Q3.269479,11.9801,3.278439,11.90903Q3.2873989999999997,11.83796,3.310051,11.77001Q3.332703,11.70205,3.368177,11.63983Q3.403651,11.5776,3.450584,11.52348Q3.497517,11.46937,3.554104,11.42545Q3.6106920000000002,11.38154,3.67476,11.349499999999999Q3.738829,11.31747,3.807915,11.29855Q3.877002,11.279630000000001,3.9484516,11.27456Q4.0199015,11.26948,4.090969,11.27844Q4.162037,11.2874,4.229991,11.31005Q4.297945,11.332699999999999,4.360174,11.36818Q4.422403,11.40365,4.476516,11.45058Q4.530628,11.49752,4.574545,11.5541Q4.618462,11.61069,4.650495,11.67476Q5.78278,13.93939,8,13.93939Q9.588650000000001,13.93939,10.296389999999999,12.75933Q10.982199999999999,11.61584,10.187570000000001,10.39725Q10.14844,10.337249,10.121780000000001,10.270768Q10.09511,10.204288,10.08192,10.133882Q10.06874,10.063476,10.06954,9.99185041Q10.07034,9.9202248,10.0851,9.850132Q10.09986,9.780039,10.12801,9.714173Q10.15617,9.648307,10.196629999999999,9.589198Q10.23709,9.53009,10.2883,9.48001Q10.33952,9.429931,10.399519999999999,9.390805Q10.459520000000001,9.35168,10.526,9.325011Q10.59248,9.298343,10.662880000000001,9.285157Q10.73329,9.27197,10.80491,9.272773Q10.87654,9.273576,10.946629999999999,9.288336Q11.016729999999999,9.303097,11.08259,9.331249Q11.14846,9.3594,11.20757,9.399861Q11.266680000000001,9.440321,11.316749999999999,9.491535Q11.36683,9.54275,11.40596,9.60275ZM11.52177,10Q11.52177,10.0714063,11.50783,10.14144Q11.4939,10.211475,11.46658,10.277445Q11.439250000000001,10.343416,11.39958,10.402788Q11.35991,10.46216,11.30942,10.512652Q11.25893,10.563144,11.19955,10.602815Q11.14018,10.642487,11.07421,10.669813Q11.00824,10.697139,10.93821,10.711069Q10.86817,10.725,10.79677,10.725Q10.72536,10.725,10.65532,10.711069Q10.58529,10.697139,10.51932,10.669813Q10.45335,10.642487,10.393979999999999,10.602815Q10.3346,10.563144,10.28411,10.512652Q10.23362,10.46216,10.193950000000001,10.402788Q10.15428,10.343416,10.12695,10.277445Q10.099630000000001,10.211475,10.0857,10.14144Q10.07177,10.0714063,10.07177,10Q10.07177,9.9285937,10.0857,9.85856Q10.099630000000001,9.788525,10.12695,9.722555Q10.15428,9.656584,10.193950000000001,9.597212Q10.23362,9.53784,10.28411,9.487348Q10.3346,9.436856,10.393979999999999,9.397185Q10.45335,9.357513,10.51932,9.330187Q10.58529,9.302861,10.65532,9.288931Q10.72536,9.275,10.79677,9.275Q10.86817,9.275,10.93821,9.288931Q11.00824,9.302861,11.07421,9.330187Q11.14018,9.357513,11.19955,9.397185Q11.25892,9.436856,11.30942,9.487348Q11.35991,9.53784,11.39958,9.597212Q11.439250000000001,9.656584,11.46658,9.722555Q11.4939,9.788525,11.50783,9.85856Q11.52177,9.9285937,11.52177,10ZM4.725,12Q4.725,12.07141,4.711069,12.14144Q4.697139,12.21147,4.6698129999999995,12.27745Q4.642487,12.34342,4.602815,12.40279Q4.563144,12.46216,4.512652,12.51265Q4.46216,12.56314,4.402788,12.60281Q4.343416,12.64249,4.277445,12.66981Q4.211475,12.697140000000001,4.14144,12.71107Q4.0714063,12.725,4,12.725Q3.9285937,12.725,3.8585599999999998,12.71107Q3.788525,12.697140000000001,3.722555,12.66981Q3.656584,12.64249,3.597212,12.60282Q3.53784,12.56314,3.487348,12.51265Q3.436856,12.46216,3.397185,12.40279Q3.357513,12.34342,3.330187,12.27745Q3.302861,12.21147,3.288931,12.14144Q3.275,12.07141,3.275,12Q3.275,11.92859,3.288931,11.85856Q3.302861,11.78852,3.330187,11.72255Q3.357513,11.65658,3.397185,11.59721Q3.436856,11.53784,3.487348,11.48735Q3.53784,11.43686,3.597212,11.39718Q3.656584,11.35751,3.722555,11.33019Q3.788525,11.302859999999999,3.8585599999999998,11.28893Q3.9285937,11.275,4,11.275Q4.0714063,11.275,4.14144,11.28893Q4.211475,11.302859999999999,4.277445,11.33019Q4.343416,11.35751,4.402788,11.39718Q4.46216,11.43686,4.512652,11.48735Q4.563144,11.53784,4.602815,11.59721Q4.642487,11.65658,4.6698129999999995,11.72255Q4.697139,11.78852,4.711069,11.85856Q4.725,11.92859,4.725,12Z" fill="#212121" fill-opacity="1"/></g></g></svg>