<svg xmlns="http://www.w3.org/2000/svg" xmlns:xlink="http://www.w3.org/1999/xlink" fill="none" version="1.1" width="16" height="16" viewBox="0 0 16 16"><defs><clipPath id="master_svg0_346_2628"><rect x="0" y="0" width="16" height="16" rx="0"/></clipPath></defs><g clip-path="url(#master_svg0_346_2628)"><g><path d="M6.28437443359375,3.038702915625C3.7741744335937497,4.650806015625,2.37964943359375,6.527106015625,2.10079273359375,8.667676015625C1.66667643359375,12.000036015625,4.64673443359375,13.631116015625,6.15670443359375,12.165606015625C7.66667443359375,10.700106015625,6.76153443359375,8.839906015625001,5.66817443359375,8.331436015625C4.57480443359375,7.822936015625,3.9061744335937503,8.000036015625,4.02280443359375,7.320576015625C4.13943443359375,6.641076015625,5.6949744335937496,4.757136015625,7.06157443359375,3.879773015625C7.15223443359375,3.802673015625,7.18674443359375,3.653073015625,7.09943443359375,3.539606015625C7.04200443359375,3.464940015625,6.92937443359375,3.318563015625,6.76153443359375,3.100420015625C6.61477443359375,2.909666415625,6.47417443359375,2.916803015625,6.28437443359375,3.038702915625Z" fill-rule="evenodd" fill="#212121" fill-opacity="1"/></g><g><path d="M12.89287494140625,3.038702915625C10.38270494140625,4.650806015625,8.98817594140625,6.527106015625,8.70930994140625,8.667676015625C8.27520894140625,12.000036015625,11.255274941406249,13.631116015625,12.76524494140625,12.165606015625C14.27521494140625,10.700106015625,13.37007494140625,8.839906015625001,12.27670494140625,8.331436015625C11.18334494140625,7.822936015625,10.51467494140625,8.000036015625,10.63134494140625,7.320576015625C10.74797494140625,6.641076015625,12.30351494140625,4.757136015625,13.67011494140625,3.879773015625C13.76077494140625,3.802673015625,13.79527494140625,3.653073015625,13.70794494140625,3.539606015625C13.650544941406249,3.464940015625,13.53790494140625,3.318563015625,13.37007494140625,3.100420015625C13.223314941406251,2.909666415625,13.08271494140625,2.916803015625,12.89287494140625,3.038702915625Z" fill-rule="evenodd" fill="#212121" fill-opacity="1"/></g></g></svg>