<svg xmlns="http://www.w3.org/2000/svg" xmlns:xlink="http://www.w3.org/1999/xlink" fill="none" version="1.1" width="16" height="16" viewBox="0 0 16 16"><defs><clipPath id="master_svg0_346_2621"><rect x="16" y="0" width="16" height="16" rx="0"/></clipPath></defs><g transform="matrix(-1,0,0,1,32,0)" clip-path="url(#master_svg0_346_2621)"><g><rect x="16" y="0" width="16.000003814697266" height="16" rx="0" fill="#FFFFFF" fill-opacity="0.009999999776482582"/></g><g><path d="M28.620843505859376,7.489081953125Q31.023743505859375,9.924081953125,31.390243505859374,13.538551953125Q31.397443505859375,13.609851953125,31.390643505859373,13.681151953125Q31.383843505859375,13.752451953125,31.363243505859373,13.821051953125Q31.342643505859375,13.889651953125,31.309043505859375,13.952951953125Q31.275443505859375,14.016251953125,31.230143505859374,14.071751953125Q31.184943505859373,14.127251953125,31.129643505859377,14.172851953125Q31.074443505859374,14.218451953125,31.011343505859376,14.252351953125Q30.948243505859374,14.286351953125,30.879743505859373,14.307251953125Q30.811343505859377,14.328251953125,30.740043505859376,14.335551953125Q30.650443505859375,14.344551953125,30.561343505859377,14.331551953125Q30.472243505859375,14.318551953125,30.389043505859377,14.284151953125Q30.305843505859375,14.249751953125,30.233443505859377,14.196151953125Q30.161143505859375,14.142451953125,30.104043505859373,14.072851953125Q27.819343505859376,11.283931953125,26.170523505859375,10.934091953125Q24.405573505859376,10.559601953125,22.823593505859375,10.818631953125L22.706073505859376,10.100921953124999L23.433353505859376,10.100921953124999L23.433353505859376,13.666551953125Q23.433353505859376,13.738251953125,23.419373505859376,13.808451953125Q23.405403505859375,13.878751953125,23.377983505859376,13.944851953125Q23.350573505859373,14.011051953125,23.310783505859376,14.070651953125Q23.270983505859377,14.130151953125,23.220333505859376,14.180851953125Q23.169683505859375,14.231451953125,23.110123505859374,14.271251953125Q23.050563505859376,14.311051953125,22.984393505859373,14.338451953125Q22.918213505859374,14.365951953125,22.847963505859376,14.379851953125Q22.777703505859375,14.393851953125,22.706073505859376,14.393851953125Q22.553873505859375,14.393851953125,22.414453505859374,14.332851953125Q22.275023505859373,14.271751953125,22.171763505859374,14.159951953125L16.799035505859376,8.341751953125Q16.752085505859377,8.290901953125001,16.715567505859376,8.232121953124999Q16.679049505859375,8.173331953125,16.654273505859376,8.108721953125Q16.629498505859374,8.044101953125,16.617354505859375,7.975971953125Q16.605211505859376,7.907841953125,16.606135505859374,7.838641953125Q16.607059505859375,7.769441953125,16.621018505859375,7.701661953125Q16.634977505859375,7.633871953125,16.661470505859374,7.569941953125Q16.687962505859375,7.506011953125,16.726037505859374,7.448221953125Q16.764113505859374,7.390431953125,16.812404505859377,7.340861953125L22.185133505859376,1.825759953125Q22.235123505859374,1.774451953125,22.294153505859377,1.733881953125Q22.353183505859377,1.6933109531250001,22.419003505859376,1.6650359531249999Q22.484813505859375,1.636761953125,22.554873505859376,1.621869953125Q22.624943505859374,1.606977953125,22.696563505859373,1.606041953125Q22.768193505859376,1.6051049531250001,22.838623505859374,1.6181599531250002Q22.909053505859376,1.631213953125,22.975583505859376,1.657757953125Q23.042113505859376,1.6843019531249999,23.102183505859376,1.723315953125Q23.162263505859375,1.762328953125,23.213563505859376,1.812312953125Q23.318963505859376,1.914984953125,23.376153505859374,2.050549953125Q23.433353505859376,2.186115953125,23.433353505859376,2.333251953125L23.433353505859376,5.722251953124999L22.706073505859376,5.722251953124999L22.711823505859375,4.995001953125Q26.186803505859373,5.022481953125,28.620843505859376,7.489091953125L28.620843505859376,7.489081953125ZM27.585543505859377,8.510751953125Q25.573903505859377,6.472221953125,22.700323505859373,6.449501953125Q22.629063505859374,6.448941953125,22.559263505859377,6.434551953125Q22.489463505859376,6.420161953125,22.423783505859376,6.392501953125Q22.358103505859376,6.364841953125,22.299043505859373,6.324951953125Q22.239983505859374,6.285071953125,22.189783505859374,6.234471953125Q22.139593505859374,6.183881953125001,22.100173505859374,6.124511953124999Q22.060753505859374,6.065131953125,22.033613505859375,5.999241953125Q22.006473505859375,5.933341953125,21.992643505859377,5.863431953125Q21.978803505859375,5.7935219531249995,21.978803505859375,5.722251953124999L21.978803505859375,2.333251953125L22.706073505859376,2.333251953125L23.227013505859375,2.840743953125L17.854282505859373,8.355841953125001L17.333343505859375,7.848351953125L17.867651505859374,7.354951953125L23.240383505859377,13.173151953125L22.706073505859376,13.666551953125L21.978803505859375,13.666551953125L21.978803505859375,10.100921953124999Q21.978803505859375,10.036731953124999,21.990043505859376,9.973531953125Q22.001293505859376,9.910341953125,22.023423505859377,9.850091953125Q22.045563505859377,9.789841953125,22.077913505859375,9.734391953125Q22.110263505859375,9.678951953125,22.151823505859376,9.630041953125Q22.193383505859373,9.581121953124999,22.242863505859376,9.540241953125001Q22.292353505859374,9.499351953125,22.348233505859376,9.467771953125Q22.404113505859375,9.436191953125,22.464663505859374,9.414881953125Q22.525213505859377,9.393571953125,22.588553505859373,9.383201953124999Q24.440183505859373,9.080021953125,26.472423505859375,9.511221953125Q28.620843505859376,9.967071953125,31.229243505859372,13.151051953125L30.666643505859376,13.611951953125L29.943143505859375,13.685351953125Q29.628343505859377,10.580851953125,27.585543505859377,8.510751953125L27.585543505859377,8.510751953125Z" fill="#212121" fill-opacity="1"/></g></g></svg>