<svg xmlns="http://www.w3.org/2000/svg" xmlns:xlink="http://www.w3.org/1999/xlink" fill="none" version="1.1" width="16" height="16" viewBox="0 0 16 16"><defs><clipPath id="master_svg0_346_2625"><rect x="0" y="0" width="16" height="16" rx="0"/></clipPath></defs><g clip-path="url(#master_svg0_346_2625)"><g><rect x="0" y="0" width="16.000003814697266" height="16" rx="0" fill="#FFFFFF" fill-opacity="0.009999999776482582"/></g><g><path d="M13.33338701171875,15.394021046875L2.66668701171875,15.394021046875Q2.59505691171875,15.394021046875,2.52480301171875,15.380046046875Q2.45454901171875,15.366072046875,2.38837201171875,15.338660046875Q2.32219401171875,15.311249046875,2.26263601171875,15.271453046875Q2.20307801171875,15.231658046875,2.15242801171875,15.181007046875Q2.1017770117187498,15.130357046875,2.06198201171875,15.070799046875Q2.02218601171875,15.011241046875,1.9947750117187502,14.945063046875Q1.9673630117187502,14.878886046875,1.95338901171875,14.808632046875Q1.9394140117187502,14.738378146875,1.9394140117187502,14.666748046875Q1.9394140117187502,14.595117946875,1.95338901171875,14.524864046875Q1.9673630117187502,14.454610046875,1.9947750117187502,14.388433046875Q2.02218601171875,14.322255046875,2.06198201171875,14.262697046875Q2.1017770117187498,14.203139046875,2.15242801171875,14.152489046875Q2.20307801171875,14.101838046875,2.26263601171875,14.062043046875Q2.32219401171875,14.022247046875,2.38837201171875,13.994836046875Q2.45454901171875,13.967424046875,2.52480301171875,13.953450046875Q2.59505691171875,13.939475046875,2.66668701171875,13.939475046875L13.33338701171875,13.939475046875Q13.40498701171875,13.939475046875,13.47518701171875,13.953450046875Q13.54548701171875,13.967424046875,13.61168701171875,13.994836046875Q13.67788701171875,14.022247046875,13.73738701171875,14.062043046875Q13.79698701171875,14.101838046875,13.84758701171875,14.152489046875Q13.89828701171875,14.203139046875,13.93808701171875,14.262697046875Q13.97788701171875,14.322255046875,14.00528701171875,14.388433046875Q14.03268701171875,14.454610046875,14.04668701171875,14.524864046875Q14.06058701171875,14.595117946875,14.06058701171875,14.666748046875Q14.06058701171875,14.738378146875,14.04668701171875,14.808632046875Q14.03268701171875,14.878886046875,14.00528701171875,14.945063046875Q13.97788701171875,15.011241046875,13.93808701171875,15.070799046875Q13.89828701171875,15.130357046875,13.84758701171875,15.181007046875Q13.79698701171875,15.231658046875,13.73738701171875,15.271453046875Q13.67788701171875,15.311249046875,13.61168701171875,15.338660046875Q13.54548701171875,15.366072046875,13.47518701171875,15.380046046875Q13.40498701171875,15.394021046875,13.33338701171875,15.394021046875ZM14.05838701171875,14.666748046875Q14.05838701171875,14.738154346875,14.04438701171875,14.808188046875Q14.03048701171875,14.878223046875,14.00318701171875,14.944193046875Q13.97588701171875,15.010164046875,13.93618701171875,15.069536046875Q13.89648701171875,15.128908046875,13.84598701171875,15.179400046875Q13.79548701171875,15.229892046875,13.73618701171875,15.269563046875Q13.67678701171875,15.309235046875,13.61078701171875,15.336561046875Q13.54478701171875,15.363887046875,13.47478701171875,15.377817046875Q13.40478701171875,15.391748046875,13.33338701171875,15.391748046875Q13.26198701171875,15.391748046875,13.19188701171875,15.377817046875Q13.12188701171875,15.363887046875,13.05588701171875,15.336561046875Q12.98988701171875,15.309235046875,12.93058701171875,15.269563046875Q12.87118701171875,15.229892046875,12.82068701171875,15.179400046875Q12.77018701171875,15.128908046875,12.73048701171875,15.069536046875Q12.69088701171875,15.010164046875,12.66353701171875,14.944193046875Q12.63621701171875,14.878223046875,12.62228701171875,14.808188046875Q12.60835701171875,14.738154346875,12.60835701171875,14.666748046875Q12.60835701171875,14.595341746875,12.62228701171875,14.525308046875Q12.63621701171875,14.455273046875,12.66353701171875,14.389303046875Q12.69088701171875,14.323332046875,12.73048701171875,14.263960046875Q12.77018701171875,14.204588046875,12.82068701171875,14.154096046875Q12.87118701171875,14.103604046875,12.93058701171875,14.063933046875Q12.98988701171875,14.024261046875,13.05588701171875,13.996935046875Q13.12188701171875,13.969609046875,13.19188701171875,13.955679046875Q13.26198701171875,13.941748046875,13.33338701171875,13.941748046875Q13.40478701171875,13.941748046875,13.47478701171875,13.955679046875Q13.54478701171875,13.969609046875,13.61078701171875,13.996935046875Q13.67678701171875,14.024261046875,13.73618701171875,14.063933046875Q13.79548701171875,14.103604046875,13.84598701171875,14.154096046875Q13.89648701171875,14.204588046875,13.93618701171875,14.263960046875Q13.97588701171875,14.323332046875,14.00318701171875,14.389303046875Q14.03048701171875,14.455273046875,14.04438701171875,14.525308046875Q14.05838701171875,14.595341746875,14.05838701171875,14.666748046875ZM3.39168701171875,14.666748046875Q3.39168701171875,14.738154346875,3.37775601171875,14.808188046875Q3.36382601171875,14.878223046875,3.33650001171875,14.944193046875Q3.30917401171875,15.010164046875,3.26950201171875,15.069536046875Q3.22983101171875,15.128908046875,3.17933901171875,15.179400046875Q3.12884701171875,15.229892046875,3.06947501171875,15.269563046875Q3.01010301171875,15.309235046875,2.94413201171875,15.336561046875Q2.87816201171875,15.363887046875,2.8081270117187502,15.377817046875Q2.73809331171875,15.391748046875,2.66668701171875,15.391748046875Q2.59528071171875,15.391748046875,2.5252470117187498,15.377817046875Q2.45521201171875,15.363887046875,2.38924201171875,15.336561046875Q2.32327101171875,15.309235046875,2.26389901171875,15.269563046875Q2.20452701171875,15.229892046875,2.15403501171875,15.179400046875Q2.10354301171875,15.128908046875,2.06387201171875,15.069536046875Q2.02420001171875,15.010164046875,1.99687401171875,14.944193046875Q1.96954801171875,14.878223046875,1.95561801171875,14.808188046875Q1.94168701171875,14.738154346875,1.94168701171875,14.666748046875Q1.94168701171875,14.595341746875,1.95561801171875,14.525308046875Q1.96954801171875,14.455273046875,1.99687401171875,14.389303046875Q2.02420001171875,14.323332046875,2.06387201171875,14.263960046875Q2.10354301171875,14.204588046875,2.15403501171875,14.154096046875Q2.20452701171875,14.103604046875,2.26389901171875,14.063933046875Q2.32327101171875,14.024261046875,2.38924201171875,13.996935046875Q2.45521201171875,13.969609046875,2.5252470117187498,13.955679046875Q2.59528071171875,13.941748046875,2.66668701171875,13.941748046875Q2.73809331171875,13.941748046875,2.8081270117187502,13.955679046875Q2.87816201171875,13.969609046875,2.94413201171875,13.996935046875Q3.01010301171875,14.024261046875,3.06947501171875,14.063933046875Q3.12884701171875,14.103604046875,3.17933901171875,14.154096046875Q3.22983101171875,14.204588046875,3.26950201171875,14.263960046875Q3.30917401171875,14.323332046875,3.33650001171875,14.389303046875Q3.36382601171875,14.455273046875,3.37775601171875,14.525308046875Q3.39168701171875,14.595341746875,3.39168701171875,14.666748046875Z" fill="#212121" fill-opacity="1"/></g><g><path d="M4.394021046875,2.0322265625L4.394021046875,4.6826965625L4.394021046875,7.3332265625Q4.394021046875,8.8269065625,5.450208046875,9.8830965625Q6.506398046875,10.9392865625,8.000078046875,10.9392865625Q9.493758046875,10.9392865625,10.549948046875,9.8830965625Q11.606138046875,8.8269065625,11.606138046875,7.3332365625L11.606138046875,4.6826965625L11.606138046875,2.0322265625Q11.606138046875,1.9605964625,11.620118046875,1.8903425624999999Q11.634088046875,1.8200885625,11.661498046875,1.7539115625Q11.688918046875,1.6877335625,11.728708046875,1.6281755625Q11.768508046875,1.5686175625,11.819158046875,1.5179675625Q11.869808046875,1.4673165625,11.929358046875,1.4275215625Q11.988918046875,1.3877255625,12.055098046875,1.3603145625000002Q12.121278046875,1.3329025625000002,12.191528046875,1.3189285625Q12.261788046875,1.3049535625000002,12.333418046875,1.3049535625000002Q12.405048046875,1.3049535625000002,12.475298046875,1.3189285625Q12.545548046875,1.3329025625000002,12.611728046875,1.3603145625000002Q12.677908046875,1.3877255625,12.737468046875,1.4275215625Q12.797018046875,1.4673165625,12.847678046875,1.5179675625Q12.898328046875,1.5686175625,12.938118046875,1.6281755625Q12.977918046875,1.6877335625,13.005328046875,1.7539115625Q13.032738046875,1.8200885625,13.046708046875,1.8903425624999999Q13.060688046875,1.9605964625,13.060688046875,2.0322265625L13.060688046875,4.6826965625L13.060688046875,7.3332365625Q13.060688046875,9.4293965625,11.578468046874999,10.9116165625Q10.096248046875,12.3938265625,8.000078046875,12.3938265625Q5.903908046874999,12.3938265625,4.421693046875,10.9116165625Q2.939475046875,9.429406562499999,2.939475046875,7.3332265625L2.939475046875,4.6826965625L2.939475046875,2.0322265625Q2.939475046875,1.9605964625,2.953450046875,1.8903425624999999Q2.967424046875,1.8200885625,2.994836046875,1.7539115625Q3.022247046875,1.6877335625,3.062043046875,1.6281755625Q3.1018380468749998,1.5686175625,3.152489046875,1.5179675625Q3.203139046875,1.4673165625,3.262697046875,1.4275215625Q3.322255046875,1.3877255625,3.388433046875,1.3603145625000002Q3.454610046875,1.3329025625000002,3.524864046875,1.3189285625Q3.595117946875,1.3049535625000002,3.666748046875,1.3049535625000002Q3.738378146875,1.3049535625000002,3.808632046875,1.3189285625Q3.878886046875,1.3329025625000002,3.945063046875,1.3603145625000002Q4.011241046875,1.3877255625,4.070799046875,1.4275215625Q4.130357046875,1.4673165625,4.181007046875,1.5179675625Q4.231658046875,1.5686175625,4.271453046875,1.6281755625Q4.311249046875,1.6877335625,4.338660046875,1.7539115625Q4.366072046875,1.8200885625,4.380046046875,1.8903425624999999Q4.394021046875,1.9605964625,4.394021046875,2.0322265625ZM4.391748046875,2.0322265625Q4.391748046875,2.1036328625,4.377817046875,2.1736665625000002Q4.363887046875,2.2437015625,4.3365610468749995,2.3096715625Q4.309235046875,2.3756425625,4.269563046875,2.4350145625Q4.229892046875,2.4943865625,4.179400046875,2.5448785625Q4.128908046875,2.5953705625,4.069536046875,2.6350415625Q4.010164046875,2.6747135625,3.944193046875,2.7020395625Q3.878223046875,2.7293655625,3.8081880468750002,2.7432955625Q3.738154346875,2.7572265625,3.666748046875,2.7572265625Q3.595341746875,2.7572265625,3.5253080468749998,2.7432955625Q3.455273046875,2.7293655625,3.389303046875,2.7020395625Q3.323332046875,2.6747135625,3.263960046875,2.6350415625Q3.204588046875,2.5953705625,3.154096046875,2.5448785625Q3.103604046875,2.4943865625,3.063933046875,2.4350145625Q3.024261046875,2.3756425625,2.996935046875,2.3096715625Q2.969609046875,2.2437015625,2.955679046875,2.1736665625000002Q2.941748046875,2.1036328625,2.941748046875,2.0322265625Q2.941748046875,1.9608202625,2.955679046875,1.8907865625Q2.969609046875,1.8207515625,2.996935046875,1.7547815625Q3.024261046875,1.6888105625,3.063933046875,1.6294385625Q3.103604046875,1.5700665625,3.154096046875,1.5195745625Q3.204588046875,1.4690825625000001,3.263960046875,1.4294115625Q3.323332046875,1.3897395625,3.389303046875,1.3624135625Q3.455273046875,1.3350875625,3.5253080468749998,1.3211575625Q3.595341746875,1.3072265625,3.666748046875,1.3072265625Q3.738154346875,1.3072265625,3.8081880468750002,1.3211575625Q3.878223046875,1.3350875625,3.944193046875,1.3624135625Q4.010164046875,1.3897395625,4.069536046875,1.4294115625Q4.128908046875,1.4690825625000001,4.179400046875,1.5195745625Q4.229892046875,1.5700665625,4.269563046875,1.6294385625Q4.309235046875,1.6888105625,4.3365610468749995,1.7547815625Q4.363887046875,1.8207515625,4.377817046875,1.8907865625Q4.391748046875,1.9608202625,4.391748046875,2.0322265625ZM13.058418046875,2.0322265625Q13.058418046875,2.1036328625,13.044488046875,2.1736665625000002Q13.030548046875,2.2437015625,13.003228046875,2.3096715625Q12.975898046875,2.3756425625,12.936228046875,2.4350145625Q12.896558046875,2.4943865625,12.846068046875,2.5448785625Q12.795578046875,2.5953705625,12.736198046875,2.6350415625Q12.676828046875,2.6747135625,12.610858046875,2.7020395625Q12.544888046875,2.7293655625,12.474858046875,2.7432955625Q12.404818046875,2.7572265625,12.333418046875,2.7572265625Q12.262008046875,2.7572265625,12.191968046875,2.7432955625Q12.121938046875,2.7293655625,12.055968046875,2.7020395625Q11.989998046875,2.6747135625,11.930628046875,2.6350415625Q11.871248046875,2.5953705625,11.820758046875,2.5448785625Q11.770268046875,2.4943865625,11.730598046875,2.4350145625Q11.690928046875,2.3756425625,11.663598046875,2.3096715625Q11.636278046874999,2.2437015625,11.622348046875,2.1736665625000002Q11.608418046875,2.1036328625,11.608418046875,2.0322265625Q11.608418046875,1.9608202625,11.622348046875,1.8907865625Q11.636278046874999,1.8207515625,11.663598046875,1.7547815625Q11.690928046875,1.6888105625,11.730598046875,1.6294385625Q11.770268046875,1.5700665625,11.820758046875,1.5195745625Q11.871248046875,1.4690825625000001,11.930628046875,1.4294115625Q11.989998046875,1.3897395625,12.055968046875,1.3624135625Q12.121938046875,1.3350875625,12.191968046875,1.3211575625Q12.262008046875,1.3072265625,12.333418046875,1.3072265625Q12.404818046875,1.3072265625,12.474858046875,1.3211575625Q12.544888046875,1.3350875625,12.610858046875,1.3624135625Q12.676828046875,1.3897395625,12.736198046875,1.4294115625Q12.795578046875,1.4690825625000001,12.846068046875,1.5195745625Q12.896558046875,1.5700665625,12.936228046875,1.6294385625Q12.975898046875,1.6888105625,13.003228046875,1.7547815625Q13.030548046875,1.8207515625,13.044488046875,1.8907865625Q13.058418046875,1.9608202625,13.058418046875,2.0322265625Z" fill="#212121" fill-opacity="1"/></g></g></svg>