<svg xmlns="http://www.w3.org/2000/svg" xmlns:xlink="http://www.w3.org/1999/xlink" fill="none" version="1.1" width="16" height="16" viewBox="0 0 16 16"><defs><clipPath id="master_svg0_346_2620"><rect x="0" y="0" width="16" height="16" rx="0"/></clipPath></defs><g clip-path="url(#master_svg0_346_2620)"><g><rect x="0" y="0" width="16.000003814697266" height="16" rx="0" fill="#FFFFFF" fill-opacity="0.009999999776482582"/></g><g><path d="M12.620751953125,7.489081953125Q15.023651953125,9.924081953125,15.390151953125,13.538551953125Q15.397351953125,13.609851953125,15.390551953125,13.681151953125Q15.383751953125,13.752451953125,15.363151953125,13.821051953125Q15.342551953125,13.889651953125,15.308951953125,13.952951953125Q15.275351953125,14.016251953125,15.230051953125,14.071751953125Q15.184851953125,14.127251953125,15.129551953125,14.172851953125Q15.074351953125,14.218451953125,15.011251953125,14.252351953125Q14.948151953125,14.286351953125,14.879651953125,14.307251953125Q14.811251953125,14.328251953125,14.739951953125,14.335551953125Q14.650351953125,14.344551953125,14.561251953125,14.331551953125Q14.472151953125,14.318551953125,14.388951953125,14.284151953125Q14.305751953125,14.249751953125,14.233351953125,14.196151953125Q14.161051953125,14.142451953125,14.103951953125,14.072851953125Q11.819251953125,11.283931953125,10.170431953125,10.934091953125Q8.405481953125001,10.559601953125,6.823501953125,10.818631953125L6.705981953125,10.100921953124999L7.433261953125,10.100921953124999L7.433261953125,13.666551953125Q7.433261953125,13.738251953125,7.419281953125,13.808451953125Q7.405311953125,13.878751953125,7.377891953125,13.944851953125Q7.350481953125,14.011051953125,7.310691953125,14.070651953125Q7.270891953125,14.130151953125,7.220241953125,14.180851953125Q7.169591953125,14.231451953125,7.110031953125,14.271251953125Q7.050471953125,14.311051953125,6.984301953125,14.338451953125Q6.918121953125,14.365951953125,6.847871953125,14.379851953125Q6.777611953125,14.393851953125,6.705981953125,14.393851953125Q6.553781953125,14.393851953125,6.414361953125,14.332851953125Q6.274931953125,14.271751953125,6.171671953125,14.159951953125L0.798943953125,8.341751953125Q0.751993953125,8.290901953125001,0.715475953125,8.232121953124999Q0.678957953125,8.173331953125,0.654181953125,8.108721953125Q0.629406953125,8.044101953125,0.617262953125,7.975971953125Q0.605119953125,7.907841953125,0.606043953125,7.838641953125Q0.606967953125,7.769441953125,0.620926953125,7.701661953125Q0.634885953125,7.633871953125,0.661378953125,7.569941953125Q0.687870953125,7.506011953125,0.725945953125,7.448221953125Q0.764021953125,7.390431953125,0.812312953125,7.340861953125L6.185041953125,1.825759953125Q6.235031953125,1.774451953125,6.294061953125,1.733881953125Q6.353091953125,1.6933109531250001,6.418911953125,1.6650359531249999Q6.484721953125,1.636761953125,6.554781953125,1.621869953125Q6.624851953125,1.606977953125,6.696471953125,1.606041953125Q6.768101953125,1.6051049531250001,6.838531953125,1.6181599531250002Q6.908961953125,1.631213953125,6.975491953125,1.657757953125Q7.042021953125,1.6843019531249999,7.102091953125,1.723315953125Q7.162171953125,1.762328953125,7.213471953125,1.812312953125Q7.318871953125,1.914984953125,7.376061953125,2.050549953125Q7.433261953125,2.186115953125,7.433261953125,2.333251953125L7.433261953125,5.722251953124999L6.705981953125,5.722251953124999L6.711731953125,4.995001953125Q10.186711953125,5.022481953125,12.620751953125,7.489091953125L12.620751953125,7.489081953125ZM11.585451953125,8.510751953125Q9.573811953125,6.472221953125,6.700231953125,6.449501953125Q6.628971953125,6.448941953125,6.559171953125,6.434551953125Q6.489371953125,6.420161953125,6.423691953125,6.392501953125Q6.358011953125,6.364841953125,6.298951953125,6.324951953125Q6.239891953125,6.285071953125,6.189691953125,6.234471953125Q6.139501953125,6.183881953125001,6.100081953125,6.124511953124999Q6.060661953125,6.065131953125,6.033521953125,5.999241953125Q6.006381953125,5.933341953125,5.992551953125,5.863431953125Q5.978711953125,5.7935219531249995,5.978711953125,5.722251953124999L5.978711953125,2.333251953125L6.705981953125,2.333251953125L7.226921953125,2.840743953125L1.854190953125,8.355841953125001L1.333251953125,7.848351953125L1.867559953125,7.354951953125L7.240291953125,13.173151953125L6.705981953125,13.666551953125L5.978711953125,13.666551953125L5.978711953125,10.100921953124999Q5.978711953125,10.036731953124999,5.989951953125,9.973531953125Q6.001201953125,9.910341953125,6.023331953125,9.850091953125Q6.045471953125,9.789841953125,6.077821953125,9.734391953125Q6.110171953125,9.678951953125,6.151731953125,9.630041953125Q6.193291953125,9.581121953124999,6.242771953125,9.540241953125001Q6.292261953125,9.499351953125,6.348141953125,9.467771953125Q6.404021953125,9.436191953125,6.464571953125,9.414881953125Q6.525121953125,9.393571953125,6.588461953125,9.383201953124999Q8.440091953125,9.080021953125,10.472331953125,9.511221953125Q12.620751953125,9.967071953125,15.229151953125,13.151051953125L14.666551953125,13.611951953125L13.943051953125,13.685351953125Q13.628251953125,10.580851953125,11.585451953125,8.510751953125L11.585451953125,8.510751953125Z" fill="#212121" fill-opacity="1"/></g></g></svg>